<?xml version="1.0" encoding="UTF-8" standalone="no"?>
<svg
   xmlns:dc="http://purl.org/dc/elements/1.1/"
   xmlns:cc="http://creativecommons.org/ns#"
   xmlns:rdf="http://www.w3.org/1999/02/22-rdf-syntax-ns#"
   xmlns:svg="http://www.w3.org/2000/svg"
   xmlns="http://www.w3.org/2000/svg"
   id="svg8"
   version="1.1"
   viewBox="0 0 68.487799 180.55043"
   height="180.55043mm"
   width="68.487801mm">
  <defs
     id="defs2" />
  <metadata
     id="metadata5">
    <rdf:RDF>
      <cc:Work
         rdf:about="">
        <dc:format>image/svg+xml</dc:format>
        <dc:type
           rdf:resource="http://purl.org/dc/dcmitype/StillImage" />
        <dc:title></dc:title>
      </cc:Work>
    </rdf:RDF>
  </metadata>
  <g
     transform="translate(27.370265,-107.77124)"
     id="layer1">
    <path
       id="path185"
       d="m 7.0690242,287.21683 c -0.023813,-0.6077 0.1352629,-1.37741 0.3534992,-1.71049 0.2516664,-0.38409 0.3995526,-1.2622 0.4043336,-2.40083 0.00415,-0.98739 0.3091445,-3.64071 0.6777726,-5.89629 1.0334043,-6.32323 1.1966072,-8.85141 1.0418842,-16.13958 C 9.2809118,248.55875 8.87575,243.29057 7.2674802,231.4363 c -0.3305916,-2.43672 -0.042553,-14.61871 0.3753565,-15.875 0.072612,-0.21828 0.2164318,-1.5875 0.3195981,-3.0427 0.1031637,-1.45521 0.2151645,-2.94349 0.2488883,-3.3073 0.3831246,-4.13316 0.40309,-10.86642 0.041971,-14.15521 -0.2237025,-2.03729 -0.4821396,-5.03916 -0.5743046,-6.67083 -0.1086511,-1.92354 -0.3460194,-3.4363 -0.6750791,-4.30231 -0.2791301,-0.73461 -0.5135509,-1.54274 -0.5209381,-1.79584 -0.00738,-0.2531 -0.5209302,-1.17456 -1.1412062,-2.04768 -1.0600558,-1.49218 -1.2538683,-1.63225 -3.2277156,-2.3327 -1.15496715,-0.40985 -2.60595541,-0.73631 -3.224419,-0.72546 -0.95368,0.0167 -1.1244792,-0.0604 -1.1244792,-0.50803 0,-0.35306 -0.3065356,-0.65583 -0.9260416,-0.91468 -0.509323,-0.21281 -0.9260417,-0.48814 -0.9260417,-0.61185 0,-0.34859 -1.6421894,-0.85935 -2.7969105,-0.86992 -0.7200477,-0.007 -1.2835044,-0.2166 -1.833298,-0.68328 -0.6028637,-0.51172 -0.6664933,-0.64008 -0.2645833,-0.53375 2.7292644,0.72206 3.1139713,0.41178 0.9785138,-0.78922 -2.578084,-1.44994 -4.451307,-2.87775 -5.439832,-4.14635 -0.561953,-0.72117 -1.246563,-1.37001 -1.521354,-1.44187 -0.613621,-0.16046 -0.661744,-0.5981 -0.06577,-0.5981 0.238619,0 0.583385,-0.2045 0.766147,-0.45444 0.29762,-0.40702 0.375896,-0.35009 0.750144,0.54561 0.522295,1.25003 2.930792,3.6303 4.2966505,4.2463 0.5660866,0.2553 1.5811421,0.75303 2.2556788,1.10607 0.6745367,0.35303 1.2821365,0.64188 1.3502243,0.64188 0.068085,0 0.086487,-0.62508 0.040894,-1.38907 -0.045596,-0.76398 -0.013758,-1.15093 0.070768,-0.85989 0.084516,0.29104 0.2766537,0.82682 0.4269741,1.19062 0.1503203,0.3638 0.3062896,0.82581 0.3465988,1.02669 0.3174127,1.58179 4.48212118,4.24524 6.6584223,4.25826 0.6184636,0.004 1.1244792,-0.11599 1.1244792,-0.26598 0,-0.52896 -2.13259196,-4.0277 -3.24210632,-5.31902 -2.50974228,-2.92097 -6.86475758,-7.11889 -8.00268558,-7.714 -0.4365625,-0.22831 -1.0252049,-0.76937 -1.3080947,-1.20235 -0.5801894,-0.88803 -3.6598834,-2.37897 -5.3946054,-2.61165 l -1.049048,-0.1407 0.105255,1.28802 c 0.05789,0.70841 0.18092,1.69189 0.273399,2.1855 0.119095,0.63568 0.08059,0.84337 -0.131985,0.71199 -0.165071,-0.10202 -0.300129,-0.34029 -0.300129,-0.5295 0,-0.1892 -0.449195,-0.86679 -0.998211,-1.50574 -0.549016,-0.63895 -1.347698,-1.63798 -1.774848,-2.22006 -0.427149,-0.58208 -1.658235,-1.92798 -2.735744,-2.99087 -1.07751,-1.0629 -1.898437,-1.99321 -1.824284,-2.06736 0.147387,-0.14739 1.634701,1.12033 2.907884,2.47854 1.427873,1.52324 2.057875,0.78458 0.975079,-1.14324 -0.590168,-1.05075 -1.343384,-3.08113 -1.197231,-3.22729 0.145632,-0.14563 1.205788,1.43776 1.226402,1.83169 0.01025,0.19582 0.465825,1.0704 1.012395,1.94353 l 0.993764,1.5875 2.305969,0.23146 c 1.268282,0.12731 2.384905,0.15253 2.481383,0.056 0.457639,-0.45764 -1.340155,-3.58904 -3.107975,-5.41348 -0.654844,-0.67582 -1.607344,-1.70896 -2.116667,-2.29588 -0.509323,-0.58692 -1.966688,-1.91238 -3.23859,-2.94548 -2.047878,-1.66338 -2.500044,-1.91138 -3.950787,-2.16692 -1.676834,-0.29537 -2.702176,-0.82721 -1.59479,-0.82721 0.673491,0 0.71462,-0.19955 0.185269,-0.89887 -0.590165,-0.77967 -0.158814,-1.05821 0.446686,-0.28845 0.295268,0.37538 1.089448,0.93828 1.764844,1.2509 0.675396,0.31262 1.310885,0.69076 1.412197,0.84031 0.192764,0.28454 0.375609,-0.0715 0.53213,-1.03618 0.06633,-0.40878 0.226622,-0.2583 0.704603,0.66146 0.616624,1.18654 0.873822,1.52547 2.176256,2.8678 0.833365,0.85889 2.850446,2.28213 3.009261,2.12331 0.29103,-0.29103 -3.258188,-7.18751 -4.264048,-8.28547 -0.487959,-0.53263 -0.887198,-1.06812 -0.887198,-1.18998 0,-0.12185 -0.161664,-0.28358 -0.359254,-0.35941 -0.197589,-0.0758 -0.432848,-0.47551 -0.522797,-0.8882 -0.08995,-0.41269 -0.239827,-1.01823 -0.333063,-1.34566 -0.323259,-1.1352 0.351695,-0.58935 0.817896,0.66146 0.441225,1.1838 1.717892,2.71198 2.265631,2.71198 0.13654,0 0.248254,-0.71437 0.248254,-1.5875 0,-0.96261 0.112741,-1.5875 0.286414,-1.5875 0.171037,0 0.259533,0.45298 0.219683,1.12448 -0.134873,2.27272 0.01188,3.02201 0.781585,3.99056 0.417184,0.52496 1.035931,1.70219 1.374995,2.61607 0.748251,2.01676 3.586578,7.64399 4.040985,8.0116 0.179882,0.14552 0.283862,0.47484 0.231068,0.73182 -0.166402,0.80999 3.8215566,6.01506 4.6085412,6.01506 0.279318,0 0.3427201,-0.30596 0.2604479,-1.25678 -0.059812,-0.69122 -0.1317836,-1.3163 -0.159938,-1.38906 -0.028152,-0.0728 -0.031861,-0.62679 -0.00826,-1.23118 0.039111,-1.00074 -0.1036875,-1.2607 -1.5987554,-2.91042 -1.7166117,-1.89418 -2.3215177,-2.86925 -1.9862537,-3.20171 0.208439,-0.20669 1.46476,1.19655 1.481516,1.65477 0.01352,0.3696 1.2338342,1.71979 1.5543663,1.71979 0.4676828,0 0.039576,-3.51202 -0.4837801,-3.96875 -0.083376,-0.0728 -0.3086682,-0.41177 -0.5006525,-0.75337 -0.5089499,-0.90556 -0.096438,-1.09141 0.5259785,-0.23697 0.7045722,0.96722 1.0137087,0.7063 1.0137087,-0.85562 0,-1.2509 -0.5282883,-2.56966 -1.8572983,-4.63633 -1.1141366,-1.73253 -2.1394016,-3.91116 -2.0051896,-4.26091 0.237405,-0.61867 0.635658,-0.41384 0.819081,0.42127 0.0955,0.43481 0.460608,1.29801 0.81135,1.91823 0.3507423,0.62021 0.7209209,1.30098 0.8226214,1.51282 0.3225748,0.67192 0.9859407,1.33463 1.3359448,1.33463 0.4404493,0 0.4264872,-0.14826 -0.087892,-0.93331 -0.4053655,-0.61866 -0.3551132,-1.45308 0.086934,-1.44342 0.3272182,0.007 1.534258,2.99256 1.2484445,3.08783 -0.1550829,0.0517 -0.2485973,2.09081 -0.2360692,5.1475 l 0.020743,5.06189 0.7964382,0.69131 c 2.798744,2.42936 3.4132917,2.9019 3.4883011,2.6822 0.046223,-0.13539 -0.1621367,-0.80268 -0.4630208,-1.48288 -0.3008657,-0.68019 -0.547042,-1.45268 -0.547042,-1.71664 0,-0.26395 -0.1055661,-0.54516 -0.2345901,-0.6249 -0.4310195,-0.26639 -0.5708254,-1.90533 -0.3160131,-3.70464 0.2477664,-1.74954 0.2357041,-1.81118 -0.6806882,-3.47835 -0.5131065,-0.93349 -1.0412863,-1.76422 -1.1737314,-1.84607 -0.1324451,-0.0819 -0.2368497,-0.4097 -0.2320079,-0.72853 l 0.00881,-0.5797 0.4966282,0.59532 c 0.2731452,0.32742 0.6263719,0.59531 0.7849473,0.59531 0.3573119,0 0.3571902,-0.0536 -0.00212,-0.97497 -0.4123848,-1.05717 -0.5854488,-3.07584 -0.2456947,-2.86586 0.1494129,0.0923 0.2716583,0.3442 0.2716583,0.55969 0,0.21549 0.2615062,0.89307 0.5811256,1.50574 0.40191,0.77041 0.6110605,0.97542 0.6781879,0.66479 0.053385,-0.24704 -0.029527,-0.6857 -0.1842505,-0.9748 -0.1547231,-0.2891 -0.2737671,-0.97995 -0.264541,-1.53522 0.015954,-0.96025 0.030795,-0.97726 0.3038025,-0.34812 0.4556495,1.05003 0.9401175,4.93947 0.6744018,5.41428 -0.1780223,0.3181 0.061351,0.70895 0.9824852,1.60419 1.29050525,1.25422 1.72670528,1.4472 1.72670528,0.7639 0,-0.59592 -1.01779128,-4.21622 -1.65128848,-5.87365 -0.5313785,-1.39026 -0.4774115,-2.02659 0.1211157,-1.42806 0.1720797,0.1722 0.4082204,0.31309 0.524637,0.31309 0.2967329,0 0.252476,-1.51787 -0.081007,-2.77813 -0.4968372,-1.87759 -0.569587,-2.51354 -0.2875438,-2.51354 0.1504738,0 0.3581955,0.38521 0.4616026,0.85602 0.1034071,0.47081 0.36549547,1.12689 0.58242206,1.45796 0.30244257,0.46158 0.3670353,1.17196 0.27701611,3.04659 -0.11105357,2.31267 0.0971656,3.89545 0.83320997,6.33365 0.56787522,1.88113 3.09218546,5.97804 3.45058746,5.60025 0.3987191,-0.4203 0.752393,-3.65851 0.5176652,-4.73975 -0.1248145,-0.57494 -0.3007624,-1.40253 -0.3909986,-1.83909 -0.090234,-0.43657 -0.2879937,-1.0499 -0.4394623,-1.36298 -0.1514687,-0.31307 -0.2158948,-0.72979 -0.1431661,-0.92604 0.092437,-0.24943 0.1885368,-0.19757 0.3193204,0.17235 0.1028991,0.29104 0.2845593,0.76729 0.403688,1.05833 0.1191286,0.29104 0.2831915,0.73753 0.36458,0.99219 0.1696614,0.53087 0.6937533,0.62925 0.6937533,0.13023 0,-0.18303 -0.3571875,-1.38295 -0.79375,-2.66648 -0.4365625,-1.28353 -0.79375,-2.48932 -0.79375,-2.67954 0,-0.58633 -0.862584,-3.05244 -1.0676679,-3.05244 -0.276807,0 -0.510114,1.03311 -0.2672053,1.18324 0.1116198,0.069 0.2668693,0.87277 0.3449955,1.7862 0.078129,0.91342 0.226486,1.86913 0.3296867,2.12379 0.2515473,0.62072 -0.3532743,0.59321 -1.1257465,-0.0512 -0.5731034,-0.4781 -0.87145818,-1.80433 -0.3307292,-1.47014 0.3991954,0.24671 0.3092926,-2.79592 -0.1046824,-3.54283 -0.2621068,-0.4729 -0.2803393,-0.81832 -0.07229,-1.36951 0.2476633,-0.65613 0.1699895,-0.87603 -0.70708306,-2.00179 -0.5419196,-0.69558 -1.0589763,-1.56758 -1.14901136,-1.93778 -0.42824137,-1.76078 -2.76019958,-4.44197 -4.05569478,-4.66307 -0.9741377,-0.16625 -2.0481317,-0.79362 -1.7938724,-1.04788 0.08169,-0.0817 0.8469048,0.10311 1.7004771,0.41067 0.8535696,0.30756 1.8198386,0.62517 2.1472605,0.70581 0.3462496,0.0853 0.5953125,0.34856 0.5953125,0.62931 0,0.26549 0.1196393,0.55665 0.2658666,0.64703 0.1462272,0.0904 0.75220774,0.88048 1.34662331,1.7558 0.59441558,0.87531 1.1398409,1.53239 1.21205893,1.46018 0.29815366,-0.29816 -0.98209896,-8.18092 -1.94670364,-11.98625 l -0.4121018,-1.62572 0.75931713,-1.4014 c 0.7100041,-1.31038 0.76485223,-1.35411 0.84457912,-0.67338 0.04689475,0.40041 -0.04224602,0.88165 -0.1980909,1.06944 -0.52875922,0.63711 -0.64520234,2.73261 -0.21816748,3.92602 0.22131073,0.61848 0.55519639,1.99276 0.74197106,3.05395 0.20424775,1.16046 0.45364665,1.88574 0.62576607,1.81978 0.1895607,-0.0726 0.2884699,0.57861 0.2929758,1.92904 0.00492,1.47548 0.1328367,2.23105 0.4630208,2.73497 0.2509203,0.38295 0.4562184,0.95552 0.4562184,1.27237 0,1.01878 1.0387066,4.10226 1.7201621,5.10644 0.3635984,0.5358 0.661088,1.20701 0.661088,1.49159 0,0.28458 0.1061561,0.51741 0.2358998,0.51741 0.1297464,0 0.3127296,0.30612 0.4066329,0.68026 0.093903,0.37414 0.3151716,0.63278 0.4917043,0.57475 0.5461079,-0.17951 0.514522,-2.14644 -0.058698,-3.65503 -0.3538114,-0.93116 -0.4491937,-1.50715 -0.2779395,-1.67841 0.1712568,-0.17126 0.2607336,-0.0556 0.2607336,0.33697 0,0.33109 0.1180201,0.52476 0.2645834,0.43417 0.3689667,-0.22803 0.3145975,-1.80478 -0.1322917,-3.83646 -0.4747604,-2.15839 -0.4737206,-2.3728 0.00841,-1.73536 0.2136537,0.28247 0.3902843,0.69919 0.3925121,0.92604 0.00212,0.22685 0.1212903,0.59104 0.2645833,0.80932 0.2315845,0.35278 0.2908194,0.35278 0.5331037,0 0.1916853,-0.2791 0.2313014,0.34902 0.1335035,2.11667 -0.4380416,7.91728 -0.4298236,8.42191 0.1574905,9.67137 0.700839,1.49097 0.9661764,1.65516 1.1705696,0.72435 0.089181,-0.40614 0.2146856,-0.90469 0.2789026,-1.1079 0.064214,-0.20321 0.2314602,-1.09618 0.3716576,-1.98437 0.1401974,-0.8882 0.3587803,-2.11763 0.4857406,-2.73208 0.2453032,-1.18718 -0.122166,-3.12811 -0.90492,-4.7797 -0.2267267,-0.47838 -0.3726656,-1.13322 -0.3243104,-1.45521 0.071808,-0.47816 0.1840151,-0.3702 0.6124179,0.58922 0.8516011,1.90718 1.6320036,3.29557 1.9032306,3.38598 0.139358,0.0464 0.410673,-0.78209 0.602919,-1.8412 0.2096,-1.15471 0.562639,-2.16319 0.881803,-2.51895 0.813017,-0.90622 0.894564,-3.03476 0.185068,-4.83068 -0.316193,-0.80036 -0.787034,-2.28864 -1.046313,-3.30729 -0.601726,-2.36401 -1.341945,-3.97577 -2.8122195,-6.12332 -0.6804766,-0.99394 -1.1727207,-2.0143 -1.1704611,-2.42621 0.00376,-0.68249 0.01696,-0.6891 0.3307291,-0.16544 1.0233528,1.70785 1.5975569,2.49726 1.8164758,2.49726 0.5177977,0 0.5540507,-0.92281 0.1282435,-3.26429 -0.5777759,-3.17712 -0.6099492,-3.57278 -0.2949734,-3.62781 0.1455209,-0.0254 0.3610293,0.52905 0.4789046,1.23216 0.117877,0.70311 0.333192,1.42161 0.478475,1.59666 0.145285,0.17506 0.428141,1.78599 0.62857,3.57985 0.347573,3.11081 0.64384,4.52858 1.566186,7.49489 0.450058,1.44742 1.339426,3.04271 1.696299,3.04271 0.46941,0 0.840108,-1.41335 0.840108,-3.20306 0,-1.02039 0.105571,-1.79001 0.234603,-1.71026 0.422259,0.26097 0.781653,-0.49025 1.094777,-2.28834 0.241681,-1.38784 0.235969,-1.98393 -0.02658,-2.77319 -0.445585,-1.33951 -0.475377,-4.98133 -0.04428,-5.41243 0.262244,-0.26224 0.328975,0.2453 0.328975,2.50207 0,2.34009 0.06882,2.83104 0.396875,2.83104 0.218281,0 0.396875,-0.0966 0.396875,-0.21469 0,-0.11808 0.225467,-0.4567 0.501038,-0.75249 0.728811,-0.78229 1.351045,-2.08467 1.351045,-2.82783 0,-0.35546 0.158631,-0.70716 0.352515,-0.78156 0.193884,-0.0744 0.689605,-0.80151 1.101598,-1.61581 0.411996,-0.81429 0.852866,-1.48053 0.97971,-1.48053 0.126846,0 0.107376,0.23029 -0.04326,0.51177 -0.15064,0.28147 -0.273891,0.73999 -0.273891,1.01893 0,0.27893 -0.297657,1.06696 -0.661459,1.75118 -0.363802,0.68422 -0.661458,1.40719 -0.661458,1.60661 0,0.19941 -0.280906,0.69913 -0.624234,1.11048 -1.293905,1.55025 -1.403691,1.89518 -3.227539,10.14061 -0.531111,2.40109 -1.026707,4.63352 -1.101328,4.96094 -0.166301,0.72971 0.41257,0.80468 1.021453,0.13229 0.230606,-0.25466 0.852379,-0.85965 1.381718,-1.34441 0.529336,-0.48477 0.96243,-1.11435 0.96243,-1.39908 0,-0.40121 0.155551,-0.50055 0.691372,-0.44152 1.430406,0.15757 2.164141,-1.77214 2.234605,-5.87697 0.03228,-1.88045 0.0773,-2.09722 0.274741,-1.32292 0.129873,0.50933 0.171442,1.31502 0.09237,1.79044 -0.07907,0.47542 -0.07464,0.97624 0.0098,1.11293 0.229166,0.37079 0.92728,0.0154 0.951291,-0.48428 0.01394,-0.29007 0.06642,-0.32128 0.157737,-0.0938 0.07527,0.1875 -0.135787,1.14 -0.469006,2.11666 -0.552212,1.61853 -0.876573,2.04859 -3.663466,4.85728 -3.25128,3.2767 -4.24824,4.38089 -4.24824,4.70515 0,0.11061 -0.238628,0.41705 -0.530283,0.681 -0.923169,0.83546 -1.153888,2.3387 -0.680607,4.43446 0.229426,1.01593 0.418428,2.33856 0.420003,2.93917 0.0016,0.60062 0.18017,1.6765 0.396875,2.39085 0.216707,0.71435 0.394012,1.75615 0.394012,2.3151 0,1.66518 0.590121,1.19597 1.541399,-1.22557 0.76214,-1.94009 0.858996,-2.4447 0.72349,-3.76936 l -0.156451,-1.52941 0.44899,0.8599 c 0.815486,1.56179 1.185489,1.00536 1.677321,-2.52243 0.454776,-3.26199 0.914545,-3.53101 0.730943,-0.42769 -0.103481,1.74908 -0.31768,2.75461 -0.832713,3.90908 -0.734007,1.64531 -0.899308,3.29335 -0.38219,3.81047 0.339005,0.33901 1.011711,-0.0251 1.011711,-0.54766 0,-0.15263 0.158417,-0.46547 0.352036,-0.69521 0.499899,-0.59316 1.235464,-2.68807 1.235464,-3.51865 0,-0.3861 0.237292,-1.6918 0.527312,-2.90157 0.290023,-1.20976 0.529902,-2.67582 0.533069,-3.25791 0.0056,-1.02663 0.01577,-1.03852 0.340395,-0.39687 0.411435,0.81324 1.084043,0.86309 1.194382,0.0885 0.04489,-0.31511 0.253248,-0.6388 0.463021,-0.71929 0.506656,-0.19443 0.518715,-0.23876 -0.56378,2.07276 -0.527529,1.12647 -1.06322,2.8029 -1.212313,3.79389 -0.288131,1.91518 -0.960609,4.52252 -1.276845,4.95059 -0.107502,0.14552 -0.411289,0.85989 -0.675079,1.5875 -0.263787,0.7276 -0.607785,1.48985 -0.764434,1.69389 -0.169161,0.22032 -0.284961,1.74594 -0.28517,3.75696 -2.65e-4,3.78641 0.246057,4.49969 1.17091,3.3889 0.292011,-0.35072 0.534887,-0.7865 0.539729,-0.9684 0.0048,-0.1819 0.127866,-0.33073 0.273386,-0.33073 0.304136,0 0.356333,0.61381 0.07603,0.89411 -0.103703,0.1037 -0.401262,0.74862 -0.661241,1.43316 -0.520722,1.37107 -0.608875,2.74553 -0.222412,3.46765 0.137893,0.25765 0.311698,1.66636 0.386234,3.13047 0.07454,1.46411 0.256394,3.18024 0.404124,3.81363 0.14773,0.63338 0.310166,1.44926 0.360966,1.81307 0.08626,0.61773 0.107495,0.62648 0.321297,0.13229 0.125915,-0.29104 0.563581,-1.09996 0.972595,-1.79758 0.409011,-0.69763 0.743656,-1.39197 0.743656,-1.54298 0,-0.15101 0.416719,-0.98559 0.926042,-1.85462 0.688197,-1.17423 0.926042,-1.88679 0.926042,-2.77433 0,-1.07387 0.05335,-1.17735 0.529166,-1.02633 0.37872,0.1202 0.529167,0.0476 0.529167,-0.25555 0,-0.23292 0.297656,-1.01089 0.661458,-1.72882 0.363803,-0.71793 0.661459,-1.48949 0.661459,-1.71459 0,-0.22509 0.144939,-0.64134 0.322088,-0.925 0.25424,-0.40711 0.249997,-0.78256 -0.02013,-1.78235 -0.520518,-1.92646 -1.085908,-5.60459 -1.091081,-7.09799 -0.0026,-0.73342 -0.183213,-2.01915 -0.401495,-2.85718 -0.218281,-0.83804 -0.385852,-2.02392 -0.372379,-2.63528 0.02019,-0.91651 0.11893,-0.6821 0.562639,1.33583 0.295976,1.34606 0.626668,2.44739 0.734867,2.44739 0.230216,0 0.697457,-1.64155 1.054327,-3.70417 0.242628,-1.40231 0.24706,-1.38308 0.121931,0.52917 -0.07142,1.09141 -0.363122,2.81841 -0.648229,3.83778 -0.28511,1.01937 -0.468363,2.21 -0.407231,2.64583 0.480724,3.42718 1.187643,5.19063 1.857822,4.63443 0.530278,-0.4401 1.197293,-1.9763 1.197293,-2.7575 0,-0.43 0.146378,-0.68762 0.390699,-0.68762 0.214884,0 0.616088,-0.44649 0.891564,-0.99219 0.275474,-0.5457 0.703905,-1.37957 0.952071,-1.85304 0.248164,-0.47346 0.485643,-1.34432 0.527733,-1.93523 0.07643,-1.07308 0.677516,-2.1604 0.677516,-1.22558 0,0.68085 0.527378,0.53902 0.541099,-0.14552 0.0066,-0.32743 0.175488,-0.9525 0.375389,-1.38907 l 0.36345,-0.79375 0.02148,0.82924 c 0.01183,0.45608 -0.443942,1.94436 -1.012801,3.30729 -0.56886,1.36293 -0.916483,2.52093 -0.772491,2.57334 0.143989,0.0524 0.60942,-0.23776 1.034291,-0.64482 0.42487,-0.40705 0.772046,-0.62852 0.771501,-0.49215 -0.0019,0.47708 -1.033907,1.93657 -1.573573,2.22539 -0.2995,0.16028 -0.898519,0.99265 -1.331153,1.84969 -0.432636,0.85705 -0.921628,1.64171 -1.086654,1.7437 -0.370467,0.22896 -1.429213,2.59158 -1.683028,3.75572 -0.259466,1.19006 0.117777,1.09567 1.625851,-0.40679 0.699281,-0.69669 1.586498,-1.46525 1.971591,-1.70792 0.385096,-0.24268 0.860644,-0.80376 1.056777,-1.24685 0.388822,-0.87841 1.021178,-1.08694 1.021178,-0.33674 0,0.67742 -1.347086,2.21198 -3.90434,4.44768 -1.229846,1.07521 -2.572004,2.46266 -2.982571,3.08324 -0.747223,1.12943 -1.151554,2.7707 -0.653714,2.65357 0.145521,-0.0342 1.157552,-0.36356 2.248959,-0.73182 4.847524,-1.63565 6.205027,-2.66693 7.713033,-5.8595 0.560019,-1.18561 1.018217,-2.27991 1.018217,-2.43179 0,-0.15186 0.112808,-0.34584 0.250682,-0.43105 0.569915,-0.35223 0.09233,2.22811 -0.608364,3.28693 -0.858267,1.29693 -0.74381,1.65059 0.425648,1.31519 0.470022,-0.1348 0.901189,-0.24509 0.958157,-0.24509 0.296547,0 -1.34366,1.08041 -2.613623,1.72161 -1.642142,0.8291 -3.175,1.92916 -3.175,2.27855 0,0.12824 0.565547,0.24495 1.256771,0.25935 0.979775,0.0204 0.60393,0.13753 -1.70529,0.5314 -2.014747,0.34364 -3.601694,0.80066 -4.962057,1.42903 -1.099997,0.5081 -2.090447,0.92381 -2.200998,0.92381 -0.219247,0 -1.390202,2.34797 -1.386527,2.78023 0.0013,0.14668 -0.280766,0.80152 -0.626692,1.45521 -0.34593,0.65369 -0.711309,1.5697 -0.811956,2.03559 -0.100648,0.46589 -0.53199,1.52948 -0.958541,2.36353 -0.426548,0.83405 -0.775544,1.81363 -0.775544,2.17685 0,0.85824 -0.446349,2.21338 -1.292278,3.92342 -0.37366,0.75535 -0.597204,1.45555 -0.496763,1.55599 0.100441,0.10044 0.573831,0.002 1.051975,-0.21946 0.478147,-0.22114 1.167014,-0.48943 1.530816,-0.59619 0.92878,-0.27254 1.207196,-0.54056 1.870877,-1.801 0.375155,-0.71248 0.650414,-1.86014 0.773049,-3.22313 0.104746,-1.16416 0.207558,-1.72268 0.228468,-1.24115 0.04693,1.08071 0.422793,0.89686 0.850812,-0.41618 0.177223,-0.54367 0.400066,-1.04803 0.495205,-1.12079 0.09514,-0.0728 0.329406,-0.66708 0.520599,-1.3207 0.332291,-1.136 1.085565,-2.51856 1.07841,-1.97932 -0.0045,0.33915 -0.9882,3.53208 -1.322371,4.29221 -0.143944,0.32742 -0.379267,0.8632 -0.522944,1.19062 -0.143677,0.32742 -0.431982,1.25016 -0.640683,2.05052 -0.208698,0.80037 -0.521632,1.84824 -0.695405,2.32861 -0.173773,0.48037 -0.243419,0.94593 -0.154773,1.03458 0.08865,0.0887 0.630166,0.0207 1.203373,-0.15107 1.126268,-0.33744 2.995218,-2.21004 3.601961,-3.60899 0.859372,-1.98144 1.528535,-3.94386 1.607796,-4.71511 0.224872,-2.18814 0.529997,-3.45343 0.859258,-3.56319 0.294069,-0.098 0.32503,0.23998 0.167637,1.83008 l -0.193045,1.9503 0.636066,-0.68073 c 0.349835,-0.3744 0.899422,-1.01554 1.221304,-1.42475 0.321881,-0.4092 0.58524,-0.64912 0.58524,-0.53313 0,0.348 -1.379437,2.60885 -1.852084,3.03549 -0.664559,0.59987 -1.775756,2.66124 -1.992077,3.69548 -0.105531,0.50454 -0.321058,1.12421 -0.478946,1.37703 -0.42227,0.67616 -0.168584,0.75631 1.15379,0.36453 0.651719,-0.19309 1.839785,-0.49732 2.64015,-0.67607 2.190271,-0.48916 3.160104,-1.02433 3.540406,-1.95364 0.335743,-0.82044 0.337756,-0.82113 0.656452,-0.22765 0.357857,0.66642 0.853294,0.75063 1.615533,0.2746 0.282448,-0.17639 0.595455,-0.2388 0.695571,-0.13868 0.283133,0.28313 -0.369343,0.91784 -1.143188,1.11207 -0.912612,0.22905 -2.983524,1.44633 -2.983524,1.75372 0,0.13169 0.148828,0.2587 0.330729,0.28224 0.181901,0.0236 -0.740833,0.11749 -2.050521,0.20879 -2.485281,0.17326 -3.42815,0.49717 -5.820833,1.99971 -0.893625,0.56117 -2.324568,1.06717 -4.409647,1.55932 l -3.086727,0.72856 -1.562954,1.63301 c -0.859626,0.89816 -1.999197,2.31763 -2.53238,3.15437 -0.533186,0.83675 -1.073624,1.52136 -1.200976,1.52136 -0.127352,0 -0.612016,0.80367 -1.077029,1.78593 -0.465013,0.98227 -0.961948,1.99963 -1.104299,2.26082 -0.142351,0.26118 -0.372176,2.82102 -0.51072,5.68854 -0.138544,2.86751 -0.366916,6.10663 -0.507492,7.19804 -0.829284,6.4384 -0.940395,8.06153 -0.93276,13.62604 0.0049,3.56879 0.148977,7.01548 0.348398,8.33438 0.187029,1.23692 0.445265,3.97536 0.573858,6.08541 0.128593,2.11006 0.358529,5.08662 0.510971,6.61459 0.15244,1.52797 0.406429,4.13604 0.564423,5.79572 0.15799,1.65968 0.402748,3.32136 0.543904,3.69262 0.141152,0.37127 0.481488,2.46746 0.756303,4.65822 0.274812,2.19075 0.624546,4.54045 0.777185,5.22156 0.152638,0.6811 0.214712,1.40206 0.137937,1.60213 -0.07677,0.20006 -0.02702,1.77245 0.110567,3.49418 0.157197,1.96718 0.157144,4.1189 -1.43e-4,5.79052 -0.195934,2.08238 -0.161975,3.21561 0.156372,5.218 0.223668,1.40685 0.406667,2.99018 0.406667,3.51852 0,0.52834 0.127566,0.96061 0.283482,0.96061 0.155914,0 0.09638,0.1871 -0.132291,0.41578 -0.517684,0.51768 -0.521809,0.45579 0.113392,1.70089 0.299141,0.58636 0.529167,1.55939 0.529167,2.23842 v 1.20116 H 12.625187 7.1123127 l -0.043294,-1.10489 z M 14.939905,186.49588 c 1.031385,-1.72494 1.875248,-3.25047 1.875248,-3.39007 0,-0.13959 0.297656,-0.87082 0.661458,-1.62494 0.363802,-0.75413 0.661458,-1.42773 0.661458,-1.49689 0,-0.0692 0.323726,-0.81388 0.719392,-1.65494 0.579813,-1.2325 0.738698,-2.00178 0.818893,-3.96492 0.144862,-3.54618 -0.662429,-5.77913 -2.993493,-8.2799 -0.610404,-0.65485 -1.375841,-1.63711 -1.700972,-2.18281 -0.325131,-0.54571 -0.684321,-0.99219 -0.798203,-0.99219 -0.337193,0 -1.031798,2.11355 -1.33863,4.07321 -0.157099,1.00335 -0.428265,2.07491 -0.602591,2.38125 -0.478251,0.84044 -0.607608,14.95434 -0.164547,17.95335 0.215172,1.45648 0.461578,2.31511 0.664379,2.31511 0.177297,0 1.16622,-1.41132 2.197608,-3.13626 z M 7.4416263,175.61955 c -0.1213617,-1.23165 -0.041209,-2.4119 0.2626863,-3.86797 0.5487591,-2.62933 0.3742134,-5.1048 -0.5452057,-7.73234 -0.7499059,-2.1431 -1.0817331,-2.81094 -1.8333033,-3.68971 -0.838925,-0.98091 -1.0350262,-0.73133 -0.8315669,1.05833 0.2567173,2.25813 0.2611729,2.0763 -0.1345433,5.49011 -0.5617183,4.84586 -0.389509,6.38422 0.8621792,7.70194 0.564605,0.59439 1.8036964,2.58066 1.8036964,2.89134 0,0.15722 0.1329108,0.20372 0.295357,0.10333 0.1991017,-0.12306 0.2384373,-0.76019 0.1207003,-1.95503 z m -4.1164484,-8.10013 c 0.1812343,-0.96051 0.2704967,-2.48164 0.1983607,-3.3803 -0.094771,-1.18064 -0.030641,-1.72783 0.2311612,-1.97238 0.4701858,-0.43922 0.3203549,-2.51059 -0.2716477,-3.75544 -0.6773836,-1.42439 -0.9918859,-1.89808 -2.2930433,-3.45371 -0.66294262,-0.79259 -1.42782659,-1.79827 -1.69974153,-2.23483 -0.27191495,-0.43656 -0.91886087,-1.30369 -1.43765587,-1.92695 -1.1735118,-1.40981 -1.4922051,-1.12492 -1.445014,1.29174 0.026009,1.33164 0.2298012,2.1176 0.9536695,3.67792 0.5063305,1.0914 1.0760763,2.40109 1.2661053,2.91042 0.19003172,0.50932 0.44548958,1.03915 0.5676874,1.17739 0.12219517,0.13825 0.22217592,0.47158 0.22217592,0.74074 0,0.26917 0.16878829,0.81579 0.37508657,1.21473 0.20629563,0.39893 0.51894053,1.49435 0.6947641,2.43425 0.32646671,1.74521 1.19742221,4.35781 1.64921941,4.94716 0.4168563,0.54377 0.6431703,0.16141 0.9888723,-1.67074 z m 15.8966061,-0.57531 c 0.112324,-2.04903 -0.0513,-4.75659 -0.387752,-6.41614 -0.445439,-2.19717 -0.937747,-6.99425 -1.031827,-10.05417 -0.03355,-1.0914 -0.169839,-1.98437 -0.30285,-1.98437 -0.82023,0 -1.953052,4.00011 -2.033612,7.1809 -0.02529,0.99821 -0.158948,2.11259 -0.297034,2.47639 -0.583624,1.5376 -0.680107,3.25422 -0.248375,4.41909 0.490582,1.32366 0.899766,1.34454 1.132385,0.0578 l 0.163607,-0.90501 0.04976,0.92605 c 0.07139,1.32857 0.55208,2.45289 1.575695,3.68553 0.971169,1.16948 1.34054,1.33381 1.38,0.61394 z m -20.13371516,-0.92614 c 0,-0.28305 -0.51497174,-2.72214 -0.97113724,-4.59964 -0.2452265,-1.00932 -2.2577426,-2.97867 -3.1299045,-3.06278 l -0.79375,-0.0765 -0.026638,1.5875 c -0.030057,1.79115 0.4508183,2.77768 2.127975,4.36563 0.5379403,0.50932 1.237705,1.19178 1.555033,1.51657 0.6367437,0.65171 1.23842204,0.78254 1.23842204,0.26926 z M 11.788069,165.10279 c 0,-0.23157 0.327422,-1.08775 0.727604,-1.90262 0.574911,-1.17065 0.718564,-1.81473 0.684528,-3.06908 -0.02371,-0.87312 0.01601,-1.43867 0.08819,-1.25677 0.218453,0.55038 0.616342,0.37103 0.616342,-0.27781 0,-0.3347 0.114115,-0.72266 0.25359,-0.86213 0.720812,-0.72081 -0.03647,-8.77422 -1.034341,-10.99987 -0.443183,-0.98848 -0.494575,-1.51448 -0.355545,-3.63904 0.135374,-2.06869 0.100214,-2.46304 -0.210486,-2.36086 -0.205156,0.0675 -0.514827,0.76834 -0.688155,1.55749 -0.173331,0.78916 -0.577604,2.3278 -0.898388,3.4192 -0.724275,2.46423 -0.904073,6.93196 -0.393967,9.78959 0.419341,2.34914 0.405734,2.13661 0.412396,6.44204 0.0029,1.86963 0.07284,3.50869 0.155445,3.64233 0.212241,0.34342 0.642784,0.0203 0.642784,-0.48247 z m 0.835525,-7.22065 c 0,-0.36381 0.06006,-0.51264 0.133453,-0.33073 0.0734,0.1819 0.0734,0.47955 0,0.66145 -0.0734,0.18191 -0.133453,0.0331 -0.133453,-0.33072 z m -28.616775,2.65828 c 0,-1.13482 -1.821248,-2.67159 -2.375161,-2.00416 -0.221341,0.2667 -0.02887,0.56995 0.826348,1.30198 1.131136,0.96821 1.548813,1.15757 1.548813,0.70218 z m 23.5582593,-4.64266 c -0.6084888,-3.65806 -0.8833247,-4.91253 -1.1064743,-5.05044 -0.1247299,-0.0771 -0.226785,-0.4308 -0.226785,-0.78601 0,-0.35521 -0.116795,-0.64584 -0.259543,-0.64584 -0.3123327,0 -0.4278604,0.50519 -0.7865613,3.43958 -0.3501946,2.86479 -0.085971,3.87044 1.38625,5.27615 l 1.1150627,1.06469 0.093065,-0.72302 c 0.051186,-0.39767 -0.045569,-1.55646 -0.2150141,-2.57511 z m 31.6955597,26.12277 c -0.04851,-0.1118 -0.431673,-0.46899 -0.851479,-0.79375 -0.532125,-0.41165 -0.632286,-0.59048 -0.330729,-0.59048 0.237905,0 0.432556,0.099 0.432556,0.21988 0,0.12093 0.297657,0.37917 0.661459,0.57387 0.363802,0.1947 0.661458,0.45295 0.661458,0.57388 0,0.27659 -0.454747,0.28976 -0.573265,0.0166 z m -0.616066,-5.88005 c -0.08922,-0.14437 -0.04034,-0.47179 0.108633,-0.7276 0.232343,-0.39898 0.272002,-0.36166 0.278902,0.26248 0.0084,0.76088 -0.113969,0.90776 -0.387535,0.46512 z M 25.42675,174.48474 c -0.11085,-0.25466 -0.11085,-0.67138 0,-0.92604 0.191948,-0.44097 0.20682,-0.44097 0.312291,0 0.06091,0.25466 0.06091,0.67138 0,0.92604 -0.105471,0.44097 -0.120343,0.44097 -0.312291,0 z m 13.659189,-1.06656 c 0.04758,-0.40471 0.205568,-0.70588 0.351089,-0.66928 0.309055,0.0777 0.204743,0.75849 -0.174763,1.14053 -0.174371,0.17553 -0.233717,0.0169 -0.176326,-0.47125 z m -49.589016,-0.63002 c 0.181901,-0.0734 0.479557,-0.0734 0.6614581,0 0.1819011,0.0734 0.033073,0.13345 -0.3307291,0.13345 -0.363802,0 -0.51263,-0.06 -0.330729,-0.13345 z m 4.3412541,-4.05811 c 0,-0.3638 0.060055,-0.51263 0.1334532,-0.33073 0.073398,0.1819 0.073398,0.47956 0,0.66146 -0.073398,0.1819 -0.1334532,0.0331 -0.1334532,-0.33073 z m -10.2282341,-3.175 c -0.08994,-0.14552 -0.04446,-0.26458 0.101062,-0.26458 0.145521,0 0.338168,0.11906 0.428105,0.26458 0.08994,0.14552 0.04446,0.26459 -0.101062,0.26459 -0.145521,0 -0.338168,-0.11907 -0.428105,-0.26459 z m 1.478104,-0.75097 c -0.181693,-0.33949 -0.278141,-0.66948 -0.214327,-0.73329 0.207714,-0.20771 0.773827,0.66312 0.657653,1.01164 -0.07148,0.21445 -0.234296,0.11223 -0.443326,-0.27835 z m -4.520812,-1.91048 c 0,-0.15411 0.119063,-0.20661 0.264583,-0.11667 0.145521,0.0899 0.264584,0.21602 0.264584,0.2802 0,0.0642 -0.119063,0.11667 -0.264584,0.11667 -0.14552,0 -0.264583,-0.12609 -0.264583,-0.2802 z m 41.010418,-6.54426 c 0,-0.51446 0.640781,-2.43596 0.812347,-2.43596 0.267108,0 -0.07467,1.69582 -0.451789,2.24169 -0.198308,0.28704 -0.360558,0.37446 -0.360558,0.19427 z m 9.022411,-7.84668 c -0.0181,-0.89148 0.05972,-1.22339 0.243686,-1.03943 0.176655,0.17666 0.185859,0.63028 0.02658,1.30969 l -0.243687,1.03942 z m -41.103141,-0.84992 c 0.181901,-0.0734 0.479557,-0.0734 0.6614581,0 0.1819011,0.0734 0.033073,0.13345 -0.3307291,0.13345 -0.363802,0 -0.51263,-0.0601 -0.330729,-0.13345 z m -1.080381,-1.0595 c -0.09701,-0.097 -0.17639,-0.29941 -0.17639,-0.44979 0,-0.16578 0.123235,-0.15016 0.313089,0.0397 0.172202,0.1722 0.251577,0.37461 0.17639,0.44979 -0.07519,0.0752 -0.216077,0.0573 -0.313089,-0.0397 z m -3.712237,-1.28033 c -0.08344,-0.21745 -0.04341,-0.39536 0.08895,-0.39536 0.358657,0 0.581372,0.47019 0.303934,0.64166 -0.132646,0.082 -0.309445,-0.0289 -0.392887,-0.2463 z m -0.697486,-1.20472 c 0,-0.15411 0.119062,-0.20662 0.264583,-0.11668 0.145521,0.0899 0.264583,0.21603 0.264583,0.2802 0,0.0642 -0.119062,0.11667 -0.264583,0.11667 -0.145521,0 -0.264583,-0.12609 -0.264583,-0.28019 z m 49.56604,-1.57189 c 0,-1.09141 0.0467,-1.53789 0.103785,-0.99219 0.05708,0.54571 0.05708,1.43868 0,1.98438 -0.05708,0.5457 -0.103785,0.0992 -0.103785,-0.99219 z m -47.449374,0.38126 c 0,-0.22687 0.119063,-0.3389 0.264584,-0.24897 0.14552,0.0899 0.264583,0.27556 0.264583,0.41249 0,0.13694 -0.119063,0.24897 -0.264583,0.24897 -0.145521,0 -0.264584,-0.18562 -0.264584,-0.41249 z m 30.468859,-0.38126 c 0,-0.3638 0.06005,-0.51263 0.133453,-0.33073 0.0734,0.1819 0.0734,0.47956 0,0.66146 -0.0734,0.1819 -0.133453,0.0331 -0.133453,-0.33073 z m -43.962609,-0.80936 c 0,-0.15411 0.119062,-0.20662 0.264583,-0.11668 0.145521,0.0899 0.264584,0.21603 0.264584,0.2802 0,0.0642 -0.119063,0.11667 -0.264584,0.11667 -0.145521,0 -0.264583,-0.12609 -0.264583,-0.28019 z m 21.4956473,-2.76251 c -0.1828615,-1.16417 -0.3241437,-2.59292 -0.3139572,-3.175 0.01688,-0.96433 0.041577,-1.00059 0.2780824,-0.40821 0.1427612,0.35757 0.2359289,0.89335 0.2070417,1.19063 -0.02889,0.29727 0.032771,0.84604 0.1370225,1.21948 0.1042484,0.37345 0.1523629,1.26642 0.1069154,1.98438 -0.080814,1.27676 -0.089919,1.25897 -0.4151048,-0.81128 z m -1.4755072,1.5434 c -0.27872,-0.27872 -0.2051976,-1.6757 0.088194,-1.6757 0.1455208,0 0.2645833,0.41672 0.2645833,0.92605 0,0.95163 -0.048257,1.05417 -0.3527773,0.74965 z m -1.7430009,-0.50712 c 0.0127,-0.30822 0.07539,-0.37092 0.1598506,-0.15985 0.07643,0.19099 0.067032,0.4192 -0.020876,0.50712 -0.087921,0.0879 -0.1504526,-0.0684 -0.1389644,-0.34727 z m 37.9909188,-0.022 c -0.276982,-0.27699 -0.2061,-1.41112 0.08819,-1.41112 0.145521,0 0.264584,0.35719 0.264584,0.79375 0,0.82203 -0.05386,0.91628 -0.352777,0.61736 z m -40.612011,-4.46706 0.04563,-2.6326 0.162854,2.38125 c 0.08957,1.30969 0.06904,2.49436 -0.04563,2.6326 -0.114668,0.13825 -0.18795,-0.93331 -0.162854,-2.38125 z m 36.752343,-0.2734 c 0.0127,-0.30822 0.07539,-0.37092 0.159851,-0.15985 0.07643,0.19099 0.06703,0.4192 -0.02088,0.50712 -0.08792,0.0879 -0.150453,-0.0684 -0.138964,-0.34727 z M 7.5811094,132.83226 c 0.035576,-1.00767 0.3191166,-1.95767 0.6027129,-2.01939 0.127717,-0.0278 0.2444882,0.54359 0.2594927,1.26975 0.021802,1.05477 -0.064807,1.338 -0.430649,1.40846 -0.3513429,0.0677 -0.451792,-0.0857 -0.4315566,-0.65882 z m -2.4918433,-1.58087 c -0.3255777,-0.32558 -0.1886347,-0.88592 0.2165112,-0.88592 0.4408646,0 0.4958556,0.22817 0.1763131,0.73158 -0.1168506,0.18408 -0.2936214,0.25354 -0.3928243,0.15434 z m -3.0907805,-4.57447 c 0,-0.13694 0.1190625,-0.32256 0.2645833,-0.41249 0.1455208,-0.0899 0.2645834,0.0221 0.2645834,0.24896 0,0.22687 -0.1190626,0.41249 -0.2645834,0.41249 -0.1455208,0 -0.2645833,-0.11203 -0.2645833,-0.24896 z m 0.79375,-2.66145 c 0,-0.14552 0.1260898,-0.26459 0.280199,-0.26459 0.1541092,0 0.2066132,0.11907 0.116676,0.26459 -0.089937,0.14552 -0.216027,0.26458 -0.280199,0.26458 -0.064172,0 -0.116676,-0.11906 -0.116676,-0.26458 z m 21.6001524,-0.92604 c 0.08376,-0.21829 0.199089,-0.39688 0.256281,-0.39688 0.05719,0 0.103984,0.17859 0.103984,0.39688 0,0.21828 -0.115327,0.39687 -0.256281,0.39687 -0.140951,0 -0.187746,-0.17859 -0.103984,-0.39687 z m -5.018857,-8.70982 c -0.09716,-0.2532 -0.09857,-0.77147 -0.0031,-1.15172 0.169984,-0.67727 0.177897,-0.67954 0.388114,-0.11127 0.118025,0.31905 0.119436,0.83733 0.0031,1.15172 -0.188026,0.50828 -0.231031,0.52061 -0.388112,0.11127 z M 9.1700673,111.48129 c -0.3527558,-0.42504 -0.099724,-1.29146 0.3354969,-1.14879 0.365461,0.11981 0.5641738,1.51213 0.2158101,1.51213 -0.1373691,0 -0.3854556,-0.1635 -0.551307,-0.36334 z m 0.5806202,-2.81166 c 0,-0.80036 0.049601,-1.12778 0.1102227,-0.7276 0.060624,0.40018 0.060624,1.05503 0,1.45521 -0.060621,0.40018 -0.1102227,0.0728 -0.1102227,-0.72761 z"
       style="fill:#000000;stroke-width:0.264583" />
  </g>
</svg>
