<?xml version="1.0" encoding="UTF-8" standalone="no"?>
<svg
   xmlns:dc="http://purl.org/dc/elements/1.1/"
   xmlns:cc="http://creativecommons.org/ns#"
   xmlns:rdf="http://www.w3.org/1999/02/22-rdf-syntax-ns#"
   xmlns:svg="http://www.w3.org/2000/svg"
   xmlns="http://www.w3.org/2000/svg"
   id="svg8"
   version="1.1"
   viewBox="0 0 37.001525 81.029731"
   height="81.029732mm"
   width="37.001526mm">
  <defs
     id="defs2" />
  <metadata
     id="metadata5">
    <rdf:RDF>
      <cc:Work
         rdf:about="">
        <dc:format>image/svg+xml</dc:format>
        <dc:type
           rdf:resource="http://purl.org/dc/dcmitype/StillImage" />
        <dc:title></dc:title>
      </cc:Work>
    </rdf:RDF>
  </metadata>
  <g
     transform="translate(17.202704,-139.28571)"
     id="layer1">
    <path
       id="path151"
       d="m -0.49488641,219.07298 c -1.07921429,-1.19612 -1.10881269,-1.27504 -0.79925359,-2.13111 0.2581034,-0.71378 0.2537838,-0.93082 -0.021915,-1.10122 -0.2710783,-0.16753 -0.2840688,-0.53305 -0.061697,-1.73597 0.3182734,-1.7217 0.237699,-1.99165 -0.5944645,-1.99165 -0.3228346,0 -0.826738,-0.16794 -1.1197858,-0.3732 -0.3969885,-0.27806 -1.2045072,-0.34919 -3.1677256,-0.27903 -2.7852796,0.0995 -5.3276541,0.32316 -5.8720221,0.5165 -0.179681,0.0638 -0.451761,-0.11767 -0.604621,-0.40329 -0.163766,-0.306 -0.552952,-0.51932 -0.947472,-0.51932 -1.016284,0 -1.791437,-0.48873 -1.442326,-0.90939 0.208631,-0.25138 0.177781,-0.43224 -0.115208,-0.6754 -0.220076,-0.18264 -0.400138,-0.43657 -0.400138,-0.56427 0,-0.32751 1.659303,-0.28835 3.094463,0.073 0.941939,0.23718 1.513581,0.22958 2.564559,-0.0341 1.6734891,-0.41985 2.0464455,-0.70373 1.8733212,-1.42588 -0.1035531,-0.43195 0.084006,-0.70583 0.7963078,-1.16278 1.1292311,-0.72443 1.235723,-1.25406 0.204162,-1.0154 -0.4001823,0.0926 -1.4419792,0.27508 -2.3151042,0.40554 -0.8731258,0.13045 -1.9764918,0.3786 -2.4519258,0.55142 -0.72096,0.26208 -0.973453,0.24279 -1.521354,-0.11621 -0.361311,-0.23674 -0.656929,-0.58718 -0.656929,-0.77875 0,-0.19158 -0.714375,-0.90308 -1.5875,-1.58113 -2.493808,-1.93661 -2.136944,-2.24399 2.066361,-1.77983 2.744652,0.30309 3.7544728,0.22667 3.7544728,-0.28411 0,-0.13464 -0.2225148,-0.33026 -0.4944768,-0.43471 -0.271962,-0.10445 -0.818327,-0.57687 -1.214145,-1.04981 -0.395817,-0.47294 -0.857912,-0.86195 -1.026878,-0.86447 -0.383947,-0.006 -1.53373,-1.19425 -1.341383,-1.3866 0.07782,-0.0778 0.584733,-0.082 1.126465,-0.009 1.192816,0.16 2.9504178,-0.5056 2.9504178,-1.1173 0,-0.31578 0.1471618,-0.3815 0.5604703,-0.25032 0.4046787,0.12844 0.5280398,0.0782 0.4437994,-0.18061 -0.147475,-0.45315 -1.7399225,-1.25506 -2.5256245,-1.27183 -0.986397,-0.0211 -1.653646,-0.9212 -1.653646,-2.23082 0,-1.05402 0.0661,-1.17242 0.724789,-1.29833 0.398633,-0.0762 0.945777,-0.0203 1.215874,0.12427 0.384434,0.20574 0.576444,0.14095 0.884118,-0.29831 0.2161668,-0.30862 0.6959217,-0.84199 1.066122,-1.18526 0.820647,-0.76094 0.6513055,-1.1028 -0.8823383,-1.7812 -0.8792477,-0.38893 -1.1564807,-0.6566 -1.1564807,-1.11655 0,-0.91464 0.214196,-0.97475 1.5987481,-0.44866 0.8749075,0.33244 1.3571072,0.39796 1.5451127,0.20996 0.1880055,-0.18801 0.4002389,-0.16794 0.6800596,0.0643 0.3348406,0.27789 0.5356524,0.25099 1.1356928,-0.15216 1.3843876,-0.93011 1.9757419,-1.15633 2.6079434,-0.99766 0.383789,0.0963 0.634527,0.0434 0.634527,-0.13401 0,-0.1613 0.3571875,-0.29327 0.79375,-0.29327 0.5425212,0 0.79375,-0.13055 0.79375,-0.41249 0,-0.22687 -0.11665,-0.34039 -0.2592226,-0.25228 -0.3052776,0.18867 -3.3916726,-1.19805 -3.5258754,-1.58419 -0.050577,-0.14552 0.069506,-0.81802 0.2668511,-1.49445 l 0.3588091,-1.22987 1.6171963,-0.28486 c 0.8894581,-0.15668 1.6801759,-0.34785 1.7571512,-0.42482 0.076975,-0.077 -0.1184836,-0.41505 -0.4343525,-0.75128 -0.3158691,-0.33622 -0.5743072,-0.80498 -0.5743072,-1.04167 0,-0.2367 -0.1190625,-0.50394 -0.2645833,-0.59388 -0.5176468,-0.31992 -0.2523025,-1.45078 0.5565753,-2.37204 0.4516375,-0.51439 0.97468034,-0.93525 1.16231755,-0.93525 0.39822624,0 0.61923323,-0.49714 0.9115793,-2.05052 0.19024812,-1.01089 0.15949771,-1.12448 -0.30440393,-1.12448 -0.44269899,0 -0.4904666,-0.1222 -0.33614096,-0.8599 0.23728152,-1.13424 0.70294607,-1.58387 1.76021344,-1.69962 0.4785585,-0.0524 1.0466893,-0.27183 1.2625126,-0.48766 0.3468195,-0.34682 0.326346,-0.3924 -0.1762327,-0.3924 -0.3127512,0 -0.9038116,0.13767 -1.3134671,0.30594 -0.40965566,0.16826 -0.94851137,0.28064 -1.19745731,0.24971 -0.24894593,-0.0309 -0.69543031,0.0737 -0.99218749,0.23253 -0.8424593,0.45088 -0.6979955,-0.39229 0.16692746,-0.97427 0.38856762,-0.26145 1.12129386,-0.89026 1.62828078,-1.39735 0.50698696,-0.50708 1.16464026,-1.04304 1.46145176,-1.19102 0.4633052,-0.23098 0.5297053,-0.4839 0.4693158,-1.78758 -0.038688,-0.83519 -0.2556505,-1.88999 -0.4821389,-2.344 -0.4667636,-0.93565 -0.3397284,-3.44148 0.2079215,-4.10136 0.1768867,-0.21314 0.352415,-0.77046 0.3900628,-1.2385 0.037648,-0.46804 0.2687397,-1.68442 0.5135375,-2.70306 0.5394883,-2.24491 0.8481602,-4.95985 1.0829311,-9.525 0.2079228,-4.04309 0.3440099,-4.47209 1.0794939,-3.40302 0.9472216,1.37686 1.4222784,3.16016 1.6898409,6.34346 0.1453885,1.72974 0.3798729,3.79192 0.5210784,4.58263 0.1412054,0.79071 0.2567384,1.93409 0.2567384,2.54085 0,0.60675 0.2976563,1.92382 0.6614584,2.92682 0.363802,1.003 0.6614583,1.89787 0.6614583,1.9886 0,0.0907 -0.4314852,0.23498 -0.958858,0.32056 -1.7115234,0.27775 -2.447126,1.51602 -1.5938262,2.68298 0.3067183,0.41946 0.5875894,0.4652 1.9695796,0.32076 1.5177425,-0.15864 1.6436015,-0.1281 2.1558085,0.52306 0.616284,0.78348 0.701088,1.388 0.213233,1.52005 -0.181901,0.0492 -1.0324935,0.22141 -1.8902066,0.3826 -0.857713,0.16119 -1.6086137,0.34221 -1.6686689,0.40227 -0.1444466,0.14444 0.9742726,2.51432 1.2744953,2.69987 0.5978949,0.36951 0.1772682,1.11588 -0.8906192,1.58032 -0.6184636,0.26898 -1.1624945,0.51359 -1.208958,0.54358 -0.046463,0.03 0.071474,0.30426 0.262083,0.60947 0.383376,0.61388 1.0077821,0.71892 1.4780578,0.24864 0.2319919,-0.23199 0.4021931,-0.22669 0.7016776,0.0219 0.2174664,0.18048 0.6266842,0.25473 0.9093756,0.16501 0.3069294,-0.0974 0.6850934,0.008 0.9387384,0.26162 0.54982,0.54983 0.537864,0.89262 -0.03827,1.09694 -0.254662,0.0903 -0.641615,0.30871 -0.859896,0.48533 -0.2182811,0.17661 -0.7242968,0.39891 -1.1244791,0.49399 -0.877189,0.2084 -0.8996362,0.40188 -0.1562788,1.34691 0.5990114,0.76152 0.8968264,0.78463 3.3312789,0.25849 0.532659,-0.11512 0.859896,-0.0824 0.859896,0.0859 0,0.14947 -0.386954,0.42234 -0.859896,0.60636 l -0.859896,0.33458 1.055772,0.15432 c 0.717558,0.10488 1.083995,0.30265 1.143878,0.61734 0.04846,0.25466 -0.04622,0.46302 -0.210391,0.46302 -0.164174,0 -0.831797,0.24295 -1.483603,0.53988 -1.255139,0.57178 -1.33967,1.11064 -0.155049,0.98837 0.559769,-0.0578 0.725403,0.0514 0.792274,0.52227 0.09713,0.68392 0.435671,0.73293 1.370661,0.19844 0.363802,-0.20797 0.81498,-0.38234 1.00262,-0.3875 0.389845,-0.0107 0.127386,0.38057 -0.966542,1.44096 -1.163995,1.1283 -1.560041,1.39807 -2.515309,1.71334 -0.52414,0.17298 -1.019043,0.4214 -1.09978,0.55204 -0.2339393,0.37852 1.114777,0.59864 2.756074,0.44981 1.357895,-0.12313 1.600351,-0.0642 2.391302,0.58136 0.78505,0.64072 0.845947,0.78238 0.563348,1.31042 -0.349515,0.65307 -1.788591,1.34752 -3.917651,1.89054 -1.315863,0.33561 -1.389063,0.39931 -1.389063,1.20886 0,1.88467 0.945224,2.67778 5.002957,4.19783 1.798814,0.67384 2.263343,1.32243 1.394391,1.94687 -1.60046,1.1501 -2.447401,2.01491 -2.598783,2.6536 -0.09101,0.38396 -0.349879,0.91019 -0.57527,1.16938 -0.366676,0.42166 -0.367477,0.51358 -0.0076,0.87345 0.359876,0.35988 0.525063,0.35637 1.569813,-0.0334 2.103914,-0.78484 2.476024,-0.77396 3.450267,0.10091 0.587439,0.52752 0.801942,0.88873 0.627767,1.05711 -0.403434,0.39002 -4.090924,1.89627 -4.642303,1.89627 -0.267216,0 -0.55377,0.1099 -0.636789,0.24423 -0.08302,0.13432 -0.517678,0.32477 -0.965911,0.42322 l -0.814973,0.179 0.751586,0.78449 c 0.621504,0.64871 0.89571,0.75745 1.584299,0.62827 0.953,-0.17879 2.210544,0.29657 2.210544,0.83559 0,0.20021 -0.518571,0.9052 -1.152377,1.56664 l -1.15238,1.20261 -1.380357,-0.40992 c -0.759199,-0.22546 -1.340067,-0.32448 -1.290821,-0.22005 0.04924,0.10443 0.370298,0.64145 0.713449,1.19336 0.615154,0.98939 0.641096,1.00076 1.847887,0.8094 1.301756,-0.20641 1.738974,-0.22574 3.208349,-0.14187 0.777081,0.0443 1.021802,0.22056 1.521354,1.09542 0.867299,1.5189 0.791411,1.86378 -0.410104,1.86378 -0.55298,0 -1.146771,0.14135 -1.319538,0.31412 -0.211871,0.21187 -1.714752,0.33171 -4.61698,0.36816 -2.366571,0.0297 -5.195826,0.1808 -6.2872323,0.33572 -1.0914062,0.15492 -2.1220565,0.28691 -2.2903339,0.2933 -0.1771533,0.007 -0.2459815,0.24097 -0.1634911,0.55641 0.1030687,0.39414 -0.00569,0.58354 -0.3932594,0.6849 -0.738463,0.19311 -0.9653212,1.49769 -0.437823,2.51776 0.2274303,0.4398 0.3749646,0.81834 0.3278542,0.84119 -0.8507799,0.41278 -1.1934386,0.77016 -1.4350804,1.49671 -0.2565395,0.77134 -0.984236,1.58756 -1.41538861,1.58756 -0.0825728,0 -0.65445535,-0.55896 -1.2708496,-1.24213 z M 9.6261938,208.27657 c 0,-0.73313 -1.4721999,-0.8667 -2.3676134,-0.21481 -1.0027338,0.73003 -0.8176419,0.91011 0.8462592,0.82332 1.3185167,-0.0688 1.5213542,-0.1499 1.5213542,-0.60851 z m -15.7427086,-8.73125 c 0,-1.18433 -0.0049,-1.19063 -0.9260417,-1.19063 -0.5241033,0 -0.9260416,0.13271 -0.9260416,0.30576 0,0.41031 1.2844661,2.07549 1.6009649,2.07549 0.1381152,0 0.2511184,-0.53578 0.2511184,-1.19062 z m -2.5501531,-0.26459 c -0.083762,-0.21828 -0.3776819,-0.39687 -0.6531544,-0.39687 -0.5630077,0 -0.6768928,0.41404 -0.17013,0.61852 0.6456309,0.26052 0.9743485,0.17202 0.8232844,-0.22165 z m 18.8734209,-0.80211 c -0.7902547,-0.69523 -1.3676205,-0.82744 -1.6460548,-0.37692 -0.3072765,0.49718 0.4490508,1.04692 1.4286204,1.03838 l 0.9597914,-0.008 z m 2.116413,-2.92281 c 0.104447,-0.31374 -1.660993,-1.368 -1.896483,-1.13251 -0.08054,0.0805 0.10682,0.46841 0.416361,0.86193 0.551432,0.70103 1.29177,0.83637 1.480122,0.27058 z m -17.1167641,-1.65803 c 0,-0.40886 -1.020273,-1.15409 -1.32348,-0.9667 -0.2081427,0.12864 -0.1607341,0.3367 0.1566265,0.68738 0.4650007,0.51382 1.1668535,0.68183 1.1668535,0.27932 z M 8.2797927,181.43206 c 0.6677607,-0.3042 1.2141094,-0.67457 1.2141094,-0.82305 0,-0.36674 -1.8651114,-0.0181 -2.4020833,0.44899 -0.2297404,0.19985 -0.9073224,0.36336 -1.5057385,0.36336 -0.5984179,0 -1.1553314,0.10889 -1.2375869,0.24199 -0.4010168,0.64885 2.3552108,0.4867 3.9312993,-0.23129 z"
       style="fill:#000000;stroke-width:0.264583" />
  </g>
</svg>
