<?xml version="1.0" encoding="UTF-8" standalone="no"?>
<svg
   xmlns:dc="http://purl.org/dc/elements/1.1/"
   xmlns:cc="http://creativecommons.org/ns#"
   xmlns:rdf="http://www.w3.org/1999/02/22-rdf-syntax-ns#"
   xmlns:svg="http://www.w3.org/2000/svg"
   xmlns="http://www.w3.org/2000/svg"
   id="svg158"
   version="1.1"
   viewBox="0 0 221.56456 303.00394"
   height="303.00394mm"
   width="221.56456mm">
  <defs
     id="defs152" />
  <metadata
     id="metadata155">
    <rdf:RDF>
      <cc:Work
         rdf:about="">
        <dc:format>image/svg+xml</dc:format>
        <dc:type
           rdf:resource="http://purl.org/dc/dcmitype/StillImage" />
        <dc:title></dc:title>
      </cc:Work>
    </rdf:RDF>
  </metadata>
  <g
     transform="translate(3.8630018,4.8665798)"
     id="layer1">
    <path
       id="path174"
       d="m 97.800561,297.87146 c -1.016243,-3.85797 -1.226492,-5.42266 -1.344356,-10.0048 -0.110132,-4.28164 -0.213278,-5.19287 -0.82342,-7.27432 -0.383633,-1.30873 -0.874112,-3.27327 -1.089954,-4.36562 -0.506804,-2.5649 -0.637601,-10.28121 -0.274664,-16.20391 0.359897,-5.87311 0.295532,-10.50473 -0.192161,-13.82802 -0.213553,-1.45521 -0.460113,-3.5388 -0.547913,-4.63021 -0.1574,-1.95657 -0.178763,-2.00383 -1.524928,-3.37344 -0.750914,-0.76398 -1.478167,-1.38906 -1.616118,-1.38906 -0.469344,0 -5.583301,-2.96581 -6.750574,-3.91496 -0.906891,-0.73742 -1.430456,-0.95882 -2.38125,-1.00695 -1.28896,-0.0652 -4.454503,-1.36573 -5.03918,-2.07022 -0.189981,-0.22891 -0.494855,-0.4162 -0.6775,-0.4162 -0.182644,0 -0.490722,-0.19115 -0.684617,-0.42478 -0.193897,-0.23363 -0.960435,-0.69363 -1.703419,-1.02221 -0.742985,-0.32858 -2.1765,-1.29848 -3.185589,-2.15532 -2.729717,-2.31787 -4.082838,-3.35786 -5.406583,-4.15542 -1.92087,-1.15732 -2.241606,-1.36207 -2.38125,-1.52015 -0.07276,-0.0824 -0.668073,-0.5162 -1.322917,-0.96408 -0.654843,-0.44788 -1.488281,-1.13771 -1.852083,-1.53296 -0.363802,-0.39524 -1.296501,-1.12716 -2.072664,-1.62648 -0.77616,-0.49932 -2.600282,-2.07797 -4.053602,-3.50812 -1.453322,-1.43014 -2.961404,-2.75956 -3.351297,-2.95427 -0.389893,-0.19471 -0.887489,-0.49029 -1.10577,-0.65685 -0.218282,-0.16655 -0.928145,-0.58841 -1.577473,-0.93745 -0.649329,-0.34904 -2.01127,-1.20105 -3.026534,-1.89336 -1.234459,-0.84177 -2.010029,-1.20666 -2.341301,-1.10152 -0.992883,0.31513 -6.717196,-1.20646 -8.401515,-2.23322 -0.508778,-0.31016 -1.103646,-0.5651 -1.321927,-0.56654 -0.218282,-0.001 -0.754063,-0.19152 -1.190625,-0.42241 -0.436563,-0.23088 -1.338758,-0.63703 -2.004881,-0.90256 -0.66612,-0.26552 -1.759966,-0.85317 -2.430764,-1.30589 -0.6708,-0.45272 -1.733134,-1.05314 -2.360744,-1.33428 -0.627613,-0.28114 -1.795111,-1.05166 -2.594444,-1.71227 -0.799332,-0.66061 -1.588873,-1.20111 -1.754534,-1.20111 -0.165661,0 -0.606269,-0.39996 -0.979128,-0.88881 -0.372861,-0.48884 -1.077886,-1.0786 -1.566722,-1.31057 -0.488836,-0.23197 -1.109324,-0.66544 -1.378857,-0.96327 -0.269537,-0.29784 -0.608177,-0.54152 -0.752539,-0.54152 -0.144359,0 -0.771022,-0.41672 -1.392581,-0.92604 -0.621562,-0.50932 -1.257306,-0.92604 -1.412764,-0.92604 -0.155456,0 -0.453462,-0.40881 -0.662231,-0.90847 -0.214826,-0.51415 -0.733155,-1.09131 -1.194176,-1.32971 -0.8867985,-0.45858 -1.032531,-0.95574 -0.4273812,-1.45797 0.3316684,-0.27526 0.2457952,-0.51712 -0.5986278,-1.68604 -1.2590489,-1.74288 -1.9052513,-3.1555 -1.9052513,-4.16493 0,-2.52885 2.9862333,-4.52983 5.8452143,-3.91669 1.232625,0.26435 3.415202,1.58208 3.415202,2.06193 0,0.13005 0.386953,0.64488 0.859896,1.14405 5.467176,5.77037 7.311083,7.34957 9.061979,7.76109 0.436563,0.10261 0.972344,0.32801 1.190625,0.50089 0.218282,0.17288 0.932657,0.48308 1.5875,0.68933 0.654844,0.20625 1.766607,0.76216 2.470584,1.23535 2.085912,1.40208 9.800519,5.0318 12.288494,5.78175 1.2686,0.38239 2.663735,0.84722 3.100297,1.03297 0.436563,0.18574 1.27,0.48954 1.852084,0.67512 0.582083,0.18557 1.813573,0.67588 2.736643,1.08957 0.923071,0.4137 1.885157,0.75217 2.137971,0.75217 0.252815,0 1.045387,0.29716 1.761273,0.66035 0.715886,0.3632 1.429795,0.66085 1.586466,0.66146 0.969229,0.004 6.726605,3.69506 6.726605,4.31271 0,0.13985 0.386953,0.71483 0.859896,1.27773 0.472943,0.5629 1.42318,1.70847 2.111639,2.54571 0.688459,0.83724 1.473997,1.76038 1.745639,2.05142 0.271643,0.29104 0.939917,1.15424 1.485054,1.91823 0.545139,0.76398 1.094949,1.38906 1.221803,1.38906 0.126852,0 0.57272,0.32742 0.990814,0.72761 4.052237,3.87862 5.823831,5.20169 9.576822,7.15222 1.236927,0.64286 2.852705,1.48438 3.59062,1.87003 0.737915,0.38565 1.987627,0.98844 2.777138,1.33952 0.789512,0.35109 2.308961,1.15476 3.376555,1.78594 1.067591,0.63118 2.050301,1.1476 2.183799,1.1476 0.401778,0 0.274503,-2.1476 -0.259659,-4.3814 -1.241055,-5.18994 -1.468335,-7.22173 -1.475264,-13.18826 l -0.0067,-5.7957 -3.060105,-3.06784 c -1.683059,-1.68731 -3.497797,-3.62249 -4.032755,-4.30038 -1.874647,-2.37555 -4.914289,-5.41678 -6.971096,-6.97473 -2.922733,-2.21386 -5.311492,-4.33177 -6.13464,-5.43906 -0.911484,-1.22613 -2.758032,-2.81159 -6.122919,-5.25719 -1.490921,-1.0836 -2.844876,-2.18492 -3.008791,-2.44739 -0.210204,-0.33659 -0.624814,-0.47722 -1.406988,-0.47722 -0.925237,0 -1.200759,-0.12891 -1.663023,-0.7781 -0.304731,-0.42796 -0.818853,-0.85803 -1.142494,-0.95572 -1.962701,-0.59244 -4.901952,-2.98349 -9.535533,-7.75706 -0.899933,-0.92712 -3.031168,-3.09808 -4.736082,-4.82436 -1.704911,-1.72627 -3.278087,-3.48337 -3.495942,-3.90466 -0.217858,-0.42128 -0.579099,-0.8362 -0.802762,-0.92202 -0.223665,-0.0858 -0.406662,-0.38249 -0.406662,-0.65926 0,-0.38121 -0.851659,-0.92845 -3.512936,-2.25726 -1.932115,-0.96473 -3.643323,-1.75406 -3.802684,-1.75406 -0.692513,0 -4.458036,-1.38833 -5.069002,-1.86892 -0.369101,-0.29033 -1.209579,-0.76608 -1.86773,-1.05721 -0.658151,-0.29113 -1.619459,-0.85318 -2.136238,-1.24899 -1.281732,-0.98172 -2.206083,-1.5928 -4.394317,-2.90506 -1.025861,-0.61519 -2.722501,-1.92313 -3.770312,-2.90653 -1.83723,-1.72428 -1.905114,-1.83208 -1.905114,-3.02519 0,-1.02091 0.121674,-1.3329 0.696,-1.78466 1.940501,-1.5264 4.681222,-1.28357 9.989709,0.8851 6.514007,2.66117 6.551858,2.68146 16.769297,8.98925 1.203015,0.74268 2.599277,1.59547 3.102808,1.89508 0.503531,0.29961 1.588955,1.13221 2.412055,1.85022 0.823098,0.71802 1.9587,1.64536 2.523562,2.06076 0.564859,0.4154 1.346748,1.30921 1.737532,1.98623 0.390784,0.67703 1.162902,1.85096 1.715817,2.60873 0.552916,0.75777 1.005303,1.45332 1.005303,1.54566 0,0.81807 10.896584,11.64891 12.869096,12.79145 0.852884,0.49402 2.154721,1.29769 2.892975,1.78594 0.738256,0.48825 1.462656,0.88773 1.609783,0.88773 0.147127,0 0.951407,0.47907 1.78729,1.06461 0.835885,0.58554 2.210019,1.34508 3.053638,1.68787 0.843616,0.3428 1.941547,0.90552 2.439845,1.25049 0.906057,0.62728 3.438747,3.31158 4.186957,4.4376 1.014801,1.52723 3.051381,4.14942 3.377612,4.34883 0.199478,0.12193 1.256276,1.10663 2.348439,2.18821 1.092166,1.08158 2.542551,2.2628 3.22308,2.62493 0.68053,0.36213 1.439977,0.80198 1.687658,0.97744 0.677254,0.47976 0.813279,0.14277 0.794777,-1.96896 -0.0217,-2.47459 0.699439,-15.7193 0.908211,-16.68098 0.130141,-0.59947 0.0815,-0.70176 -0.269663,-0.56701 -0.239009,0.0917 -0.428448,0.0323 -0.428448,-0.13439 0,-0.16434 -0.470918,-0.80969 -1.046485,-1.4341 -0.801328,-0.86934 -1.009195,-1.2779 -0.887304,-1.74401 0.132776,-0.50773 0.07595,-0.58247 -0.342577,-0.45057 -0.368552,0.11615 -0.662631,-0.0775 -1.107718,-0.72939 -0.333277,-0.48813 -1.136949,-1.46588 -1.785937,-2.17276 -0.648989,-0.70688 -1.179979,-1.45651 -1.179979,-1.66583 0,-0.20933 -0.07147,-0.30912 -0.158826,-0.22177 -0.347176,0.34718 -4.669542,-3.22152 -4.484839,-3.70284 0.07557,-0.19693 -0.07213,-0.33654 -0.356042,-0.33654 -0.625027,0 -1.879459,-0.98409 -1.879459,-1.47441 0,-0.20772 -0.166352,-0.37767 -0.369668,-0.37767 -0.585216,0 -2.447936,-1.65916 -4.128249,-3.67711 -0.363802,-0.43691 -0.899583,-0.90357 -1.190625,-1.03703 -0.530365,-0.24321 -1.79065,-1.24696 -2.970295,-2.36569 -0.346538,-0.32864 -0.552463,-0.72309 -0.457615,-0.87657 0.253143,-0.40959 -0.662255,-1.30402 -1.33459,-1.30402 -0.609407,0 -1.455208,-0.74638 -1.455208,-1.28415 0,-0.17405 -0.297657,-0.42962 -0.661459,-0.56793 -0.40496,-0.15397 -0.661458,-0.45923 -0.661458,-0.78721 0,-0.37775 -0.175533,-0.53712 -0.595312,-0.54048 -0.582137,-0.005 -2.315105,-1.76329 -2.315105,-2.34938 0,-0.15019 -0.247359,-0.40545 -0.549687,-0.56725 -0.302329,-0.1618 -0.48895,-0.45246 -0.414719,-0.64591 0.138978,-0.36217 -0.596363,-1.19519 -1.055044,-1.19519 -0.399183,0 -1.869284,-1.648 -2.073016,-2.32387 -0.10015,-0.33224 -0.816372,-1.22521 -1.591607,-1.98438 -0.775234,-0.75916 -1.703633,-1.94681 -2.063109,-2.63921 -0.359476,-0.69241 -0.966073,-1.50473 -1.347997,-1.80515 -0.408757,-0.32152 -0.694404,-0.81041 -0.694404,-1.18847 0,-0.38531 -0.153821,-0.64225 -0.384495,-0.64225 -0.211471,0 -0.625806,-0.54553 -0.920742,-1.21228 -0.294937,-0.66676 -0.825183,-1.55566 -1.178327,-1.97535 -0.353142,-0.41968 -0.980604,-1.45174 -1.39436,-2.29345 -0.413758,-0.84171 -0.848487,-1.60121 -0.966065,-1.68777 -0.117581,-0.0866 -0.139488,-0.45339 -0.04869,-0.81518 0.134556,-0.53612 -0.0036,-0.78648 -0.747115,-1.35356 -0.501713,-0.38267 -0.992052,-1.01391 -1.089644,-1.40274 -0.170148,-0.67793 -1.42917,-2.37254 -3.225109,-4.34092 -0.876723,-0.96091 -3.052268,-4.19018 -5.788165,-8.59166 C 35.454994,103.725 30.976744,97.199225 28.95956,94.720834 28.071256,93.629427 26.940456,92.141146 26.44667,91.413542 24.728868,88.882316 19.192694,83.294691 16.801043,81.67827 15.927918,81.088159 15.154012,80.536876 15.081252,80.453191 14.567738,79.862596 12.206654,78.226106 10.318752,77.15226 9.0818246,76.448688 7.8006459,75.627016 7.4716868,75.326317 6.8662929,74.772931 5.7214771,74.038061 3.8882678,73.02608 1.685325,71.809994 -2.116665,68.610557 -2.116665,67.97283 c 0,-0.259281 -0.3621302,-0.865722 -0.8047336,-1.347645 -0.4426035,-0.481925 -0.7558286,-1.067676 -0.6960558,-1.301668 0.059773,-0.233992 -0.013041,-0.642937 -0.1618073,-0.90877 -0.2192829,-0.391837 -0.041671,-0.349236 0.9382697,0.225047 0.6648151,0.389607 1.533286,0.831765 1.92993562,0.98257 0.71388367,0.271417 0.71676868,0.268092 0.28512638,-0.328774 -1.1510201,-1.591601 -1.2898197,-1.818116 -1.1808465,-1.92709 0.064342,-0.06434 0.7650795,0.511627 1.55719433,1.27993 1.54071687,1.494403 3.71997527,3.086904 4.22427267,3.086904 0.169109,0 0.6089719,0.237159 0.9774727,0.527024 0.5192236,0.408421 0.9007541,0.490124 1.6953786,0.363058 0.6815849,-0.10899 1.0253765,-0.06392 1.0253765,0.134435 0,0.164121 0.3035697,0.2984 0.6745976,0.2984 0.8435922,0 2.2547981,0.712001 2.7213321,1.373007 0.212857,0.301586 0.536094,0.442415 0.813417,0.354396 0.300542,-0.09539 0.711964,0.136504 1.185902,0.66842 0.526327,0.590711 0.815467,0.739981 1.052433,0.543316 0.363127,-0.301368 1.489818,-0.09966 1.489818,0.266719 0,0.128548 -0.26789,0.237344 -0.595312,0.241771 -0.556078,0.0075 -0.562721,0.02698 -0.100785,0.295362 0.368837,0.214292 0.546983,0.202446 0.700902,-0.0466 0.221538,-0.35846 0.477287,-0.278538 1.714987,0.535927 0.436563,0.287276 1.052031,0.636553 1.367705,0.776165 0.688655,0.304573 1.114536,0.99377 0.974813,1.577531 -0.1441,0.602062 2.272419,2.070843 3.778694,2.296723 1.026515,0.153935 1.481241,0.44531 2.969422,1.902704 0.966504,0.946512 2.412126,2.202039 3.212491,2.790063 2.009632,1.476459 5.820833,5.309724 5.820833,5.854528 0,0.24644 0.589743,1.022498 1.31054,1.724575 0.720794,0.702077 1.392743,1.604036 1.493216,2.004354 0.157842,0.628896 1.304678,1.882359 4.409265,4.819229 0.401902,0.380187 1.043408,1.352198 1.425567,2.160018 0.382161,0.807821 1.363022,2.503081 2.179688,3.767241 2.394079,3.70592 5.397849,8.92707 7.467015,12.97916 0.275069,0.53868 0.500126,1.20692 0.500126,1.48498 0,0.27806 0.357187,0.95502 0.79375,1.50437 0.436562,0.54934 0.79375,1.10149 0.79375,1.227 0,0.12552 0.175535,0.22821 0.39008,0.22821 0.428924,0 1.243299,1.3719 1.133939,1.91024 -0.03785,0.18629 0.08333,0.30785 0.269282,0.27011 0.185949,-0.0377 0.417441,0.14087 0.514424,0.39688 0.189061,0.49907 2.112685,2.44985 2.415746,2.44985 0.100304,0 0.4737,0.5333 0.829768,1.18511 0.373573,0.68386 2.238028,2.69919 4.408138,4.76484 2.829574,2.69338 3.924306,3.92309 4.421325,4.96645 0.410123,0.86095 1.189162,1.83815 2.054704,2.57735 0.766768,0.65484 1.901963,1.69664 2.522654,2.3151 0.620694,0.61847 1.305653,1.12448 1.522132,1.12448 0.216477,0 0.48881,0.15169 0.605182,0.33708 0.116371,0.1854 0.509241,0.52929 0.873043,0.76421 0.363802,0.23492 1.52891,1.27386 2.589127,2.30875 1.060218,1.0349 2.022706,1.88163 2.13886,1.88163 0.116155,0 1.020144,0.77391 2.008865,1.71979 0.988724,0.94589 1.894721,1.71979 2.013326,1.71979 0.118607,0 0.371745,0.20836 0.562528,0.46302 0.467617,0.62419 2.070825,1.73539 2.248059,1.55816 0.259072,-0.25907 -0.421601,-1.77907 -1.284685,-2.8688 -1.21811,-1.53799 -2.083482,-4.66791 -2.49851,-9.03671 -0.403157,-4.24385 -0.776198,-5.68822 -2.325513,-9.00405 -0.619482,-1.32582 -1.258851,-2.94636 -1.420818,-3.6012 -0.161965,-0.65484 -0.368758,-1.48828 -0.459539,-1.85208 -0.09078,-0.36381 -0.254884,-1.79256 -0.364675,-3.175 -0.234265,-2.94979 -0.957837,-4.70676 -3.595783,-8.73125 -0.906158,-1.38245 -1.985722,-3.10886 -2.399035,-3.83646 -0.413311,-0.72761 -1.367785,-2.35589 -2.121054,-3.61841 -1.017786,-1.70588 -1.508625,-2.89519 -1.910916,-4.63021 -0.522586,-2.25382 -1.205074,-5.768919 -1.519356,-7.825316 -0.08344,-0.545975 -0.424831,-1.26035 -0.758643,-1.5875 -0.333811,-0.327149 -0.944491,-1.19013 -1.357066,-1.917734 -0.412576,-0.727604 -1.376717,-2.037292 -2.142538,-2.910417 -1.691719,-1.928754 -3.909941,-5.25722 -5.037365,-7.558616 -0.458531,-0.93599 -1.172906,-2.398673 -1.5875,-3.250404 C 58.150674,76.84237 57.551502,75.651745 57.233777,75.04827 56.916049,74.444792 56.57525,73.487316 56.476444,72.920544 56.377634,72.353769 55.833922,70.8834 55.26819,69.653053 c -0.606756,-1.319564 -1.028605,-2.638525 -1.028605,-3.216065 0,-0.538491 -0.147722,-1.126795 -0.328271,-1.307344 -0.261308,-0.261308 -0.383294,-0.0697 -0.597996,0.939271 l -0.269721,1.267542 -1.359495,-3.307292 c -0.747723,-1.81901 -1.498447,-3.843072 -1.668275,-4.497916 -1.015532,-3.915796 -0.933765,-3.771971 -3.453942,-6.07532 -2.522075,-2.305082 -3.501578,-3.605411 -5.28914,-7.021555 -0.609172,-1.164166 -1.20722,-2.238483 -1.328994,-2.387372 -0.333524,-0.407776 -1.562172,-3.751286 -2.039525,-5.550128 -0.301133,-1.134779 -0.741423,-1.946439 -1.543913,-2.846144 -1.594114,-1.787234 -2.395696,-3.297906 -2.570347,-4.844118 -0.08326,-0.737143 -0.452713,-2.021607 -0.821,-2.854365 -0.368284,-0.832757 -0.742585,-1.903111 -0.831781,-2.378567 -0.142301,-0.758534 -0.07341,-0.904904 0.56221,-1.194512 0.398413,-0.181528 1.452936,-0.398086 2.343386,-0.481237 1.935596,-0.180747 3.561339,0.436327 5.036809,1.911794 1.036469,1.036471 2.512021,3.456456 2.515847,4.126122 0.0013,0.239144 0.414078,1.132112 0.917138,1.984375 1.431809,2.4257 2.665513,4.836117 3.433789,6.708944 1.120431,2.73128 1.476224,3.373435 3.770746,6.805623 1.191337,1.782022 2.486626,3.986093 2.878416,4.897937 0.391789,0.911845 0.919575,2.134148 1.172853,2.716231 0.25328,0.582084 0.552238,1.35599 0.664352,1.719792 0.112115,0.363802 0.715574,1.316302 1.341023,2.116667 0.625448,0.800364 1.388144,1.990989 1.694881,2.645833 1.011457,2.159333 1.443852,2.773288 2.934425,4.166555 1.053311,0.984552 1.809644,2.041782 2.645833,3.698454 0.643996,1.275892 1.509059,2.607683 1.922367,2.959537 0.413306,0.351853 1.230591,1.288301 1.816188,2.080995 0.585597,0.792695 1.52736,1.890236 2.092803,2.438982 0.565447,0.548746 1.028084,1.110957 1.028084,1.249357 0,0.138399 0.833437,1.932964 1.852083,3.987922 1.018646,2.054955 1.852084,3.850039 1.852084,3.989075 0,0.139033 0.408019,1.126604 0.906708,2.194603 0.49869,1.067995 0.986243,2.298998 1.08345,2.735561 0.617501,2.773196 2.388394,6.173941 4.113139,7.898683 0.717769,0.717769 1.305036,1.40975 1.305036,1.537734 0,0.127985 0.458975,0.736053 1.019948,1.351264 1.365758,1.497819 3.065578,4.037169 3.712151,5.545569 0.289677,0.67578 1.09963,2.07994 1.799897,3.12034 1.550562,2.30371 1.507038,2.22962 2.172293,3.69782 0.550484,1.21491 1.173472,4.66999 0.9169,5.08513 -0.07796,0.12614 0.01733,0.421 0.211762,0.65523 0.257223,0.30988 0.361807,1.51381 0.383985,4.42018 0.01677,2.19687 0.167611,4.49078 0.335219,5.09758 0.167605,0.6068 0.348771,2.03555 0.402587,3.175 0.17639,3.73456 0.501481,6.01185 0.974516,6.82656 0.590428,1.01689 0.95639,3.31495 0.527897,3.31495 -0.616223,0 -0.563153,0.75327 0.103769,1.47289 0.378021,0.4079 0.632598,0.88421 0.565725,1.05847 -0.167722,0.43708 0.325117,2.40732 0.926462,3.70374 0.274434,0.59165 0.498972,1.5508 0.498972,2.13144 0,0.58064 0.261962,1.82297 0.582134,2.76073 l 0.582134,1.70502 0.216968,-1.19062 c 0.11933,-0.65484 0.199507,-3.51234 0.178171,-6.35 -0.122891,-16.3425 -0.106299,-16.86989 0.620165,-19.71146 0.372033,-1.45521 0.751424,-3.08074 0.843087,-3.61228 0.101914,-0.59098 0.404246,-1.12212 0.778203,-1.36715 0.60255,-0.3948 0.61416,-0.49538 0.78927,-6.83876 0.10123,-3.66733 0.40362,-8.25994 0.70263,-10.67139 0.98124,-7.913675 1.54584,-11.637469 2.10608,-13.890628 1.28927,-5.185146 1.55121,-6.626969 1.70636,-9.392709 0.0898,-1.600729 0.19122,-3.111804 0.22539,-3.357943 0.0342,-0.246139 -0.057,-0.447011 -0.20247,-0.446378 -0.14552,5.29e-4 -0.23483,0.239635 -0.19846,0.531119 0.0796,0.638053 -0.3713,1.553411 -0.76519,1.553411 -0.15598,0 -0.20817,-0.196543 -0.11598,-0.436764 0.0922,-0.240218 0.231,-1.222483 0.30848,-2.182812 0.0775,-0.960327 0.36355,-2.996205 0.6357,-4.524174 0.27215,-1.527969 0.56545,-4.591828 0.65178,-6.808576 0.16033,-4.116932 -0.1982,-7.032598 -1.31011,-10.653924 -0.67959,-2.213353 -0.96814,-3.934637 -1.018,-6.072602 -0.0273,-1.171216 0.0272,-2.129481 0.12106,-2.129481 0.50559,0 0.89943,1.036841 0.92038,2.42307 0.0129,0.851622 0.10218,1.627166 0.19844,1.72343 0.0963,0.09627 0.17503,0.426349 0.17503,0.733517 0,0.307171 0.20836,0.852424 0.46302,1.211678 0.25466,0.359257 0.66174,1.070356 0.90462,1.580227 0.58992,1.238382 0.61025,0.499404 0.0618,-2.247964 -0.23238,-1.164166 -0.46016,-3.128697 -0.50617,-4.365624 -0.046,-1.236928 -0.20019,-3.022865 -0.34264,-3.96875 -0.53555,-3.556342 -0.91758,-9.043826 -0.77472,-11.128108 0.15695,-2.289813 -0.25718,-4.397833 -0.98218,-4.999527 -0.25809,-0.214191 -0.37367,-0.81933 -0.35866,-1.877785 0.013,-0.919493 -0.11855,-1.731269 -0.31998,-1.973977 -0.30313,-0.365246 -0.59609,-1.890937 -1.59975,-8.331019 -0.88738,-5.6940501 -0.80545,-12.8160374 0.18856,-16.3903571 0.22047,-0.7927695 0.33896,-1.7508767 0.26331,-2.1291275 -0.21794,-1.0896859 0.0942,-1.3541533 1.22853,-1.0409456 0.63434,0.1751491 0.98344,0.4297873 0.98888,0.7213041 0.005,0.2478215 0.18323,0.6817 0.39688,0.964175 0.21365,0.2824747 0.38846,0.7647535 0.38846,1.0717305 0,0.8376126 0.58952,1.92778586 1.22761,2.27015404 0.37224,0.19972813 0.62402,0.66571652 0.73513,1.36053796 0.12787,0.7996606 0.52954,1.4347764 1.65096,2.6104681 l 1.48198,1.5537002 -0.17703,3.3797009 c -0.0974,1.8588354 -0.18832,5.7609504 -0.20212,8.6713674 -0.0138,2.910416 -0.1317,5.498801 -0.262,5.751965 -0.16272,0.316161 -0.0611,0.846227 0.32453,1.692732 1.49205,3.275251 1.93617,7.011839 1.17496,9.885511 -0.65272,2.464101 -0.76824,3.918889 -0.35127,4.423471 0.25374,0.307059 0.3321,1.22673 0.28412,3.334644 -0.0605,2.65585 -0.0109,3.005346 0.5654,3.992411 2.59619,4.446239 3.51149,7.407664 3.27391,10.59266 -0.15069,2.020178 0.16323,3.050357 0.87296,2.86476 0.58784,-0.153725 0.68326,0.250836 0.16133,0.683998 -0.35877,0.297754 -0.35795,0.308441 0.33912,4.414086 0.12459,0.733785 0.14353,1.805348 0.0421,2.38125 -0.10144,0.5759 -0.0846,1.523344 0.0375,2.105427 0.12206,0.582084 0.28986,1.735842 0.37287,2.563908 0.13511,1.347729 0.0845,1.569641 -0.48286,2.116667 -0.34858,0.3361 -0.77654,0.938514 -0.95102,1.338696 -0.32089,0.735978 -0.13664,0.958988 0.37205,0.4503 0.67933,-0.679334 1.03757,11.352305 0.43674,14.66865 -0.27461,1.515758 -0.30813,2.422414 -0.1223,3.307292 0.38146,1.816333 0.37066,4.059158 -0.0207,4.3029 -0.2669,0.166216 -0.26561,0.315852 0.006,0.754809 0.28514,0.459994 0.27001,0.616858 -0.0946,0.981498 -0.31046,0.31047 -0.3954,0.72176 -0.2984,1.44495 0.0746,0.55603 0.0279,1.01096 -0.10381,1.01096 -0.13168,0 -0.23941,0.3729 -0.23941,0.82866 0,0.45577 -0.24063,1.21802 -0.53474,1.6939 -0.78311,1.2671 -1.18904,6.03482 -0.78106,9.17382 0.37464,2.88252 0.20722,3.91609 -0.82471,5.09139 -0.91527,1.04244 -1.29513,2.80763 -1.29754,6.0297 -0.001,1.40887 -0.16729,2.48191 -0.53285,3.43958 -0.69286,1.81511 -0.95233,4.62129 -0.56204,6.07858 0.32456,1.21185 0.22855,1.82427 -1.02817,6.55812 -0.5262,1.98211 -0.55818,2.39023 -0.2695,3.43958 0.63387,2.30415 0.65645,4.16111 0.0653,5.37414 -0.67574,1.38674 -1.1139,2.74363 -1.1139,3.44951 0,0.85427 0.37166,0.2355 1.32689,-2.20907 0.48333,-1.23692 1.07569,-2.54661 1.31635,-2.91041 0.24066,-0.36381 0.76929,-1.31631 1.17473,-2.11667 0.40544,-0.80037 0.96242,-1.70101 1.23772,-2.00143 0.27531,-0.30042 0.50056,-0.62553 0.50056,-0.72246 0,-0.0969 0.39094,-0.80364 0.86877,-1.57045 0.47782,-0.76681 1.43982,-2.64436 2.13776,-4.17233 0.69796,-1.52797 1.60259,-3.43297 2.01029,-4.23333 0.40771,-0.80037 0.89347,-1.93146 1.07947,-2.51354 0.42438,-1.32813 3.63209,-8.06461 4.09456,-8.59896 0.18892,-0.21828 0.78284,-1.52797 1.31984,-2.91042 0.53699,-1.38244 1.06717,-2.6326 1.17817,-2.77812 0.11101,-0.14552 0.89924,-1.62183 1.75161,-3.28068 l 1.54978,-3.01609 -0.58679,-0.38962 c -0.80153,-0.53219 -0.73817,-1.45604 0.17134,-2.49868 0.41698,-0.478 1.02857,-1.40488 1.35908,-2.05972 0.33051,-0.65485 0.88232,-1.52719 1.22623,-1.93853 0.73983,-0.88489 0.76871,-1.25118 0.1941,-2.46207 -0.40842,-0.86067 -0.4004,-1.00255 0.15168,-2.684301 0.32059,-0.976577 0.7946,-2.193002 1.05336,-2.703164 0.25877,-0.510161 0.87042,-1.761003 1.35923,-2.779648 0.48881,-1.018646 1.81618,-3.210695 2.94971,-4.871223 1.13354,-1.660528 2.06097,-3.157352 2.06097,-3.326278 0,-0.168926 0.89297,-1.643623 1.98438,-3.277108 1.0914,-1.633482 1.98437,-3.063041 1.98437,-3.176796 0,-0.113758 0.34268,-0.733259 0.76151,-1.376672 0.41883,-0.643412 0.84094,-1.616324 0.93803,-2.162027 0.0987,-0.555011 0.33008,-0.992188 0.52503,-0.992188 0.36456,0 3.06711,-3.4579 3.06711,-3.924342 0,-0.147616 0.27519,-0.604949 0.61154,-1.016294 0.33635,-0.411347 0.93864,-1.316804 1.33844,-2.012127 0.39979,-0.695319 0.95803,-1.40857 1.24054,-1.584997 0.3349,-0.20915 0.51365,-0.615865 0.51365,-1.168738 0,-0.663507 0.15827,-0.924367 0.7276,-1.199211 0.53623,-0.258863 0.72761,-0.545613 0.72761,-1.090208 0,-0.412472 0.19375,-0.847902 0.43853,-0.985544 0.24119,-0.135622 1.17256,-1.526762 2.06972,-3.091418 0.89716,-1.564655 2.09563,-3.618735 2.66327,-4.56462 0.56765,-0.945886 1.40052,-2.910417 1.85084,-4.365625 0.92894,-3.001889 2.10724,-6.13809 3.18099,-8.466667 0.40262,-0.873125 0.90743,-2.242343 1.12181,-3.042708 0.63851,-2.383769 1.95799,-5.953125 2.20069,-5.953125 0.3561,0 0.64008,2.561027 0.38141,3.439583 -0.12854,0.436563 -0.30462,1.835547 -0.3913,3.108855 -0.14522,2.13329 -0.11914,2.315104 0.33211,2.315104 0.68073,0 1.36547,0.832937 1.36547,1.661014 0,0.481423 -0.28301,0.909169 -0.92604,1.399633 -1.1024,0.84084 -1.13222,1.109961 -0.26459,2.388483 0.94877,1.39809 0.922,3.287911 -0.0649,4.580062 -0.39948,0.523058 -1.03008,1.546328 -1.40131,2.273932 -0.4936,0.967423 -0.96134,1.465115 -1.74062,1.852084 -1.51675,0.753165 -3.12947,2.144445 -2.75445,2.376223 0.1845,0.114024 0.24104,0.515315 0.14405,1.022402 l -0.15966,0.834708 0.67202,-0.79375 c 0.36961,-0.436563 0.67261,-0.883047 0.67333,-0.992188 7.9e-4,-0.10914 0.17991,-0.198437 0.39819,-0.198437 0.49164,0 0.51316,0.367866 0.0443,0.757007 -0.19393,0.160949 -0.57087,1.276856 -0.83765,2.479792 -0.26677,1.202938 -0.64388,2.375127 -0.83802,2.604867 -0.19414,0.229741 -0.35298,0.72062 -0.35298,1.090846 0,0.370226 -0.26507,1.25382 -0.58904,1.963541 -0.54378,1.19125 -0.59053,1.697022 -0.60836,6.582072 l -0.0193,5.291666 -0.98114,2.033992 c -0.86448,1.79215 -1.32409,2.34319 -3.86554,4.634513 -1.68097,1.515539 -3.30837,2.749632 -3.90061,2.957912 -1.50541,0.529432 -2.40283,1.511573 -2.87953,3.151394 -0.23115,0.795113 -0.6563,1.764911 -0.94479,2.155108 -0.28848,0.390197 -0.54415,0.970151 -0.56815,1.288786 -0.0258,0.341608 -0.22085,0.579337 -0.4755,0.579337 -1.01777,0 -1.77955,1.878957 -0.8988,2.21693 0.61593,0.236355 1.24287,1.977882 1.10008,3.055824 -0.18328,1.383664 -0.79637,2.836064 -1.54515,3.660454 -0.36172,0.39825 -0.80499,1.06982 -0.98504,1.49239 -0.18005,0.42257 -0.73829,1.38739 -1.24054,2.14405 -0.50224,0.75666 -0.91317,1.48809 -0.91317,1.6254 0,0.1373 -0.47625,0.71469 -1.05833,1.28308 -0.58209,0.56839 -1.05834,1.17512 -1.05834,1.3483 0,0.17318 -0.17859,0.38341 -0.39687,0.46717 -0.45615,0.17504 -0.53868,1.13587 -0.10985,1.27881 0.47692,0.15897 -0.85653,4.97551 -1.37745,4.97551 -0.12786,0 -0.23248,0.36362 -0.23248,0.80805 0,0.92959 -1.15292,3.12783 -4.4775,8.5371 -1.48822,2.42141 -2.23867,3.18313 -3.96567,4.02517 -1.28001,0.6241 -1.60991,0.91041 -1.61039,1.39759 -2.6e-4,0.33699 -0.13183,0.85789 -0.2922,1.15756 -0.21666,0.40483 -0.20797,0.70109 0.0338,1.15284 0.44348,0.82866 0.11962,1.92544 -0.67555,2.28774 -0.35979,0.16393 -0.65416,0.38802 -0.65416,0.49798 0,0.41642 -2.03523,2.36097 -2.47108,2.36097 -0.25077,0 -0.52736,0.20836 -0.61465,0.46302 -0.0873,0.25466 -0.45856,1.15111 -0.82505,1.99211 -0.53985,1.23883 -0.67138,1.98451 -0.69289,3.92813 l -0.0265,2.39903 1.28808,-1.40094 c 1.21539,-1.32188 1.30871,-1.37272 1.65365,-0.90099 0.3357,0.4591 0.36556,0.42143 0.36556,-0.46105 0,-0.52855 0.12718,-1.0396 0.28262,-1.13567 0.15545,-0.0961 0.22544,-0.32371 0.15553,-0.50587 -0.17136,-0.44657 0.86974,-1.32364 1.19047,-1.0029 0.15147,0.15146 0.0892,0.37594 -0.16219,0.58457 -0.55721,0.46245 -0.54889,1.44287 0.0104,1.22824 0.23018,-0.0883 0.47058,-0.1606 0.53421,-0.1606 0.0636,0 0.0442,-0.28467 -0.0431,-0.63259 -0.16247,-0.64735 0.41752,-1.33903 0.61814,-0.73717 0.0571,0.17129 0.24272,0.30691 0.41249,0.30139 0.34629,-0.0113 1.76389,-1.94952 1.76389,-2.41172 0,-0.16392 0.20387,-0.4471 0.45304,-0.62929 0.38164,-0.27907 0.39776,-0.39786 0.10231,-0.75387 -0.35575,-0.42864 -0.95314,-0.32884 -0.67972,0.11357 0.2223,0.35968 -0.36602,1.3101 -0.81098,1.3101 -0.21316,0 -0.38756,0.23812 -0.38756,0.52917 0,0.29104 -0.11907,0.52916 -0.26459,0.52916 -0.14552,0 -0.26458,-0.16585 -0.26458,-0.36856 0,-0.20272 -0.17859,-0.4371 -0.39688,-0.52087 -0.21828,-0.0838 -0.39687,-0.2989 -0.39687,-0.4781 0,-0.2534 0.0706,-0.25524 0.3175,-0.008 0.54312,0.54312 1.00479,0.35693 1.01689,-0.4101 0.0126,-0.80046 1.02712,-2.7495 1.51596,-2.91244 0.16985,-0.0566 0.53931,0.27607 0.82102,0.73931 0.49643,0.81631 0.52131,0.82524 0.80774,0.29003 0.24519,-0.45813 0.20435,-0.60917 -0.2397,-0.88649 -0.62339,-0.38931 -0.65496,-0.63744 -0.20452,-1.60737 0.39006,-0.83989 0.72761,-0.92918 0.72761,-0.19248 0,0.51185 0.0194,0.51296 0.84999,0.0489 0.7857,-0.43894 0.84439,-0.56596 0.77593,-1.67927 -0.0552,-0.89774 0.0315,-1.24494 0.34063,-1.36355 0.22809,-0.0875 0.4147,-0.41557 0.4147,-0.729 0,-0.47438 0.0659,-0.51515 0.39351,-0.24329 0.21642,0.17962 0.57361,0.25747 0.79375,0.17299 0.5975,-0.22928 0.48341,0.29584 -0.13634,0.62752 -0.29511,0.15795 -0.4607,0.40994 -0.36796,0.56 0.21477,0.3475 1.71681,-1.37791 1.57068,-1.80425 -0.0592,-0.17283 0.15359,-0.35425 0.47297,-0.40316 0.31937,-0.0489 0.54645,-0.24829 0.50462,-0.44309 -0.0418,-0.1948 0.11764,-0.4958 0.35437,-0.6689 0.23673,-0.17311 0.39002,-0.54668 0.34064,-0.83017 -0.0767,-0.4402 0.0411,-0.50259 0.8068,-0.42745 0.75477,0.0741 0.86914,0.0165 0.72304,-0.36426 -0.0954,-0.24874 -0.0668,-0.58599 0.0637,-0.74945 0.13047,-0.16345 0.4291,-0.95203 0.66364,-1.7524 0.23453,-0.80036 0.53325,-1.61929 0.66382,-1.81984 0.33256,-0.51081 0.88148,-0.0956 0.68636,0.51919 -0.0899,0.28337 -0.0363,0.5069 0.12153,0.5069 0.15532,0 0.28403,-0.14883 0.28602,-0.33073 0.002,-0.1819 0.0711,-0.58222 0.15362,-0.8896 0.11135,-0.41483 0.008,-0.59598 -0.40048,-0.70284 -0.72542,-0.1897 -0.69632,-0.56626 0.0832,-1.07705 0.59141,-0.38751 0.64279,-0.3807 0.76898,0.10186 0.15069,0.57623 0.96625,0.68813 1.45477,0.19961 0.17462,-0.17462 0.3175,-0.71041 0.3175,-1.19062 0,-0.69886 0.10639,-0.87313 0.53306,-0.87313 0.56554,0 1.58089,-1.38738 1.58262,-2.16251 5.3e-4,-0.2435 0.29864,-0.79647 0.66244,-1.22882 0.36381,-0.43236 0.66146,-0.97263 0.66146,-1.20062 0,-0.22798 0.21555,-0.62752 0.47899,-0.88784 0.63905,-0.6315 2.25671,-3.15538 2.76232,-4.30979 1.34213,-3.06436 2.14827,-4.73946 2.67396,-5.55625 2.79842,-4.34808 5.02763,-7.617522 6.4442,-9.451286 0.92419,-1.196379 2.22516,-3.101379 2.89104,-4.233333 3.06364,-5.20796 4.70524,-6.864339 6.45606,-6.514174 1.027,0.205399 1.39413,-0.133837 5.62881,-5.20121 3.68367,-4.408014 5.64601,-6.673819 9.17712,-10.596327 1.38245,-1.535682 3.16795,-3.559974 3.96779,-4.49843 3.60592,-4.230878 4.82961,-5.317845 5.37395,-4.773504 0.15901,0.159007 0.50341,0.2891 0.76535,0.2891 0.66693,0 0.59482,0.455874 -0.10736,0.678738 -0.35342,0.11217 -0.62301,0.06702 -0.68351,-0.114462 -0.15785,-0.473546 -0.84955,-0.348657 -0.84955,0.15339 0,0.249192 -0.32742,0.72263 -0.7276,1.052079 -0.58352,0.48038 -0.65448,0.64734 -0.35832,0.843131 0.2031,0.134274 0.2976,0.430932 0.20999,0.659239 -0.0876,0.228309 -0.0397,0.488997 0.1064,0.579308 0.14613,0.09031 0.23022,0.410482 0.18688,0.711485 -0.14346,0.996292 0.54012,0.792541 0.8288,-0.247036 0.15404,-0.55472 0.28073,-1.146207 0.28154,-1.314415 0.001,-0.231394 0.16198,-0.231394 0.66087,0 0.81984,0.380248 0.81998,0.476178 0.002,1.448207 -0.3638,0.432356 -0.66146,0.953458 -0.66146,1.15801 0,0.204549 -0.10369,0.485018 -0.23042,0.623263 -0.35521,0.387472 -0.60501,1.706562 -0.32319,1.706562 0.13763,0 0.29912,0.20836 0.35888,0.463021 0.0799,0.340442 1.4684,-0.912487 5.24492,-4.732737 4.85206,-4.908261 9.42216,-9.170148 9.58012,-8.934039 0.0393,0.05879 0.22901,0.312851 0.42151,0.564591 0.30091,0.393526 0.25199,0.579033 -0.34891,1.322917 -1.45123,1.796537 -1.66078,2.002113 -2.1344,2.093904 -0.26736,0.05182 -0.5374,0.24824 -0.60008,0.436489 -0.19231,0.577532 1.30164,0.07132 2.18678,-0.740971 0.743,-0.681858 1.75877,-1.321091 2.09927,-1.321091 0.49311,0 -0.081,0.81352 -1.76854,2.506184 -2.65993,2.667944 -4.1907,5.247851 -2.24896,3.790325 1.2586,-0.94474 1.46777,-1.041014 1.64362,-0.756489 0.0873,0.141343 -0.41044,0.887765 -1.1062,1.658716 -0.69576,0.77095 -1.50757,1.71265 -1.80401,2.09266 -0.29645,0.380014 -0.92765,0.891914 -1.40268,1.137561 -0.47502,0.245644 -0.93993,0.645324 -1.03312,0.888174 -0.0932,0.242851 -0.57057,0.802174 -1.06085,1.242938 -2.04455,1.838082 -3.31599,3.231428 -3.65042,4.000418 -0.1956,0.449779 -0.77868,1.140447 -1.29573,1.534819 -0.6937,0.529109 -0.94009,0.916874 -0.94009,1.479495 0,0.556858 -0.15949,0.813077 -0.59148,0.950184 -0.32531,0.103249 -1.04907,0.555464 -1.60836,1.00492 -0.8522,0.68485 -0.99326,0.935328 -0.87099,1.546674 0.12107,0.605317 0.0398,0.756116 -0.47758,0.885963 -0.38677,0.09707 -0.79378,0.534181 -1.07208,1.151332 -0.41541,0.921199 -1.74249,1.871617 -3.3455,2.39595 -0.73909,0.241752 -2.35276,1.823278 -2.35276,2.305897 0,0.254724 -0.8632,1.325464 -1.91823,2.379419 -1.05502,1.053951 -2.57529,2.605349 -3.37836,3.447547 -0.80307,0.8422 -2.28636,2.186114 -3.29621,2.986479 -2.4655,1.954069 -6.16688,5.619725 -7.48053,7.408335 -0.58783,0.80036 -1.61712,1.98601 -2.28731,2.63478 -0.67019,0.64876 -1.21853,1.29063 -1.21853,1.42638 0,0.61979 -2.05367,2.84363 -3.20445,3.46996 -1.31365,0.71497 -3.40222,2.68829 -3.40728,3.21926 -0.005,0.52442 -1.56618,1.85086 -3.07974,2.61665 -0.80554,0.40757 -1.6471,1.01953 -1.87013,1.35992 -0.22302,0.34039 -0.52699,0.61888 -0.67546,0.61888 -0.41396,0 -1.62088,1.39605 -1.66173,1.92212 -0.0263,0.33859 0.0971,0.42458 0.44898,0.3129 0.26688,-0.0847 0.48523,-0.0801 0.48523,0.0103 0,0.0904 -0.55798,1.25927 -1.23996,2.59752 -1.61099,3.16124 -1.67019,3.29177 -1.67193,3.68636 -0.006,1.30128 -0.70252,2.44438 -2.81239,4.61389 -1.24895,1.28426 -2.57019,2.80239 -2.9361,3.37362 -0.36591,0.57124 -1.31575,1.80537 -2.11075,2.74251 -1.02674,1.21032 -1.4053,1.85746 -1.30682,2.23403 0.0843,0.32222 -0.29588,1.36642 -0.96931,2.66253 -1.42164,2.73614 -5.71735,7.14474 -8.10602,8.31905 -0.8491,0.41743 -2.37429,1.51912 -3.38933,2.4482 -1.81,1.65673 -1.84069,1.70669 -1.59509,2.5962 0.38739,1.403 0.0868,2.00052 -1.84125,3.66002 -0.98267,0.8458 -2.81287,2.51198 -4.0671,3.70262 -1.86999,1.77516 -2.77478,2.40311 -5.02708,3.48893 -2.686,1.2949 -3.73917,2.18258 -5.5053,4.64024 -0.4466,0.62147 -0.86986,2.79787 -0.82253,4.22946 0.0185,0.55912 -0.1055,1.1842 -0.27553,1.38907 -0.22016,0.26528 -0.22802,0.47023 -0.0273,0.71209 0.17867,0.21528 0.19201,0.48164 0.0364,0.7276 -0.13497,0.2134 -0.24722,0.69161 -0.24945,1.06269 -0.002,0.37108 -0.13289,0.80353 -0.29036,0.96099 -0.20535,0.20536 -0.19431,0.43361 0.039,0.80727 0.26349,0.42192 0.24732,0.67734 -0.0851,1.34364 -0.26875,0.53872 -0.34995,1.1231 -0.23525,1.69305 0.16147,0.80237 0.1676,1.87445 0.0163,2.85474 -0.13009,0.8429 0.032,3.1749 0.22055,3.17296 0.10914,-0.001 1.51134,-1.28104 3.116,-2.84427 4.0754,-3.97016 5.18479,-4.88273 8.88467,-7.30845 0.63929,-0.41914 2.17438,-1.49229 3.4113,-2.38478 1.23693,-0.8925 2.67779,-1.83874 3.20191,-2.10275 0.52412,-0.26402 1.59569,-1.01426 2.38125,-1.66722 0.78557,-0.65296 2.48862,-1.91957 3.78457,-2.8147 1.29595,-0.89513 2.96282,-2.1711 3.70417,-2.83548 1.1354,-1.01753 2.88014,-2.46505 4.65519,-3.86215 0.21828,-0.17181 2.3614,-2.26971 4.7625,-4.66202 5.32598,-5.30648 9.48247,-9.249 11.23814,-10.65961 1.12447,-0.90347 3.59372,-3.08439 4.49642,-3.97139 0.292,-0.28692 3.45777,-3.88234 4.77065,-5.41809 1.85657,-2.17177 9.58049,-9.87744 13.49034,-13.45848 2.32646,-2.13081 5.77927,-5.42785 7.67292,-7.32676 3.59855,-3.60855 6.48759,-6.2051 6.9031,-6.2042 0.13423,2.6e-4 0.26843,0.34987 0.29822,0.77686 0.0413,0.59166 -0.16327,0.96724 -0.85989,1.57889 -0.50274,0.4414 -0.91407,0.92526 -0.91407,1.07522 0,0.42141 1.48174,0.32203 1.85208,-0.1242 0.18116,-0.21829 0.4934,-0.39688 0.69386,-0.39688 0.42578,0 0.49119,0.6842 0.0892,0.93267 -0.48643,0.30063 -1.60129,2.2532 -1.43767,2.51794 0.087,0.14077 -0.25914,0.87857 -0.7692,1.63957 -0.81831,1.22091 -0.88247,1.43325 -0.54552,1.80558 0.49495,0.5469 0.48786,1.20904 -0.015,1.402 -0.21828,0.0838 -0.39952,0.30486 -0.40276,0.49133 -0.003,0.18647 -0.23871,0.63669 -0.52328,1.00049 -0.28457,0.36381 -0.52005,0.8192 -0.52328,1.01198 -0.009,0.51748 -3.63507,4.42428 -4.88266,5.26021 -1.41524,0.94826 -2.77188,2.35622 -3.4442,3.5745 -0.58785,1.06519 -3.35691,3.54995 -4.23439,3.79965 -1.42965,0.40681 -3.5113,1.32843 -4.03352,1.78578 -0.31987,0.28013 -0.6576,0.85543 -0.7505,1.27843 -0.11413,0.51961 -0.62733,1.10775 -1.58199,1.81299 -1.46945,1.08555 -1.79293,1.44676 -1.89315,2.11396 -0.0716,0.47666 -1.39788,1.58434 -1.89922,1.58619 -0.19605,7.9e-4 -1.14855,0.76124 -2.11667,1.69004 -0.96811,0.92879 -2.38529,2.00236 -3.14927,2.3857 -0.76399,0.38334 -1.38907,0.80273 -1.38907,0.93197 0,0.12924 -0.50601,0.53554 -1.12447,0.90288 -0.61847,0.36734 -1.49595,1.01263 -1.94995,1.43399 -0.45401,0.42135 -1.19815,0.92047 -1.65365,1.10914 -0.4555,0.18867 -0.82818,0.43892 -0.82818,0.55611 0,0.11718 -0.63531,0.57655 -1.4118,1.02082 -1.85082,1.05888 -3.87992,2.8598 -3.87992,3.44353 0,0.25482 -0.57995,1.18595 -1.28877,2.06917 -0.7742,0.96466 -1.36319,2.00247 -1.47514,2.59921 -0.10935,0.58287 -0.63647,1.52717 -1.2756,2.28514 -0.96853,1.14862 -1.99976,1.97354 -6.223,4.97801 -0.62391,0.44386 -1.2569,1.12926 -1.40665,1.52312 -0.43345,1.14007 -8.57993,8.72869 -12.13581,11.30476 -1.90811,1.38235 -4.76262,3.30729 -4.90439,3.30729 -0.087,0 -1.31282,0.6723 -2.72393,1.49398 -3.90479,2.27375 -8.2877,4.435 -10.23178,5.04538 -0.58566,0.18388 -0.83005,0.45783 -0.95546,1.07101 -0.0927,0.45316 -0.0533,0.93914 0.0875,1.07996 0.31571,0.31572 0.40959,12.71167 0.12886,17.01506 -0.18541,2.84216 -0.15082,3.24601 0.44187,5.15938 0.35367,1.14172 0.72369,2.70094 0.82227,3.46492 0.0986,0.76399 0.26937,1.38906 0.37953,1.38906 0.11015,0 1.08124,-0.63001 2.15798,-1.40003 2.08811,-1.4933 6.90563,-4.74826 8.2749,-5.59094 1.2994,-0.79969 4.43812,-3.33348 5.45676,-4.4051 0.50932,-0.53581 1.93807,-1.81478 3.175,-2.84217 1.23693,-1.02738 2.69017,-2.2417 3.22942,-2.6985 1.43448,-1.21512 3.20226,-2.54558 5.32888,-4.01059 1.03277,-0.71147 2.77411,-2.11428 3.86963,-3.11737 2.44546,-2.23911 6.78646,-5.90862 8.46564,-7.15613 1.89224,-1.40579 6.27563,-5.00353 7.81311,-6.41274 1.38333,-1.26791 2.00206,-1.74583 4.63082,-3.57694 0.80037,-0.5575 2.70537,-1.88448 4.23334,-2.94883 1.52796,-1.06436 3.07578,-2.19993 3.43958,-2.52348 0.3638,-0.32356 2.09021,-1.52159 3.83646,-2.66231 1.74625,-1.14071 4.0102,-2.69422 5.031,-3.45225 1.89316,-1.40581 5.03178,-4.54836 5.86171,-5.86904 0.25319,-0.40289 1.18441,-1.6255 2.06939,-2.71691 0.88498,-1.0914 1.89562,-2.40109 2.24587,-2.91041 1.04919,-1.5257 2.99001,-3.5673 4.65567,-4.89741 0.86218,-0.6885 2.58383,-2.29341 3.82589,-3.56648 3.32942,-3.41254 6.7459,-5.48219 12.02922,-7.28713 1.60073,-0.54685 3.05434,-1.10663 3.23024,-1.24394 0.46599,-0.36375 0.74743,0.99644 0.37521,1.81337 -0.42068,0.92331 -0.38338,1.10495 0.37032,1.80347 0.76327,0.70737 2.37266,3.87421 2.82126,5.55145 0.26501,0.99087 0.23276,1.2714 -0.26383,2.29495 -0.31116,0.64135 -1.08582,1.73164 -1.72146,2.42286 -1.07701,1.1712 -1.24415,1.25684 -2.45456,1.25776 -1.65222,0.001 -2.6309,0.58515 -4.92771,2.93991 -1.10328,1.13111 -1.99133,1.8216 -2.34282,1.8216 -1.37465,0 -6.06686,3.19284 -6.06686,4.12823 0,0.51127 -3.02676,2.42301 -4.39984,2.779 -1.81205,0.4698 -2.82283,1.54371 -4.33118,4.60169 -0.7538,1.52822 -1.47092,2.77858 -1.5936,2.77858 -0.12268,0 -0.30233,0.24978 -0.39923,0.55508 -0.0969,0.30529 -0.78953,1.18329 -1.53918,1.95111 -1.44206,1.47699 -3.16111,3.83532 -4.02091,5.51616 -0.28441,0.556 -1.4696,1.94442 -2.63377,3.0854 -1.16417,1.14098 -2.83104,2.80952 -3.70417,3.70788 -1.47374,1.51633 -3.47545,3.00063 -6.1106,4.53111 -0.59594,0.34612 -1.64388,0.98649 -2.32876,1.42305 -3.87336,2.469 -5.94845,3.6656 -6.7524,3.89377 -1.99638,0.56661 -4.99053,3.04784 -5.55219,4.60106 -0.25581,0.70743 -1.48674,2.14154 -3.96864,4.62373 -3.79323,3.79365 -5.28374,4.92854 -9.15407,6.97003 -1.30969,0.69082 -2.97657,1.69981 -3.70417,2.24219 -0.7276,0.54238 -1.87273,1.24948 -2.54472,1.57134 -0.67199,0.32186 -1.4459,0.83624 -1.71979,1.14308 -0.85495,0.95778 -4.63875,3.66209 -5.1239,3.66209 -0.65111,0 -8.47097,8.02248 -8.47097,8.69046 0,0.41158 -2.45778,2.71125 -3.41176,3.19229 -2.9461,1.48553 -5.22533,2.73391 -5.5011,3.01305 -0.35738,0.36175 -0.19713,2.31184 0.66751,8.12295 1.04916,7.05123 1.2496,19.18751 0.39109,23.68021 -0.22246,1.16417 -0.49347,2.83104 -0.60224,3.70417 -0.19351,1.55337 -1.32582,6.06181 -1.83563,7.30882 -0.14135,0.34579 -0.38681,1.57673 -0.54545,2.7355 -0.18622,1.36015 -0.46237,2.29783 -0.77919,2.64584 -0.26991,0.29643 -0.63859,1.01525 -0.81928,1.59734 -0.18069,0.58208 -0.41627,1.23692 -0.52351,1.45521 -0.30208,0.61486 -0.88999,0.46886 -1.06538,-0.26459 l -0.15818,-0.66146 -0.46139,0.69996 c -0.52205,0.79203 -1.43642,1.13332 -1.93273,0.72141 -0.1831,-0.15197 -0.44896,-0.20457 -0.5908,-0.11692 -0.14184,0.0877 -0.32627,0.0487 -0.40985,-0.0865 -0.0836,-0.13523 -0.63805,-0.328 -1.23215,-0.42836 -0.87875,-0.14848 -1.13002,-0.32546 -1.34741,-0.94906 -0.14697,-0.42161 -0.36762,-0.76658 -0.49031,-0.76658 -0.40016,0 -0.58579,0.56812 -0.28418,0.86971 0.40675,0.40677 0.36914,1.38475 -0.0672,1.74686 -0.29326,0.24339 -0.38946,0.0926 -0.50887,-0.79774 -0.081,-0.60383 -0.334986,-1.28561 -0.56443,-1.51506 -0.379836,-0.37984 -0.417922,-0.29961 -0.425582,0.8963 -0.0047,0.73285 -0.180139,1.54051 -0.396875,1.82706 -0.213654,0.28249 -0.388461,0.90053 -0.388461,1.37345 0,0.8691 -0.455494,1.48309 -0.624441,0.84172 z M 111.31126,190.35651 c 0.41686,-0.654 0.48162,-0.91485 0.22712,-0.91485 -0.19581,0 -0.43072,0.29766 -0.52203,0.66146 -0.0913,0.36381 -0.28281,0.66146 -0.42556,0.66146 -0.14274,0 -0.25954,0.11906 -0.25954,0.26458 0,0.50997 0.40212,0.23396 0.98001,-0.67265 z m -7.59459,-21.61599 c 0,-0.31901 -0.14736,-0.24053 -0.6866,0.36571 -0.50224,0.56463 -0.50191,0.56535 0.0913,0.20094 0.32742,-0.20114 0.59531,-0.45613 0.59531,-0.56665 z m 9.18876,-3.80037 c -0.0879,-0.0879 -0.31613,-0.0973 -0.50712,-0.0209 -0.21107,0.0845 -0.14837,0.14716 0.15985,0.15985 0.27892,0.0115 0.43519,-0.051 0.34727,-0.13896 z m 9.27592,-15.22216 c -0.0661,-0.19816 -0.18599,-0.0782 -0.27955,0.27955 -0.11508,0.44009 -0.0806,0.5434 0.11569,0.34706 0.15375,-0.15375 0.22748,-0.43572 0.16386,-0.62661 z M 89.693752,134.02707 c 0,-0.27926 -0.507765,-0.39658 -0.658792,-0.15222 -0.0914,0.14789 0.01942,0.2689 0.246301,0.2689 0.22687,0 0.412491,-0.0525 0.412491,-0.11668 z M 53.538265,128.9759 c -0.154697,-0.40313 -0.88618,-0.54902 -0.88618,-0.17673 0,0.3377 0.593455,0.83816 0.82455,0.69534 0.115869,-0.0716 0.143603,-0.30499 0.06163,-0.51861 z m 79.617115,-8.74864 c 0.23851,-0.23851 -0.0899,-0.91908 -0.36227,-0.75075 -0.13027,0.0805 -0.23686,0.31795 -0.23686,0.52765 0,0.38962 0.31523,0.507 0.59913,0.2231 z m -47.072934,-1.3044 c -0.08532,-0.22233 -0.379235,-0.52417 -0.653156,-0.67077 -0.426786,-0.22841 -0.498038,-0.17058 -0.498038,0.40423 0,0.53682 0.130429,0.67076 0.653155,0.67076 0.477158,0 0.611357,-0.10892 0.498039,-0.40422 z m 52.294644,-6.21036 c 0,-0.14552 -0.0525,-0.26458 -0.11668,-0.26458 -0.0642,0 -0.19026,0.11906 -0.2802,0.26458 -0.0899,0.14552 -0.0374,0.26458 0.11668,0.26458 0.15411,0 0.2802,-0.11906 0.2802,-0.26458 z m 1.60734,-1.39568 c -0.0327,-0.31636 -0.39563,-0.25509 -0.50932,0.086 -0.0582,0.17463 0.037,0.26988 0.21166,0.21167 0.17463,-0.0582 0.30857,-0.19215 0.29766,-0.29766 z M 63.066516,73.686459 c -0.159139,-0.414705 -0.889431,-0.559533 -0.889431,-0.17639 0,0.323242 0.304099,0.573265 0.697251,0.573265 0.197498,0 0.279495,-0.169336 0.19218,-0.396875 z M 10.847918,70.648791 c 0,-0.293389 -1.2686979,-0.676619 -1.494025,-0.451294 -0.080555,0.08056 -0.067982,0.273449 0.027937,0.428651 0.2189639,0.354288 1.466088,0.373549 1.466088,0.02265 z M 201.639,69.651563 c 1.06985,-0.881869 1.29638,-1.164323 1.28837,-1.606399 -0.007,-0.404003 -0.0324,-0.402296 -0.27773,0.01889 -0.14832,0.254662 -0.48344,0.463021 -0.74469,0.463021 -0.44616,0 -1.02939,0.502592 -1.45844,1.256771 -0.28348,0.498287 0.53807,0.407146 1.19249,-0.132292 z M 164.56317,54.779086 c 0.21407,-0.13538 0.3085,-0.326859 0.20985,-0.425511 -0.24212,-0.242118 -0.99594,0.06584 -0.99594,0.406873 0,0.336048 0.27393,0.342543 0.78609,0.01863 z m 3.05037,-12.445751 c 0.13457,-0.662715 0.10629,-0.848456 -0.0994,-0.65319 -0.15813,0.150069 -0.36501,0.68585 -0.45974,1.190625 -0.11744,0.625797 -0.0858,0.833601 0.0995,0.65319 0.14943,-0.145521 0.35631,-0.681302 0.45973,-1.190625 z M 54.107293,138.37708 c 0.08994,-0.14552 0.364855,-0.26276 0.610929,-0.26053 0.385569,0.003 0.392554,0.0395 0.05053,0.26053 -0.518152,0.33486 -0.86841,0.33486 -0.661459,0 z m 85.328127,-9.49377 c 0,-0.14552 0.11906,-0.33817 0.26458,-0.4281 0.14552,-0.0899 0.26458,-0.0445 0.26458,0.10106 0,0.14552 -0.11906,0.33817 -0.26458,0.4281 -0.14552,0.0899 -0.26458,0.0445 -0.26458,-0.10106 z m -0.26459,-1.35414 c 0,-0.14552 0.12609,-0.26459 0.2802,-0.26459 0.15411,0 0.20662,0.11907 0.11668,0.26459 -0.0899,0.14552 -0.21603,0.26458 -0.2802,0.26458 -0.0642,0 -0.11668,-0.11906 -0.11668,-0.26458 z M 116.96672,67.314411 c 0.0127,-0.308226 0.0754,-0.370919 0.15985,-0.159853 0.0764,0.190995 0.067,0.419201 -0.0209,0.507119 -0.0879,0.08792 -0.15045,-0.06835 -0.13897,-0.347266 z"
       style="fill:#000000;stroke-width:0.264583" />
  </g>
</svg>
