<svg xmlns="http://www.w3.org/2000/svg" viewBox="0 0 159.8 189.2"><path d="M105.9 188.9c-.6-.8-1-1.8-2-5.3a123.9 123.9 0 00-4.3-13.8l-1.6-4.4c-.7-2.4-3.3-8.7-4.5-11.3a36.5 36.5 0 01-2.8-7c-.2-1.1-.8-2.7-1.1-3.6l-1.4-4.2-1.2-3.7c-1.6-3-9.1-11-14.8-15.6-1.6-1.3-2-1.5-2.3-1.2-1.8 1.3-2.5 1.5-5 1.4a11 11 0 01-3-.4c-.6-.2-.6-.3-.2-.4.3 0 .4-.2.3-.4-.1-.3 0-.4.4-.4.3 0 1.5-.5 2.6-1.2l2-1.1-3.5-2.4c-2-1.2-5-3.6-7-5.1-1.9-1.5-4-3.2-4.8-3.6-.7-.5-2-1.4-2.7-2.2-1.8-1.6-1.7-2.3 0-2.6a5 5 0 014.3 1.1 41 41 0 004.1 2.3 21 21 0 015.3 3.3l.7.6-.1-1.2c0-.7-.2-1-.4-1-.2.1-.2 0-.1-.3 0-.2-.1-1.1-.5-2-.8-2.1-.8-2.3 0-2.4.8-.2 1 0 1.6 1.2.2.6.8 1.5 1.2 2 1.1 1.4 1.4 2.5 1 3.6-.6 1.1-.6 2.3 0 2.8.2.3 1.3 1 2.4 1.6a22.8 22.8 0 014.7 3.1l-.7-4.6-.8-3.5c-.3-.3.1-.7.6-.4.1 0 .3 0 .5-.2.4-.6 1 0 1.1 1.2.1.7.4 1.6.8 2 .8 1 1.2 2.8 1.2 5.5v2l2.2 2a14 14 0 002.5 2.1c.2 0 .7.5 1 1 .8 1.3 1.4 1.5 1.1.5l-.4-2.6-1-4.8c-.9-3.3-1.2-5.9-1.2-8.3v-1.6l-3-4.7a94.3 94.3 0 00-13.2-16c-3.4-3.4-3.5-3.4-4.6-3.4L57 81c-1.6-.4-4.7-.8-8.3-1-2.5-.2-3.6-.4-4.7-1l-2.1-.8c-.4 0-.6-.2-.6-.4s2.4 0 4.3.4l3.2.2a59 59 0 007.7-.3c.2-.2-4-4.7-6.6-7.1l-4-4c-2-2-2.3-2.2-3-2-.4 0-1.6 0-2.7-.2-1-.2-3-.4-4.4-.4l-4.2-.3a19 19 0 01-5.7-1.6c0-.4 1.7-.6 4.1-.4a187.8 187.8 0 007.6.5c.5.4 1 .4 1 .1l1 .2c1.1.5 1.2.5 1 .1 0-.1.1-.2.4-.2.3 0 .5-.2.5-.3-.1-.4-4.6-5.4-7.9-8.8l-2.8-2.9h-3c-3 0-3.2 0-4-.6-.7-.6-1.8-1.1-6.6-3-2.1-1-3-1.6-2.7-2h1l.9-.1 1.8-.3c1.7 0 1.9 0 3 .8 1.3 1 3.7 1.5 4.3 1 .2-.2.4-.4.4-.6l-1.5-2-5.6-6c-.3-.5-.3-.5-.6-.1-.2.3-.3.3-.8-.4-.6-.7-.6-.7-1.8-.4-2 .5-5 .1-7.8-1-1.3-.4-1.3-.4-.9-1a2 2 0 011.2-.4h.7l-.7-.7c-.6-.5-.7-.7-.4-1.2.2-.3.4-.5.7-.3.5.2 6.4.5 6.6.4l-.5-.7c-.9-.8-3-3.8-3.7-5.2-.3-.6-.9-1.2-1.2-1.3-.7-.3-3-.7-6-1-1.9-.1-3.6-1-3.6-2 0-.3.1-.4.6-.3.6.2.7.1.5-.4 0-.4 0-.5.5-.3a47.5 47.5 0 006.8 1.7c.6 0 .3-.6-2-3.2l-2.9-3.5c-.7-1-2.7-6.2-2.7-7 0-.6 1.2 0 2.8 1.4.7.7 1.9 1.5 2.5 1.7 1 .4 1.3.7 1.6 1.4.1.5.2 1 .1 1.2a91.1 91.1 0 011.4 2.1c.2.3.6-.7.6-1.6 0-1 0-1 .6-1 .3 0 .9.2 1.2.6.5.5.6.9.6 3v2.2l2.7 3c4.7 5.3 5.7 6.5 5.8 6.8.2.5.7 0 .7-.7 0-.3 0-.9-.2-1.2l-.4-2.2c-.2-1.2-.2-1.5.2-1.6h.7c.3.3 1.4 5.5 1.7 7.9.1 1.1.4 1.6 3 4.5l3 3.3c.2 0 .2-.3.1-.8-.1-.7 0-1.5.5-3 .4-1 .7-2.3.7-2.7 0-.4.1-.6.3-.6.4.2 1 2.5 1 4 0 1 .5 5 1 7 .2 1 12.3 13.9 12.7 13.5l-.1-1.1a11 11 0 01-.3-2l-.2-1.3c-.2-.4-1-4.3-1.2-6.6 0-1-.3-2.5-.5-3.4-.3-1.3-.3-1.7 0-2 .2-.2.3-.2.1.1 0 .3 0 .5.4.6.3 0 .5.4.7 1.3.2 1.6.8 2.8 1.4 3 .7.2 1 1.2 1.3 3.7.2 2.6.9 4.7 1.6 4.8.5.1.5.2.2.9-.2.6-.2.9 0 1.2.7.9.7 1.2.4 1.7-.4.6-.4 2.5 0 2.8l.2.6c0 .3 1 1.5 2.4 2.7a42 42 0 015.6 6c0 .2.3.4.8.5.4 0 .8.3.8.5s.3.5.6.6c.4.2.7.5.7.6 0 .4 1 1.7 1.2 1.5 0 0 0-.8-.3-1.6l-.5-3a22 22 0 00-1.1-4c-.8-2-1-3.2-1.2-5.2 0-1.5-.4-3.4-.7-4.3l-.6-2c0-.7 1-1.8 1.7-1.8.5 0 .6.1.6 1 0 1.6.4 3.5 1 5.6.4 1.1.7 2.5.8 3.2.1.6.4 1.6.7 2 .3.5.5 1.1.5 1.4l.6 2c.3.9.6 2.4.6 3.3.2 1.7 1 4 1.5 4.3.2.1.2.3 0 .8-.5 1-.6 1.8-.1 1.8.6 0 2.4 1.5 2.3 2 0 .4.2.5.9.6.8 0 1 .4.5.7-.4.3 1 1.5 1.8 1.5.4 0 .6.1.6.4l.2.7.2.5c0 .2.4.5.9.7.6.3.8.6.8 1 0 .5.3.8 1 1l1 .6.5.2c.2 0 .4.5.6 1 .3 1 .4 1.2 1.2 1.3h1c.2 0 .2-.7 0-1.4a16 16 0 01-.2-2.4c0-.7-.4-2.3-.8-3.6a1159.4 1159.4 0 01-5-14.5 18.9 18.9 0 01.6-12.2c.1-.6.3-1.1.4-1.1L75 57a10 10 0 011.2 3.9c.2 1.3.5 2.6 1.2 4.1l1.2 2.2 1-1.7a84.5 84.5 0 013-6.2L83 58l2.3-6.5 1.8-5.5-.3-2.2c-.4-2.5-.6-3.2-1.6-5.7-.7-1.8-.9-3.8-.3-3.8.5 0 1.5.8 1.5 1.2 0 .2.3.5.5.6.4.2.6.6.6 1.3l.4 2 .4 1.7c0 1.4 1.2-.1 2-2.5l1-2.9c.7-1.5 1.4-4.7 1.3-5.5a74.5 74.5 0 00-3.3-14.7c0-.4 1.6-.2 1.7.1.1.3.3.4.5.4.6 0 1.5 1.7 1.5 2.6 0 .5.1.9.3.9.3 0 .5 1 .2 1.2-.3.2-.2 1 .2 1.4.3.2.3.4.1.6v2l.1 1.8.6-2.3c.3-1.2 1.1-3.5 1.8-5.1l1.6-4.4c.5-1.4.5-1.4 0-2.8-.5-1.1-2.5-10.5-2.5-11.7 0-1 4.3 4.6 4.4 5.8a5 5 0 00.9 2.6c.2.4.6 1.4.8 2.3.5 2.2.4 2.1.7 1.5.2-.6.6-1 1.2-1.2.3-.1.5-.4.5-.6 0-.4 1.5-1.6 1.9-1.5 0 0 .3-.2.4-.5.3-.4 3-2.6 5.6-4.4l1.2-1V4c.1.3 0 1-.2 1.4l-1.3 2.4c-.4.9-1 1.7-1.2 1.8-.2 0-.3.3-.3.6v.7c0 .3-2 1.3-3 1.5-.5.1-.7.4-.7.7 0 .6-.5.7-.6.2-.2-.5-.8 0-1.2 1-.2.6-.6 1-1 1-.4.2-.7.5-.8.7-.1.3-.4.6-.7.6-.5 0-.5 0-.4.6.1.5 0 1-.6 2a8 8 0 00-.8 1.6c0 .1-.4 1.1-1 2.1l-.8 2.2c0 .2 0 .5-.3.8-.2.2-.3.5-.2.7.3.4 1.9-.4 3.5-1.7.9-.7 1.3-1 1-.6-.8.8-.8 1.4-.1 1 .3-.2.5-.5.5-.7 0-.5.6-.8.8-.4.2.2.5.1 1.1-.4.5-.4 1.4-1 2-1.1l2-1 .8-.7-.2.9c-.3 1.5-.7 2.3-1.2 2.5-.3 0-.5.3-.6.5-.1.2-.7.7-1.4 1l-3 1.6c-3 2-5 3-5.2 3-.2 0-.5.4-.5.9l-.4 1c-.2 0-.2.2-.1.3 0 .2 0 .5-.2.7-.6.7-1.3 2.1-1.1 2.3 0 0 0 .2-.3.2s-.4 0-.3.4c.8 1.8.7 4-.1 2.5-.2-.3-.4-.6-.6-.5-.3 0-.3 0 0 .2.2.1.3 1 0 3.6 0 .2-.1.4-.3.4-.2 0-.4.2-.4.4 0 .3 0 1-.2 1.8-.2 1.3-.2 1.3.5 1a17 17 0 004.4-2.1c1-.8 3-1.8 3-1.5l-.7 1-.8 1.6c-.2.8-2.4 2.3-6 4-1.7.8-2.4 1.3-2.4 1.6 0 .3-.2 1-.5 1.5-.3.6-.5 1.5-.5 2.2 0 .9-.1 1.2-.4 1.2-.3 0-.4.2-.4.7 0 .5-.1.6-.5.5-.4 0-.6 0-.6.4 0 .3.2.5.3.5.1 0 .3.2.3.4s-.2.3-.4.3c-.6-.3-1.4.7-1.6 2 0 .7-.5 1.9-1 2.7-.7 1.5-1.1 3.3-.7 3.3l.2.4c-.1.1-.4.3-.7.2-.4 0-.6 0-.6.3s.1.4.4.3c.3-.1.4-.1.3.1-.1.2-.4.3-.7.3-.4 0-.5.4-.7 2-.2 1-.3 2.2-.2 2.6.1.4 0 .7-.1.7-.2 0-.3.3-.3.6 0 .4-.2.8-.4 1-.3.2-.4.5-.3.7l-.1.5c-.3.4.4 5.2 1 6.6a66 66 0 012.7 8.3l.8 2.5 2.2 7c.3.7.5 0 .9-2.3.1-1.2.5-3 .8-3.8l1.8-6a58.5 58.5 0 013.4-9.7 14.6 14.6 0 001.2-4.8c.2-.6.1-1-.1-1.6-.2-.4-.5-1.8-.7-3a48 48 0 00-.8-4.6A51.1 51.1 0 0194 54.1c-.1-1.4-.1-1.4.5-1.4.4.1.6.3.7.8 0 .8 1.2 4.4 2 6.9.4 1 .8 2.3.8 3 0 1 .2 1.7.5 2 .3.2.5.6.5.9 0 .2 0 .5.2.5.3.2 1-1.1 1.6-3.4a197 197 0 003.9-9.7c1.2-3.1 2-4.7 2.1-4.6.2 0 .4 0 .4-.2 0-.3 0-.4.2-.4s.3-.2.3-.4l.4-.8c.3-.5.3-.1.3 3a25 25 0 01-1 7.3c0 .4-.2.7-.4.8-.2.1-.4.5-.4 1 0 .6 0 1-.2 1s-.2.2 0 .6c.2.5.1 1-.4 2.7a26 26 0 00-1 3.8c-.1.9-.4 2-.6 2.3-.3.3-.4.7-.3.8.2.4 1.4 0 2-.6.7-.7 1.4-.9 1.2-.2-.1.2 0 .4 0 .4a36 36 0 005.7-2.6c2.3-1.1 2.3-1.2 2.6-.6.3.4.2.7-.3 1.3a9.3 9.3 0 01-4 2.9 8 8 0 00-2.1 1 7.7 7.7 0 01-4.4 1.7l-1.7.1-.2 1c-.3 1.4-1.2 4.8-1.7 5.8-.2.5-.3 1.3-.2 1.7 0 .6 0 1-.7 1.9-.5.6-.8 1.2-.8 1.4L98 89a33.5 33.5 0 00-3 10c0 .6-.1 1-.3 1-.1 0-.2.3-.2.7 0 .3-.3 1-.6 1.3-.6 1-1.1 2.7-1.1 3.7 0 .4 0 .7-.2.7l-.2.6-.5 1.8c-.5 1-.5 1.4-.3 2.5v1.8c-.3.3-.3.4 0 .4s.5.5 1 3a76.4 76.4 0 004.2 12.6c0 .3.3 2.2.6 2.3l1.2-2.4a73 73 0 018.9-15.8l1.4-1.9v-5.2a44 44 0 01.9-9.8l.5-3.5c.3-.6.3-.6 1-.4 1.3.6 1.7 1 1.7 2 0 .7 0 1 .2.7.2-.3.4-.3.8.2.7.8 1 2 .6 2.6-.4.8-.8 4.2-.6 5 .2.7.3.6 1.5-1.3a79.3 79.3 0 006.3-12.5l1.3-3.7v-5.2c.1-4 0-5.6-.3-7.1-.8-3.4-1.1-5.4-1.3-8.1-.2-2.7-.2-2.8-1.4-4.2l-1.5-1.7c-.6-.4-3.2-4-3.2-4.6 0-.7.8-1 1.2-.4.2.3.5.5.8.3.6-.2 1.6.5 2 1.5.5 1 1.5 2.2 1.6 2l.3-3.8a64.6 64.6 0 01.9-8.4c.2-1.4.9-1.2 1.1.4l.5 1.3c.1 0 .3.8.3 1.6s.1 2.1.3 2.9l.4 3.6c0 1.2.2 2.2.4 2.2s1.3-1.3 1.3-1.7c0-.4 4-8.6 4.3-8.6 0 0 .4.3.6.7.5.7.6 2.3.2 2.8-.2.2-.6 1.3-1 2.5-.4 1.1-1.1 2.5-1.5 3-.4.5-1 1.6-1.3 2.5-.4.9-1 2.1-1.5 2.7l-1 1.2.2 2.1c.1 1.2.3 2.3.5 2.5v.5c-.2.2.4 3.5 1.3 6.1.6 2 1 2.4 1.2 2.2a378.6 378.6 0 015.2-10.6l2-4.1-.4-1.3-.6-3.8c-.1-1.3-.4-2.6-.6-2.8-.2-.2-.2-.8-.1-1.6.1-1 0-2.5-.5-5-.2-.7-.2-.7-.7-.3-.7.7-1.8.4-1.8-.4 0-.3.2-.8.4-1.1.2-.3.3-.6.2-.7 0-.2.1-.3.4-.3.3 0 .6-.1.6-.4 0-.6.3-.4.6.2.2.4.4.6.5.6.6 0 1.5.5 1.6.8 0 .2 0 .3-.5.2-.8-.1-.9.6-.1 1.6l.5.9.4 1c.4 1 .4 1 .9.6.4-.4.4-.4.3.6 0 .9 0 1 .3.4.5-.7.8-.4.8.7 0 1.2-.5 2.6-1 2.5-.1-.1-.4 0-.6.2-.3.3-.3.9 0 2.7l.5 2.2s.7-1 1.4-2.4a65 65 0 018.1-11.3 109.7 109.7 0 005.3-6.6l1.5-1.9c.8-.9.8-.9.7-.2 0 .4-.2.8-.3.8-.1 0-.2.4-.2.9s0 .9.2.9l.2.4c0 .2-.2.4-.7.3-1.1 0-1.5.3-1 .9.2.4.3.4.6.2.2-.2.3-.1.3.3 0 .3-.2.6-.4.7-.2 0-.4.2-.3.3.1 0 0 .4-.3.7-.3.4-.3.5 0 .7.2.2.2.4-.5 1.2L150 47c-.3.6-1 1.4-1.4 1.8l-.7 1-.8 2-1.3 3-1.1 1.8c-.3.2-.5.6-.5.9L143 60a11 11 0 00-1.1 2.3c.1.1 2.6-.6 3.3-1 .3-.1.7-.2.9-.1l.2-.1c0-.2.2-.3.5-.2.4.1.6 0 .6-.1 0-.2.1-.3.4-.2h.5c0-.2.4-.3.6-.3.4 0 .4 0 0 .4-.9.6-.3.7 1.2.2 2-.6 2.8-1 2.8-1.2 0-.1.3-.2.7-.2.8 0 .8.4 0 .9l-.7.5c-.1.1-.3.2-.5 0-.1 0-.3 0-.3.2 0 .1-.5.5-1.2.8l-2.1 1.4c-1 .8-1.2 1-2.5 1s-3.8.2-6 .6c-.5.1-.7.4-3 4.5l-2.6 4.4c-2 3.4-3.1 5.5-2.8 5.5l1.7-.5c.8-.3 1.9-.5 2.4-.5a5 5 0 001.8-.5 60 60 0 0110.6-4.7 7 7 0 011.8-.8 4 4 0 001-.4l.7-.2c.5 0 3-1.1 3.2-1.5 0 0 .2 0 .3.2.1.4.3.4 1.4 0 1.1-.6 2-.6 1.2-.1-.2 0-.3.5-.4.8 0 .4-.4.8-1 1.1-.4.3-1 .7-1.2 1-.2.3-.7.6-1 .6-.3 0-.8.2-1 .5l-1 .7c-.4 0-1.2.5-2 1l-2.9 1.6a12 12 0 00-3.7 2.5c-.8.7-1 .8-1.2.5-.2-.2-.2-.3-.3 0 0 .3-.8.8-1.8 1l-.5.1-.4.1-.7.2-1.4.5a9.1 9.1 0 00-3.2 1.5c-.2.1-1.2.4-2.4.4-1.8.2-2.2.3-2.6.8l-1 1.2c-.3.3-1.4 2.2-2.4 4.3a128.4 128.4 0 01-5 8.7 76 76 0 01-3.6 6.8c.2.2 3.5-.9 4.3-1.4l2-.8c1-.2 2.1-.6 2.7-.9 1.5-.6 1.6-.6 2 .3.3.6.3.8 0 1.3-.3.4-.3.6 0 .9.1.1.3.5.3.8 0 .3.2.6.4.8.3.3.3.5 0 1.4-.3 1.4-.6 1.7-1.4 1.7-.5 0-1-.4-1.7-1-.5-.7-1.1-1.1-1.4-1.1-.2 0-.6.4-.9.9-.3.8-.5 1-1.2 1-.5 0-1.1-.3-1.4-.5-.6-.4-.6-.4-1 .4l-.2.9-1.9-.2c-1.2 0-2.1 0-2.6.2-.8.4-2 1.8-2.7 3-.2.5-1 1.4-1.5 2-.8.7-1 1.2-1 1.8 0 .6-.3 1.2-1.1 2-.7.8-1 1.3-1 1.6.2.2.1.6 0 .8-.2.1-.6 1.6-.8 3.3-.8 4.3-1.8 7.2-3 9-2.4 3-3 4.3-2.6 5 .2.4.2.7-.2 1.4-.6 1.2-.5 4.9.2 6.4l.5 1.7.2.6c.4.4 1.1 3 .9 3-.4.2-.3.9.1.9.5 0 2 3 1.5 3.1-.4.2-.4.6 0 .6.5 0 1 .9 1 2 0 .4.1 1 .3 1 .4.3 1.6 2.8 1.6 3.3 0 .3.1.6.3.8l.4 1.5c0 .7.2 1.7.4 2.3.6 1.3 1.8 5.3 1.8 5.8 0 .3.2 1 .5 1.6.7 1.7.9 2.3.6 2.5-.3.2-.4 1.4-.1 2 0 .3.3.5.6.5.5 0 .6.4.5 2.3 0 .4.1.9.3 1 .4.2.3 1.2-.1 1.2-.2 0-.5.4-.6 1 0 .4-.4 1-.7 1.3-.2.3-.5.6-.5.9 0 .3 0 .3-.2 0-.3-.5-.4-.5-1.1-.1-.5.2-1 .3-1.2.2-.2 0-.5.1-.8.4-.3.4-.5.5-.8.2-.3-.2-.4-.2-.4 0 0 .4-.4.4-.7 0zm6.7-78.5l-.1.4c0 .4 0 .6.1.4 0-.1.1-.5 0-.8zm.4-.8l-.3-.4c-.1-.1-.3 0-.3.2 0 .3.2.4.3.4.2 0 .3 0 .3-.2zm.2-2.6c0-.2 0-.3-.2-.3s-.4.3-.5.5c0 .2 0 .3.2.2.2 0 .4-.3.5-.4zm10.1-2c.4-.5.4-.5 0-.2-.3.2-.5.5-.5.6v.2l.5-.6zm-9.4-.6c-.1-.5-.7-.5-.7 0s.7 1 .8.7v-.7zm12.8-46.7c.2-.3.2-.5 0-.5l-.3.5v.6l.3-.6zm-30-27c0-.2 0-.2-.1.1 0 .3 0 .5.1.4v-.5zm-2 0c0-.1-.1-.2-.3-.2-.1 0-.2 0 0 .2 0 .2.1.3.2.3l.1-.3zm1-2.3V28l-.3.3c-.1.1 0 .2.1.2.2 0 .3-.1.3-.2zm63.6 46.8c0-.2.1-.2.2-.1.2 0 .3.2.3.2 0 .1-.1.2-.3.2l-.2-.3zM145.9 59c-.6-.5-.9-1.1-.5-1.1.3 0 1.7 1 1.7 1.3 0 .4-.6.3-1.2-.2zm-97.6-5.7l.3-.4v.4c0 .2 0 .4-.2.4-.1 0-.2-.2 0-.4zm43.8-3c0-.2 0-.3.2-.3s.3 0 .3.2-.1.3-.3.3a.3.3 0 01-.2-.3zm45.5-.6c0-.2.1-.3.3-.3.1 0 .2.1 0 .3l-.2.3-.1-.3zm14.8-7c.2-.3.4-.4.5-.3.1.2-.2.7-.5.7-.2 0-.2-.2 0-.4zM43.1 40.2c-.3-1-.3-1 0-1s.7 1.3.4 1.5l-.4-.5zM154.5 35l.3-.4c.1-.1.2 0 .2 0 0 .2 0 .4-.2.5l-.3-.1z"/></svg>