<?xml version="1.0" encoding="UTF-8" standalone="no"?>
<svg
   xmlns:dc="http://purl.org/dc/elements/1.1/"
   xmlns:cc="http://creativecommons.org/ns#"
   xmlns:rdf="http://www.w3.org/1999/02/22-rdf-syntax-ns#"
   xmlns:svg="http://www.w3.org/2000/svg"
   xmlns="http://www.w3.org/2000/svg"
   id="svg8"
   version="1.1"
   viewBox="0 0 72.32653 108.21643"
   height="108.21643mm"
   width="72.32653mm">
  <defs
     id="defs2" />
  <metadata
     id="metadata5">
    <rdf:RDF>
      <cc:Work
         rdf:about="">
        <dc:format>image/svg+xml</dc:format>
        <dc:type
           rdf:resource="http://purl.org/dc/dcmitype/StillImage" />
        <dc:title></dc:title>
      </cc:Work>
    </rdf:RDF>
  </metadata>
  <g
     transform="translate(50.932208,-95.604125)"
     id="layer1">
    <path
       id="path24"
       d="m -11.481029,203.77281 c -0.254661,-0.0661 -0.463021,-0.27882 -0.463021,-0.47263 0,-0.48713 -2.075579,-0.36506 -2.39568,0.14089 -0.187026,0.29561 -0.242972,0.2432 -0.246102,-0.23056 -0.0033,-0.49207 -0.108543,-0.57997 -0.533218,-0.44519 -0.396004,0.12569 -0.530185,0.047 -0.533217,-0.3129 -0.0031,-0.37068 -0.05616,-0.39861 -0.23151,-0.12187 -0.48209,0.76084 -0.608852,-0.36209 -0.542724,-4.80769 0.0372,-2.50092 -0.02238,-6.09493 -0.132435,-7.9867 -0.120816,-2.07701 -0.08942,-4.48272 0.07924,-6.07279 0.257998,-2.43224 0.239808,-2.69713 -0.238353,-3.47082 -0.284718,-0.46068 -0.51767,-1.00542 -0.51767,-1.21054 0,-0.48161 -1.456632,-3.30046 -2.236012,-4.3271 -0.33142,-0.43656 -1.273585,-1.49709 -2.093701,-2.35672 -0.820116,-0.85964 -1.49112,-1.66331 -1.49112,-1.78594 0,-0.12263 -0.125347,-0.22297 -0.278546,-0.22297 -0.41902,0 -3.045023,-2.92732 -4.721444,-5.26319 -1.541763,-2.14825 -3.528209,-4.57663 -4.326572,-5.28911 -0.254662,-0.22727 -0.463021,-0.55671 -0.463021,-0.73209 0,-0.17537 -0.267891,-0.53587 -0.595313,-0.80109 -0.709069,-0.57437 -2.050521,-2.32781 -2.050521,-2.68027 0,-0.13694 -0.416718,-0.70393 -0.926041,-1.25998 -0.509323,-0.55606 -0.926042,-1.10544 -0.926042,-1.22086 0,-0.11542 -0.208359,-0.45937 -0.463021,-0.76433 -0.906499,-1.08554 -1.263392,-1.53432 -1.769437,-2.22498 -0.281967,-0.38483 -0.724917,-0.94442 -0.984332,-1.24353 -0.259416,-0.29911 -0.55078,-0.79759 -0.647474,-1.10772 -0.09669,-0.31014 -0.250171,-0.62342 -0.34106,-0.69618 -0.257604,-0.20622 -1.500967,-2.19686 -1.688622,-2.7035 -0.0926,-0.25001 -0.07227,-0.51394 0.04518,-0.58653 0.280372,-0.17328 2.031821,1.13724 1.946162,1.45622 -0.03638,0.13547 0.08675,0.24631 0.273622,0.24631 0.350898,0 2.528592,2.14911 3.652376,3.60443 0.350936,0.45447 1.531033,1.60033 2.622439,2.54635 1.091407,0.94602 2.996407,2.88708 4.233334,4.31346 3.228829,3.72338 4.315454,4.83996 4.11204,4.2254 -0.09537,-0.28814 -0.290431,-1.4572 -0.433464,-2.59791 -0.143034,-1.14071 -0.491133,-2.69162 -0.773555,-3.44646 -0.531657,-1.42098 -1.089695,-4.67652 -0.80161,-4.67652 0.499703,0 3.258841,6.69911 3.705082,8.99583 0.980434,5.04614 1.188426,5.64707 2.565394,7.41194 0.736444,0.9439 2.43083,2.84728 3.765304,4.22973 l 2.426314,2.51354 -0.163917,-2.24896 c -0.09016,-1.23692 -0.339567,-3.49911 -0.554244,-5.02708 -0.765382,-5.44756 -0.902412,-6.67355 -1.10481,-9.88452 -0.175943,-2.79128 -0.292756,-3.37508 -0.824855,-4.12235 -0.340939,-0.4788 -0.949923,-1.72008 -1.353301,-2.7584 -0.403379,-1.03832 -0.891553,-1.92071 -1.084834,-1.96086 -0.193281,-0.0402 -0.632955,-0.48415 -0.977051,-0.98666 -0.344098,-0.50251 -0.862335,-1.18404 -1.151638,-1.5145 -0.289301,-0.33046 -0.662612,-0.78616 -0.829575,-1.01268 -0.284136,-0.38547 -6.860895,-4.48295 -7.195473,-4.48295 -0.08441,0 -0.797509,-0.29459 -1.584674,-0.65465 -0.787166,-0.36005 -1.761802,-0.72919 -2.165859,-0.82029 -1.948438,-0.43933 -9.05785,-2.84661 -9.745408,-3.29984 -0.979979,-0.646 -0.716554,-0.65466 3.023678,-0.0995 1.783954,0.26481 4.214731,0.90088 6.648539,1.73972 5.97035,2.05775 6.181126,2.11629 5.769225,1.60232 -0.189897,-0.23696 -0.702454,-0.75367 -1.139017,-1.14827 -2.235664,-2.02072 -12.574806,-12.44964 -13.476563,-13.59357 -0.572631,-0.72642 -2.128736,-2.45185 -3.458011,-3.8343 -2.710219,-2.81863 -3.947812,-4.3971 -3.610823,-4.60537 0.465306,-0.28757 2.145519,0.8753 5.710173,3.95201 2.018037,1.7418 5.288554,4.45227 7.267816,6.02327 1.979262,1.571 4.416655,3.65459 5.416429,4.6302 l 1.817771,1.77385 -0.162736,-1.09624 c -0.215335,-1.45056 -2.70977,-8.95381 -3.251565,-9.78069 -0.425383,-0.64922 -0.351241,-1.09037 0.132961,-0.79111 0.141414,0.0874 0.585781,0.7244 0.987484,1.41556 0.401703,0.69115 1.111641,1.7062 1.577641,2.25565 0.466,0.54945 1.033075,1.62102 1.260167,2.38125 0.227092,0.76024 0.639179,2.03709 0.915749,2.83745 0.276569,0.80037 0.850626,2.52388 1.27568,3.83002 0.668378,2.05384 0.960565,2.56186 2.16189,3.75879 0.763984,0.76119 1.389816,1.47847 1.390734,1.59394 7.94e-4,0.11548 0.335524,0.39982 0.743559,0.63187 0.995545,0.56617 3.085745,3.35722 4.316521,5.76388 0.550989,1.0774 1.274217,2.24889 1.607171,2.60331 l 0.605372,0.64438 0.323144,-0.74799 c 0.315801,-0.73099 0.327043,-0.73446 0.494752,-0.15268 0.25409,0.88144 0.821002,0.7219 1.00974,-0.28416 0.09075,-0.48371 0.68371,-2.18035 1.317699,-3.77031 1.718368,-4.30945 2.02166,-7.37848 1.344634,-13.60646 -0.03955,-0.3638 -0.259252,-1.73302 -0.488233,-3.04271 -0.61671,-3.52738 -0.648727,-3.69834 -0.70611,-3.77031 -0.029,-0.0364 -0.06944,-0.15545 -0.08986,-0.26459 -0.02043,-0.10914 -0.131625,-0.34726 -0.247127,-0.52916 -0.128772,-0.20281 -0.07604,-0.3323 0.136343,-0.33478 0.251669,-0.003 0.237858,-0.0742 -0.05053,-0.26054 -0.218281,-0.14106 -0.310526,-0.2583 -0.204986,-0.26053 0.10554,-0.002 0.07872,-0.30171 -0.0596,-0.66551 -0.249652,-0.65663 0.09317,-0.97698 0.353939,-0.33073 0.365202,0.90507 0.10831,-2.29502 -0.373669,-4.65479 -1.013523,-4.9622 -1.205896,-6.39389 -0.82773,-6.16017 0.150204,0.0928 0.315786,0.0407 0.367959,-0.1158 0.05218,-0.15653 0.481967,0.49322 0.955093,1.44388 0.723775,1.45429 0.886759,2.13229 1.027451,4.27417 0.103521,1.57595 0.302643,2.68112 0.522716,2.90119 0.195519,0.19553 0.355491,0.66625 0.355491,1.04605 0,0.73517 0.822704,6.02183 1.483622,9.5337 0.219091,1.16417 0.4685853,3.09535 0.554432,4.29151 l 0.1560857,2.17484 1.0857441,-1.5679 c 1.157806,-1.67197 3.9140208,-5.2977 4.4654918,-5.87424 0.1826154,-0.19092 0.7461488,-0.88291 1.2522941,-1.53775 0.5061479,-0.65484 1.0104516,-1.23031 1.1206744,-1.27882 0.1102228,-0.0485 0.200406,-0.19921 0.200406,-0.3349 0,-0.27042 2.10835868,-3.29361 2.7649804,-3.96472 0.2255097,-0.23049 0.4100195,-0.49699 0.4100195,-0.59222 0,-0.30698 3.1658294,-5.51554 3.8698539,-6.36685 0.3747664,-0.45317 1.4230932,-1.59785 2.3296192,-2.54374 0.9065233,-0.94588 2.1314197,-2.43417 2.7219879,-3.30729 1.273517,-1.88283 2.307768,-2.90073 2.700618,-2.65794 0.156295,0.0966 0.284171,0.003 0.284171,-0.20855 0,-0.3669 0.70581,-0.83601 1.124479,-0.74739 0.10914,0.0231 0.199818,-0.10682 0.201504,-0.28872 0.0016,-0.18191 0.608811,-0.92605 1.349166,-1.65365 1.391092,-1.367137 2.8811,-3.333593 2.8811,-3.802369 0,-0.147094 0.107958,-0.334165 0.239909,-0.415714 0.13195,-0.08155 0.177109,0.09187 0.100354,0.385383 -0.07675,0.29351 -0.244245,0.598358 -0.3722,0.677438 -0.373306,0.230717 -0.268124,0.64172 0.164229,0.64172 0.218281,0 0.367109,0.148829 0.330729,0.33073 -0.03638,0.181901 0.112448,0.291041 0.330729,0.242534 0.218282,-0.04851 0.304134,0.0045 0.190781,0.117902 -0.198255,0.198254 -0.764786,0.366633 -1.435912,0.42677 -0.508691,0.04558 -0.09908,0.469564 0.453652,0.469564 0.479766,0 0.477123,0.04324 -0.0647,1.058334 -0.3107,0.582088 -0.668909,1.058338 -0.79602,1.058338 -0.127111,0 -0.157006,0.1199 -0.06643,0.26645 0.09057,0.14655 -0.02146,0.33788 -0.24897,0.42518 -0.227505,0.0873 -0.415467,0.35435 -0.417698,0.59344 -0.0021,0.2391 -1.133321,1.60906 -2.513541,3.04438 -1.380218,1.43531 -2.509489,2.70122 -2.509489,2.81314 0,0.11192 -0.446484,0.67339 -0.992187,1.24771 -0.545703,0.57432 -1.349375,1.61004 -1.7859376,2.3016 -0.4365625,0.69155 -1.2699999,2.01494 -1.8520833,2.94088 -0.5820833,0.92593 -1.3262239,1.93292 -1.6536457,2.23775 -0.3274219,0.30484 -0.5953125,0.71432 -0.5953125,0.90995 0,0.19564 -0.238125,0.41798 -0.5291667,0.49409 -0.3133672,0.082 -0.5291666,0.3609 -0.5291666,0.68402 0,0.39363 -0.1190678,0.49994 -0.4274079,0.38162 -0.3398282,-0.13041 -0.3903901,-0.0474 -0.2467531,0.40518 0.1394513,0.43937 0.070985,0.57011 -0.3001962,0.57324 -0.4072573,0.003 -0.4201081,0.0433 -0.083976,0.26053 0.3391693,0.21919 0.3295517,0.25707 -0.066146,0.26053 -0.2824929,0.002 -0.4630208,0.20674 -0.4630208,0.52391 0,0.43915 -1.0059802,1.29683 -1.2788185,1.09031 -0.048509,-0.0367 -0.1576493,0.003 -0.2425356,0.0876 -0.084886,0.0849 0.073864,0.16374 0.3527769,0.17523 0.2795111,0.0115 0.3586797,0.0808 0.1763898,0.15434 -0.1819011,0.0734 -0.3307292,0.30111 -0.3307292,0.50603 0,0.20493 -0.238125,0.5213 -0.5291667,0.70306 -0.29104161,0.18175 -0.5291666,0.48745 -0.5291666,0.67931 0,0.19187 -0.1190625,0.27526 -0.26458333,0.18533 -0.14552083,-0.0899 -0.26458333,5.3e-4 -0.26458333,0.20118 0,0.20059 -0.48725136,1.01128 -1.08278344,1.80155 -0.5955294,0.79027 -1.48259,2.03216 -1.9712437,2.75977 -0.488651,0.7276 -1.2701163,1.85869 -1.7365847,2.51354 -3.1219351,4.38267 -7.3193612,11.89594 -8.0500062,14.40928 -0.37452,1.2883 -0.393581,1.92054 -0.141255,4.68561 0.206779,2.26596 0.209499,3.29538 0.0093,3.53655 -0.200601,0.24171 -0.198302,0.39213 0.0079,0.5196 0.181517,0.11218 0.199022,0.29449 0.04672,0.48658 -0.2458,0.30999 -0.0027,2.79693 0.97404,9.96446 l 0.486749,3.57187 0.701455,-1.52889 c 0.385813,-0.8409 0.701469,-1.6388 0.701469,-1.77313 0,-0.3404 1.5791256,-3.97312 3.5677021,-8.20735 0.9226259,-1.96453 2.2195154,-4.73976 2.8819739,-6.16718 l 1.2044706,-2.5953 0.2711264,-4.68074 c 0.4595522,-7.9337 0.8132048,-11.72659 1.32456238,-14.20574 0.27013958,-1.30968 0.51015105,-2.14312 0.5333603,-1.85208 0.0381582,0.47848 0.0716597,0.46776 0.34976857,-0.112 0.23805356,-0.49625 0.23400543,-0.66568 -0.01791229,-0.74965 -0.1790065,-0.0597 -0.32546924,-0.23608 -0.32546924,-0.39203 0,-0.45355 0.96500682,0.54636 1.0194713,1.05634 0.11899371,1.11419 0.0233892,2.90877 -0.19536568,3.66764 -0.13072268,0.45345 -0.14392275,0.97615 -0.0293343,1.16156 0.20610247,0.33348 0.19379935,0.96859 -0.15370969,7.93585 l -0.17815718,3.57187 1.18629103,-1.71979 c 2.2214972,-3.22055 3.2872309,-5.15677 3.9885222,-7.24632 0.4329059,-1.28988 1.1869182,-2.75514 1.9742123,-3.83646 0.7005849,-0.96223 3.0264923,-4.39167 5.1686803,-7.62097 2.142188,-3.2293 4.042198,-6.03229 4.222242,-6.22888 0.180046,-0.19658 0.446418,-0.54291 0.591939,-0.76962 0.817703,-1.27389 2.404131,-3.5529 2.552263,-3.6665 0.09488,-0.0728 0.214284,-0.42995 0.265332,-0.79375 0.05105,-0.3638 0.211884,-0.60193 0.357405,-0.52917 0.145521,0.0728 0.217585,0.25136 0.160141,0.39688 -0.285345,0.72288 -0.101383,2.05448 0.316109,2.28812 0.478313,0.26768 0.631502,1.54834 0.185208,1.54834 -0.145521,0 -0.240104,0.0893 -0.210185,0.19844 0.113998,0.41584 -0.880409,1.91822 -1.269648,1.91822 -0.278948,0 -0.357955,0.1574 -0.249904,0.49784 0.10238,0.32257 0.0058,0.55622 -0.274204,0.66369 -0.248534,0.0954 -0.367855,0.33357 -0.280773,0.5605 0.08329,0.21705 0.03611,0.39464 -0.104838,0.39464 -0.140955,0 -0.226516,0.14883 -0.190135,0.33073 0.03638,0.1819 -0.09293,0.29755 -0.287367,0.25699 -0.194434,-0.0406 -0.418441,0.17454 -0.497792,0.47798 -0.07935,0.30345 -0.289706,0.49592 -0.467448,0.42772 -0.209497,-0.0804 -0.298526,0.10048 -0.253111,0.5142 0.04958,0.45164 -0.06136,0.63821 -0.379505,0.63821 -0.274177,0 -0.466754,0.2282 -0.493628,0.58495 -0.02424,0.32171 -0.315682,0.78982 -0.647662,1.04023 -0.331981,0.25042 -0.521753,0.53715 -0.421717,0.63718 0.100036,0.10004 0.03873,0.34218 -0.136245,0.53808 -0.767061,0.85885 -0.930936,1.13018 -1.275786,2.11237 -0.200893,0.57218 -0.567693,1.26477 -0.815113,1.53909 -0.247417,0.27433 -0.519689,0.81675 -0.605046,1.20538 -0.08536,0.38863 -0.38894,0.87508 -0.674627,1.08099 -0.285689,0.20591 -0.523218,0.55646 -0.527846,0.779 -0.01177,0.56625 -0.661061,1.36258 -0.9198,1.1281 -0.117938,-0.10688 -0.139666,0.014 -0.04829,0.2687 0.09138,0.25466 0.05309,0.46302 -0.08509,0.46302 -0.1381812,0 -0.3259454,0.29765 -0.4172557,0.66146 -0.091308,0.3638 -0.2450942,0.66145 -0.3417465,0.66145 -0.096655,0 -0.4001531,0.41672 -0.6744414,0.92605 -0.2742882,0.50932 -0.5990193,0.92604 -0.7216245,0.92604 -0.1226053,0 -0.2229194,0.18709 -0.2229194,0.41577 0,0.22868 -0.1488281,0.57128 -0.3307292,0.76133 -0.5443511,0.56876 -3.3734374,5.03158 -3.3734374,5.32153 0,0.0797 -0.4557765,0.82306 -1.0128382,1.65182 -0.557059,0.82876 -1.0994522,1.74216 -1.2053146,2.02978 -0.1871821,0.50856 -0.1756939,0.50798 0.4175257,-0.0209 0.3355023,-0.29912 1.6220334,-1.23877 2.8589604,-2.08812 1.2369271,-0.84935 3.0823958,-2.21442 4.1010416,-3.03349 1.0186462,-0.81907 2.5664582,-2.01227 3.4395832,-2.65156 0.873125,-0.63929 1.627187,-1.25911 1.675694,-1.37737 0.04851,-0.11827 0.238648,-0.21503 0.422536,-0.21503 0.183888,0 0.608905,-0.23813 0.944478,-0.52917 0.335574,-0.29104 0.69332,-0.52917 0.794994,-0.52917 0.101671,0 0.55037,-0.3493 0.997106,-0.77623 0.446738,-0.42692 1.178771,-0.96576 1.626743,-1.19742 0.447968,-0.23165 0.81449,-0.55703 0.81449,-0.72307 0,-0.16604 0.07964,-0.22225 0.176967,-0.12492 0.09733,0.0973 0.394989,-0.0203 0.661458,-0.2615 0.766826,-0.69396 0.56238,-0.0393 -0.243408,0.77942 -0.777108,0.78959 -3.198511,2.40277 -3.637725,2.42351 -0.145521,0.007 -0.264583,0.15141 -0.264583,0.32119 0,0.40245 -1.495364,1.92341 -1.900399,1.93292 -0.172096,0.004 -0.390697,0.25246 -0.48578,0.55205 -0.32167,1.01349 -5.3631254,5.23023 -9.3649641,7.83297 -0.7878154,0.51239 -1.571953,1.06945 -1.7425299,1.23791 -0.1705742,0.16846 -0.7943109,0.74198 -1.3860806,1.27449 -0.5917697,0.5325 -1.47450429,1.62147 -1.96163659,2.41991 -0.48712965,0.79845 -1.34862361,2.20823 -1.91442971,3.13285 -0.5658035,0.92462 -1.1810047,2.21691 -1.3671127,2.87175 -0.1861079,0.65485 -0.8943445,2.50032 -1.5738606,4.10105 -0.6795162,1.60073 -1.4684587,3.49082 -1.7532085,4.2002 -0.2847499,0.70939 -0.7338695,1.72142 -0.9980454,2.24896 -0.2641785,0.52754 -0.5565907,1.71998 -0.649806,2.64986 -0.093215,0.92987 -0.5356093,2.71581 -0.9830964,3.96875 -1.0103805,2.829 -1.5930745,5.35232 -1.5952845,6.90827 -0.0011,0.65484 0.482079,2.78189 1.073354,4.72677 1.0012152,3.2933 1.4068294,5.67089 1.7213211,10.08989 0.067315,0.94589 0.2002816,2.34487 0.295484,3.10886 0.117176,0.94036 0.077774,1.40188 -0.1219809,1.42875 -0.1622874,0.0218 -0.4438967,0.0516 -0.6257977,0.0661 -0.1819011,0.0146 -0.3987139,0.19495 -0.4818063,0.40087 -0.08309,0.20593 -0.3212147,0.40278 -0.5291666,0.43746 -0.2079496,0.0347 -0.5566836,0.11993 -0.7749646,0.18945 -0.218281,0.0695 -0.605234,0.0723 -0.859896,0.006 z M 18.452796,99.162265 c -0.424593,-0.262413 -0.61786,-0.123214 -0.374851,0.269983 0.09739,0.157576 0.300617,0.210146 0.451617,0.116822 0.177766,-0.109866 0.150704,-0.246221 -0.07677,-0.386805 z"
       style="fill:#000000;stroke-width:0.264583" />
  </g>
</svg>
