<?xml version="1.0" encoding="UTF-8" standalone="no"?>
<svg
   xmlns:dc="http://purl.org/dc/elements/1.1/"
   xmlns:cc="http://creativecommons.org/ns#"
   xmlns:rdf="http://www.w3.org/1999/02/22-rdf-syntax-ns#"
   xmlns:svg="http://www.w3.org/2000/svg"
   xmlns="http://www.w3.org/2000/svg"
   id="svg8"
   version="1.1"
   viewBox="0 0 160.62518 179.12918"
   height="179.12918mm"
   width="160.62518mm">
  <defs
     id="defs2" />
  <metadata
     id="metadata5">
    <rdf:RDF>
      <cc:Work
         rdf:about="">
        <dc:format>image/svg+xml</dc:format>
        <dc:type
           rdf:resource="http://purl.org/dc/dcmitype/StillImage" />
        <dc:title></dc:title>
      </cc:Work>
    </rdf:RDF>
  </metadata>
  <g
     transform="translate(97.170979,-57.642945)"
     id="layer1">
    <path
       id="path83"
       d="m 13.685677,236.23553 c -0.302377,-0.3844 -0.910987,-1.90359 -1.352468,-3.37595 -0.822359,-2.74263 -1.107101,-3.62077 -2.88417,-8.89474 -0.9486529,-2.81541 -1.9952043,-5.48621 -3.016197,-7.69736 -0.228973,-0.49588 -0.8820679,-2.15443 -1.4513242,-3.68567 -0.5692563,-1.53124 -1.3040597,-3.31145 -1.6328945,-3.95603 -0.3288374,-0.64457 -0.8206978,-1.81956 -1.0930228,-2.61108 -0.272325,-0.79153 -0.614889,-1.58344 -0.7612565,-1.7598 -0.57803251,-0.69648 -3.1873797,-6.30932 -3.5990317,-7.74169 -0.2402998,-0.83614 -0.7690008,-2.25823 -1.1748954,-3.16021 -0.4058947,-0.90198 -1.1637857,-2.95904 -1.6842025,-4.57126 -0.5204169,-1.61221 -1.1563376,-3.34088 -1.4131554,-3.84147 -0.7845293,-1.5292 -5.886847,-7.21627 -8.269562,-9.21729 -1.236927,-1.03878 -3.141927,-2.67213 -4.233334,-3.62968 -2.340874,-2.05377 -4.920723,-3.98741 -6.600068,-4.94687 -3.302455,-1.88679 -9.868497,-6.09878 -11.391598,-7.30749 -3.04602,-2.41727 -4.606205,-3.53504 -5.701135,-4.08448 -1.358141,-0.68153 -4.088447,-3.22671 -4.088447,-3.81123 0,-0.59729 0.193926,-0.68563 1.912754,-0.87123 1.659443,-0.1792 2.855222,0.19838 4.423003,1.39659 0.517157,0.39525 2.083689,1.21177 3.481186,1.81448 2.759975,1.19032 4.317852,2.11023 5.86038,3.4605 0.546124,0.47805 1.110176,0.86918 1.253453,0.86918 0.143275,0 0.560734,0.4756 0.927685,1.05689 0.529725,0.83914 1.170914,1.30984 3.112172,2.28464 1.344745,0.67526 3.099834,1.73014 3.900199,2.34416 0.800364,0.61403 1.868937,1.32925 2.374603,1.58938 0.505669,0.26014 1.993951,1.42376 3.307292,2.58584 1.313344,1.16207 2.630001,2.2241 2.925903,2.36005 0.295904,0.13595 0.772154,0.59666 1.058333,1.02381 0.590203,0.88093 0.917223,0.99329 0.917157,0.31513 -8.7e-5,-0.87457 -0.772996,-4.43392 -1.450713,-6.68073 -0.895649,-2.9693 -1.564719,-6.90733 -1.495139,-8.80013 0.04851,-1.31955 -0.04599,-1.65688 -0.704102,-2.51354 -0.418068,-0.5442 -1.812848,-2.47774 -3.099514,-4.29675 -1.286666,-1.81901 -2.943529,-3.97161 -3.681918,-4.78355 -0.738391,-0.81194 -2.235496,-2.47212 -3.326902,-3.68928 -2.898669,-3.23266 -7.760578,-8.01867 -10.610529,-10.44487 -1.367489,-1.16417 -4.272283,-3.85304 -6.455095,-5.97528 -2.182813,-2.12223 -4.325938,-4.12691 -4.7625,-4.45484 -1.23626,-0.92863 -4.644906,-4.30313 -9.128125,-9.03669 -2.255573,-2.38152 -4.97465,-5.167 -6.042398,-6.18995 -5.047924,-4.83615 -12.479805,-12.254395 -12.491603,-12.468675 -0.0072,-0.131533 -0.607473,-0.715402 -1.333849,-1.297485 -0.726375,-0.582084 -1.757852,-1.653646 -2.292171,-2.38125 -1.184907,-1.613538 -2.999865,-3.86728 -3.407034,-4.230719 -1.557728,-1.390428 -4.740107,-5.741734 -6.224065,-8.510238 -0.771673,-1.439652 -2.005723,-3.083062 -3.708525,-4.938722 -2.873284,-3.131215 -3.500543,-4.091702 -4.836848,-7.406404 -1.045136,-2.592457 -1.156484,-3.232303 -0.519991,-2.988058 0.230184,0.08833 0.526579,0.1606 0.658658,0.1606 0.132078,0 0.890244,0.588734 1.684812,1.308298 0.824461,0.746636 1.920159,1.45076 2.552241,1.640136 1.201347,0.359933 2.19888,1.575426 1.989349,2.424022 -0.150014,0.607551 0.272804,1.095284 7.38444,8.518168 3.206637,3.346979 6.235786,6.621198 6.731441,7.276042 0.495656,0.654844 1.981,2.322107 3.300763,3.705029 1.319766,1.382924 4.181684,4.478549 6.359819,6.879166 3.939375,4.34176 11.771793,12.21113 19.29799,19.38903 2.169009,2.06863 5.222245,5.04107 6.784972,6.60542 1.562725,1.56435 2.954549,2.84427 3.092942,2.84427 0.138396,0 0.467125,0.23813 0.730515,0.52917 0.26339,0.29104 0.642765,0.52916 0.84306,0.52916 0.200295,0 0.437708,0.20836 0.527587,0.46302 0.241223,0.6835 1.180791,1.65365 1.601505,1.65365 0.201504,0 0.288017,0.12678 0.192254,0.28172 -0.282475,0.45706 2.12073,2.66015 2.697411,2.4728 0.395504,-0.12849 0.414245,-0.10634 0.09872,0.1167 -0.337169,0.23835 -0.329988,0.29813 0.05348,0.44529 0.243615,0.0935 0.5677,0.0929 0.720188,-0.001 0.15249,-0.0942 0.277254,-0.0643 0.277254,0.0666 0,0.13087 0.386953,0.52485 0.859896,0.87551 0.472942,0.35066 0.859895,0.81453 0.859895,1.03082 0,0.21629 0.238125,0.43162 0.529167,0.47851 1.159044,0.18675 1.279382,0.2898 0.889693,0.7619 -0.285477,0.34585 -0.290697,0.46027 -0.02508,0.54966 0.184499,0.0621 0.482155,0.25108 0.661458,0.41999 0.179303,0.16891 0.616305,0.33944 0.971119,0.37896 0.354811,0.0395 0.656013,0.0991 0.669335,0.13229 0.501795,1.25211 1.197885,2.19274 1.673693,2.26165 0.422381,0.0612 0.583732,0.26603 0.583732,0.74111 0,0.49777 0.219585,0.74831 0.907949,1.03592 0.499372,0.20865 0.979435,0.49503 1.066805,0.6364 0.08737,0.14138 0.319993,0.19521 0.516935,0.11963 0.239961,-0.0921 0.477174,0.23902 0.71913,1.00375 0.332586,1.05117 0.43929,1.14762 1.353243,1.22327 1.165757,0.0965 1.141518,0.22923 0.618847,-3.38941 -0.264827,-1.83349 -0.760947,-3.51574 -1.833692,-6.21771 -3.472421,-8.74614 -4.774885,-12.49395 -5.287124,-15.21354 -0.379991,-2.01747 -0.164486,-5.87724 0.428406,-7.67292 0.216215,-0.65484 0.467979,-1.51805 0.559475,-1.91823 0.221387,-0.96829 0.440012,-0.9174 1.13974,0.2653 1.160584,1.96165 1.639165,3.148 1.685237,4.1775 0.06835,1.52723 0.51684,3.00234 1.323975,4.3546 0.390863,0.65484 0.791527,1.45851 0.890365,1.78593 0.09883,0.32743 0.260974,0.5923 0.36031,0.58861 0.381002,-0.0142 4.017076,-7.96038 4.017076,-8.77886 0,-0.27144 0.17133,-0.75723 0.380735,-1.07953 0.209407,-0.3223 0.675248,-1.65757 1.035206,-2.96725 1.203457,-4.378728 1.723173,-6.065349 2.8030248,-9.096609 0.5899838,-1.656154 1.0727002,-3.252261 1.0727002,-3.546901 0,-0.294642 0.2786486,-0.904137 0.6192229,-1.354436 0.3405716,-0.450297 0.8806709,-1.711693 1.2002187,-2.803099 0.3195505,-1.091407 0.7408598,-2.401094 0.9362413,-2.910417 0.1953816,-0.509323 0.5615861,-1.878542 0.8137869,-3.042708 0.2522008,-1.164167 0.5652505,-2.414323 0.6956636,-2.778125 0.1304132,-0.363802 0.5277379,-2.090208 0.8829437,-3.836458 0.644226,-3.167128 1.0227945,-4.434863 3.04186684,-10.186459 0.65008386,-1.85185 1.07890996,-3.560472 1.09567396,-4.365624 0.034944,-1.678191 0.31732,-2.765011 0.5996913,-2.308121 0.1129824,0.182807 0.3257735,0.257997 0.4728686,0.167087 0.1470951,-0.09091 0.443275,0.08574 0.6581775,0.392559 0.2149025,0.306817 0.5579877,0.55785 0.7624074,0.55785 0.2085102,0 0.4943554,0.455608 0.6511369,1.037845 0.1537044,0.570815 0.4147291,1.082933 0.580054,1.138042 0.3248951,0.108298 0.7493793,2.699959 0.5019754,3.064783 -0.082759,0.122038 -0.3568224,0.297991 -0.6090311,0.391009 -0.2878376,0.106158 -0.3978804,0.327254 -0.295574,0.593862 0.089643,0.233607 0.015584,0.74413 -0.1646052,1.134495 -0.3977243,0.861693 -0.7820131,1.762098 -1.714455,4.017047 -0.3911308,0.945885 -0.8418988,1.987503 -1.0017018,2.314705 -0.1598057,0.327203 -0.2120318,0.673435 -0.1160622,0.769406 0.09597,0.09597 0.038299,0.338594 -0.1281588,0.539163 -0.4040743,0.486881 -0.5847927,2.899335 -0.2334578,3.116473 0.3935227,0.243211 0.341675,1.132576 -0.080629,1.383043 -0.1962097,0.116372 -0.43011458,0.678201 -0.51978981,1.248508 -0.0896779,0.570309 -0.299802,1.121444 -0.46694458,1.224743 -0.2178341,0.134628 -0.20175537,0.223406 0.0567716,0.313483 0.29207882,0.101767 0.27868297,0.221065 -0.070448,0.627341 -0.64970287,0.756041 -1.23150573,2.045864 -1.09527706,2.428174 0.0664342,0.186449 0.0203465,0.321177 -0.10244931,0.299397 -0.54799704,-0.09721 -0.61002594,0.07128 -0.27635204,0.750668 0.5231924,1.065268 0.55555888,2.447395 0.057311,2.447395 -0.220591,0 -0.4010765,-0.178593 -0.4010765,-0.396875 0,-0.218281 -0.1161151,-0.396875 -0.2580349,-0.396875 -0.1495769,0 -0.1752256,0.250222 -0.061018,0.595313 0.1083574,0.327422 0.1825704,0.833437 0.1649174,1.124479 -0.017648,0.291042 -0.049728,0.848085 -0.071273,1.237872 -0.021537,0.389789 -0.1994931,0.869024 -0.3954409,1.064971 -0.4058285,0.405832 -0.6879563,1.709545 -0.871638,4.027853 -0.069734,0.880139 -0.298233,1.789694 -0.5077751,2.021237 -0.209542,0.231542 -0.3809867,0.672473 -0.3809867,0.979847 0,0.307377 -0.1190625,0.632449 -0.2645834,0.722387 -0.4169092,0.257664 -0.3084009,0.661664 0.1322917,0.492556 0.2182812,-0.08376 0.396875,-0.0205 0.396875,0.140594 0,0.161092 -0.238125,0.292891 -0.5291667,0.292891 -0.318082,0 -0.5291666,0.17639 -0.5291666,0.442189 0,0.2432 -0.2083594,0.67259 -0.4630208,0.9542 -0.3146822,0.34798 -0.4568984,0.92353 -0.4439126,1.79651 0.012435,0.83559 -0.1031558,1.33142 -0.3307292,1.41875 -0.1924103,0.0738 -0.3498373,0.44952 -0.3498373,0.83487 0,0.56226 -0.1009994,0.6742 -0.511437,0.56687 -0.4465849,-0.11678 -0.4801367,-0.0514 -0.2645833,0.51553 0.3185081,0.83775 0.3135842,0.87941 -0.1039019,0.87941 -0.6399159,0 -1.5013278,1.19088 -1.5013278,2.07555 0,0.46795 -0.3156293,1.59137 -0.7014024,2.49649 -0.8102789,1.90113 -1.1853869,3.57737 -0.8472969,3.78632 0.3645831,0.22533 -0.01272,0.63748 -0.583583,0.63748 -0.282454,0 -0.513551,0.11906 -0.513551,0.26458 0,0.14552 0.185621,0.26458 0.412491,0.26458 0.226869,0 0.333888,0.12718 0.23782,0.28262 -0.09607,0.15545 -0.345728,0.21699 -0.554797,0.13676 -0.47798,-0.18342 -0.817006,0.62115 -0.376467,0.89342 0.238016,0.14711 0.202739,0.2481 -0.131461,0.37635 -0.395743,0.15186 -0.436819,0.43924 -0.307388,2.15061 0.08319,1.09989 0.04127,2.04216 -0.09457,2.12611 -0.134178,0.0829 -0.243961,0.42683 -0.243961,0.76423 0,0.33739 -0.169389,0.75402 -0.376421,0.92585 -0.566446,0.4701 -0.318912,4.34229 0.401889,6.28676 0.313042,0.84448 0.813777,2.24979 1.11274,3.12292 0.298963,0.87312 0.689541,1.94469 0.86795,2.38125 0.178408,0.43656 0.5698753,1.56766 0.8699234,2.51354 0.7799916,2.45888 3.0607025,8.94182 3.5746371,10.16094 0.2394664,0.56804 0.5154136,0.95279 0.6132168,0.85498 0.097803,-0.0978 0.3285675,-1.27694 0.5128128,-2.62031 0.3199924,-2.33315 3.0216923,-13.50623 3.5335632,-14.61332 0.33883069,-0.73283 2.00310741,-5.35437 2.3343551,-6.48229 0.1495769,-0.50932 0.3492077,-1.60877 0.4436216,-2.44323 0.094414,-0.83445 0.2905099,-1.59063 0.4357661,-1.6804 0.1452562,-0.0898 0.204896,-0.31752 0.1325298,-0.50611 -0.072366,-0.18858 0.1014968,-0.77774 0.3863657,-1.30923 0.2848663,-0.5315 0.4447566,-1.08478 0.3553116,-1.2295 -0.089442,-0.14472 0.017912,-0.53867 0.2385669,-0.87543 0.4655105,-0.71046 2.5548377,-6.73509 2.5548377,-7.36695 0,-0.23449 0.1488281,-0.58369 0.3307291,-0.77598 0.1819011,-0.1923 0.352769,-0.52822 0.3797089,-0.7465 0.02694,-0.21828 0.5352705,-1.64703 1.1296279,-3.175 0.5943573,-1.52797 1.3862102,-3.6711 1.7596749,-4.7625 1.1153664,-3.259526 1.2177634,-3.475093 1.5839724,-3.334564 0.218409,0.08381 0.291444,-0.0085 0.198462,-0.250788 -0.08092,-0.210871 -0.02977,-0.3834 0.113667,-0.3834 0.143436,0 0.408744,-0.357188 0.589574,-0.79375 0.360783,-0.871008 0.818713,-1.081146 0.669687,-0.307311 -0.05152,0.267544 -0.01222,1.368872 0.08732,2.447396 0.131934,1.429414 0.05464,2.593347 -0.285168,4.293977 -0.25639,1.28315 -0.488228,2.7119 -0.515197,3.175 -0.02697,0.46309 -0.198856,1.02112 -0.381968,1.24008 -0.183113,0.21896 -0.376103,0.72047 -0.428866,1.11447 -0.05277,0.39401 -0.172805,0.79325 -0.266758,0.8872 -0.09395,0.0939 -0.0418,0.37741 0.115885,0.62991 0.272367,0.43613 0.05076,1.53251 -0.8583005,4.24636 -0.1218618,0.3638 -0.3015007,1.43537 -0.3991981,2.38125 -0.097695,0.94589 -0.2740818,1.83979 -0.3919696,1.98646 -0.4378086,0.54469 -1.077759,2.71088 -1.4454372,4.89271 -0.4641664,2.7544 -1.0152723,5.05567 -1.5707624,6.55909 -0.2306796,0.62432 -0.3477762,1.42056 -0.2602177,1.76943 0.1047089,0.41718 -0.07352,1.07013 -0.520692,1.90758 -0.3739383,0.7003 -1.0415376,2.16624 -1.4835505,3.25765 -0.4420102,1.0914 -1.0879057,2.57968 -1.4353169,3.30729 -0.3474137,0.7276 -0.6981136,1.87023 -0.7793354,2.53918 -0.081219,0.66894 -0.346927,1.80004 -0.59046,2.51354 -0.24353311,0.7135 -0.48721964,1.95212 -0.54152801,2.75249 -0.0618755,0.9119 -0.39242999,2.05595 -0.88537782,3.06427 -0.44809832,0.91659 -0.90123427,2.4171 -1.05292257,3.48664 -0.1464601,1.03267 -0.507992,2.49079 -0.8034073,3.24026 -0.4171764,1.05839 -0.5111379,1.77493 -0.4207642,3.20876 0.063997,1.01533 0.2487295,2.00556 0.4105169,2.20051 0.1617901,0.19494 0.4032171,0.99201 0.5365062,1.77127 0.2602177,1.52134 0.4028757,1.99949 1.44893238,4.85641 0.37297517,1.01865 1.10838716,3.10224 1.63424652,4.63021 0.525862,1.52797 1.1066674,2.95672 1.2906798,3.175 0.1840124,0.21828 0.4129087,0.87556 0.5086588,1.46062 0.2940711,1.79685 0.531569,1.83596 1.1830155,0.19481 3.1215911,-7.86403 5.3091872,-12.10934 8.7607191,-17.00126 7.631837,-10.81677 11.444707,-17.63575 13.776565,-24.63818 1.310894,-3.93654 1.352859,-4.15532 1.288047,-6.71495 -0.03685,-1.45521 -0.08947,-3.89599 -0.11693,-5.42396 -0.03444,-1.91637 -0.223472,-3.37716 -0.609396,-4.70929 -0.307705,-1.06214 -0.493168,-2.10394 -0.412136,-2.3151 0.08103,-0.21117 0.02783,-0.38394 -0.118232,-0.38394 -0.555075,0 -1.390666,-8.55987 -1.27848,-13.09687 0.04318,-1.74625 -0.02947,-3.39098 -0.161435,-3.65494 -0.147066,-0.29416 -0.140661,-0.6014 0.01654,-0.79375 0.141071,-0.1726 0.331965,-1.444908 0.424206,-2.827355 0.309534,-4.639022 0.343469,-4.895088 0.645168,-4.868334 0.736397,0.06531 0.827522,0.13811 0.827522,0.66116 0,0.305429 0.164539,0.930507 0.365641,1.389062 0.201102,0.458555 0.515593,2.024362 0.69887,3.47957 0.183277,1.455208 0.442262,2.939367 0.575519,3.298137 0.13326,0.35876 0.294323,2.20423 0.357918,4.10104 0.0636,1.8968 0.239781,3.98452 0.391525,4.63936 0.151744,0.65485 0.386413,2.02407 0.521486,3.04271 0.602043,4.54026 0.838877,5.66291 1.751954,8.30471 0.533744,1.54429 1.01386,2.85863 1.066916,2.92077 0.208995,0.24475 0.910458,-1.03644 2.089904,-3.81714 2.175545,-5.12914 3.668308,-8.36949 7.861792,-17.06563 1.235157,-2.56138 3.51854,-5.901895 7.86639,-11.508281 0.945886,-1.219681 2.374636,-3.124742 3.175,-4.233471 2.911838,-4.0337 4.534371,-5.805257 3.827973,-4.179554 -0.316328,0.727996 -0.389019,2.194224 -0.108783,2.194224 0.137258,0 0.24956,0.17063 0.24956,0.37918 0,0.245684 -0.266025,0.371615 -0.755621,0.357693 -1.103114,-0.03136 -1.420159,0.233986 -1.028633,0.860914 0.218098,0.349234 0.488873,0.461825 0.841499,0.349904 0.50138,-0.159131 0.503872,-0.140515 0.06988,0.521837 -0.497343,0.759045 -0.646483,1.656154 -0.161267,0.970055 0.249489,-0.352777 0.26864,-0.352777 0.172339,0 -0.05959,0.218282 -0.27701,0.400061 -0.483163,0.403953 -0.232008,0.0044 -0.349621,0.237934 -0.308674,0.612957 0.03638,0.333233 -0.231507,0.99613 -0.595312,1.473105 -0.363807,0.476975 -0.661466,0.956802 -0.661466,1.066284 0,0.109482 -0.595313,1.044028 -1.322917,2.076765 -0.727604,1.03274 -1.322917,2.078207 -1.322917,2.323259 0,0.245054 -0.178593,0.59377 -0.396875,0.774927 -0.218281,0.181158 -0.396875,0.529111 -0.396875,0.773229 0,0.244121 -0.09732,0.556964 -0.216273,0.695209 -0.118948,0.138244 -0.555281,1.116251 -0.969626,2.173361 -0.414345,1.0571 -0.912336,2.05394 -1.106646,2.21521 -0.194308,0.16126 -0.353288,0.43321 -0.353288,0.60434 0,0.48185 -2.310251,4.82114 -4.406775,8.27714 -1.041281,1.71649 -2.336144,4.01385 -2.877479,5.10526 -0.541332,1.09141 -1.192749,2.28203 -1.447591,2.64583 -0.624975,0.89219 -3.738827,6.87917 -3.577883,6.87917 0.07027,0 1.014457,-0.29766 2.098204,-0.66146 1.083749,-0.3638 2.206291,-0.66146 2.494539,-0.66146 0.288248,0 2.053193,-0.7879 3.922098,-1.7509 5.169787,-2.66386 5.186638,-2.67171 6.176137,-2.87721 0.509323,-0.10578 1.283229,-0.45924 1.719792,-0.78546 0.436562,-0.32623 1.27,-0.75421 1.852083,-0.95109 0.582083,-0.19687 1.171443,-0.4527 1.309687,-0.56851 0.138245,-0.11582 0.508583,-0.21058 0.822974,-0.21058 0.314391,0 0.993359,-0.2862 1.50882,-0.636 0.565695,-0.38389 1.289638,-0.62601 1.8263,-0.61079 0.489006,0.0139 1.293834,-0.17671 1.788507,-0.42349 0.897733,-0.44785 1.543282,-0.37325 0.805841,0.0931 -0.214066,0.13538 -0.285337,0.24797 -0.15838,0.2502 0.126961,0.002 0.08695,0.17743 -0.08892,0.38933 -0.175866,0.21191 -0.248246,0.50099 -0.160846,0.64241 0.0874,0.14142 -0.06866,0.32936 -0.346808,0.41764 -0.278148,0.0883 -0.943197,0.5731 -1.477891,1.07738 -0.534691,0.50428 -1.164375,0.91687 -1.399296,0.91687 -0.234921,0 -0.672928,0.2201 -0.973349,0.4891 -0.509718,0.45643 -6.384015,4.00882 -6.629046,4.00882 -0.290898,0 -2.120312,1.39557 -2.454092,1.87211 -0.374555,0.53475 -2.97108,1.83205 -3.666823,1.83205 -0.200173,0 -0.363953,0.12709 -0.363953,0.28242 0,0.15532 -0.221316,0.21217 -0.491813,0.12631 -0.283919,-0.0901 -0.633137,0.0142 -0.826145,0.24676 -0.183886,0.22157 -0.542005,0.40285 -0.795822,0.40285 -0.717524,0 -3.264927,1.09623 -3.707053,1.59527 -0.256408,0.2894 -1.137134,0.54722 -2.48838,0.72842 -2.001036,0.26833 -2.134714,0.33001 -3.090362,1.42578 -0.549368,0.62993 -1.115544,1.38344 -1.258168,1.67449 -0.142624,0.29104 -0.937099,1.95791 -1.765501,3.70416 -0.828402,1.74625 -1.970188,3.96968 -2.537304,4.94096 -0.567116,0.97127 -1.031118,1.95354 -1.031118,2.18281 0,0.22927 -0.10141,0.41686 -0.225356,0.41686 -0.123944,0 -0.710309,0.92273 -1.303028,2.05052 -0.592722,1.12778 -1.622404,3.00013 -2.288188,4.16078 -0.665782,1.16064 -1.210511,2.41192 -1.210511,2.78062 0,0.38383 -0.22619,0.81163 -0.529167,1.00084 -0.293571,0.18334 -0.529166,0.61702 -0.529166,0.97407 0,0.35398 -0.123886,0.72017 -0.275305,0.81375 -0.151418,0.0936 -0.560467,0.60662 -0.909,1.1401 -0.348532,0.53347 -1.412872,2.0415 -2.3652,3.35119 -1.287515,1.77065 -1.732872,2.60401 -1.736836,3.24997 -0.0039,0.63582 -0.25359,1.11697 -0.931368,1.79475 -0.509322,0.50933 -0.926041,1.17399 -0.926041,1.47703 0,0.30304 -0.172088,1.10274 -0.382416,1.77712 -0.21033,0.67437 -0.508714,2.24938 -0.663077,3.50002 -0.430266,3.48596 -1.38271,6.31395 -2.867001,8.51268 -2.0506001,3.03761 -2.1530759,3.25273 -2.1283003,4.46766 0.012885,0.63246 -0.1549903,1.74525 -0.3730837,2.47285 -0.260178,0.868 -0.317373,1.53356 -0.1663303,1.93546 0.1266164,0.33689 0.2302087,1.02569 0.2302087,1.53066 0,0.50497 0.1784879,1.19053 0.3966368,1.52347 0.2181516,0.33294 0.7051622,1.48961 1.0822437,2.57038 0.3770815,1.08077 0.8236741,2.13322 0.9924251,2.33879 0.234492,0.28565 0.228857,0.4 -0.02392,0.48507 -0.4683203,0.15762 -0.4119375,0.86097 0.06902,0.86097 0.503584,0 1.97944,2.94587 1.550278,3.09442 -0.168807,0.0584 0.04622,0.44862 0.493974,0.89637 0.641967,0.64197 0.763088,0.94198 0.636273,1.57606 -0.08615,0.43073 -0.06836,0.78315 0.03952,0.78315 0.277225,0 1.907283,2.77953 1.907283,3.25224 0,0.21529 0.177861,0.73247 0.395245,1.14928 0.217384,0.41682 0.395978,1.1562 0.396875,1.64307 7.94e-4,0.48687 0.176173,1.20125 0.389501,1.5875 0.403558,0.73068 1.993379,5.42924 1.993379,5.89123 0,0.14522 0.229423,0.76765 0.509828,1.38318 0.709017,1.55639 0.906396,2.4671 0.578609,2.66968 -0.158382,0.0979 -0.208356,0.53587 -0.116498,1.02105 0.180707,0.95451 0.572762,1.56878 0.880043,1.37887 0.268571,-0.16599 0.521129,0.81168 0.525656,2.03484 0.0021,0.53712 0.122674,1.05016 0.268195,1.1401 0.40396,0.24966 0.315,1.11466 -0.132292,1.2863 -0.218281,0.0838 -0.396875,0.43763 -0.396875,0.78638 0,0.34874 -0.238125,0.93681 -0.529166,1.30681 -0.291042,0.36999 -0.529167,0.80277 -0.529167,0.96172 0,0.3708 -0.455562,0.37752 -0.578556,0.009 -0.06039,-0.18118 -0.37261,-0.13555 -0.881947,0.12888 -0.433649,0.22514 -0.997402,0.34314 -1.25278,0.26222 -0.284443,-0.0901 -0.527688,0.018 -0.627883,0.27911 -0.08996,0.23443 -0.357264,0.39443 -0.594011,0.35557 -0.236746,-0.0389 -0.569743,0.0168 -0.739992,0.1237 -0.182314,0.11447 -0.535511,-0.0929 -0.859316,-0.50457 z M -1.6053105,79.208532 c -0.1567418,-0.156742 -0.5059918,-0.232424 -0.7761102,-0.168183 -0.4253573,0.101161 -0.4025476,0.153501 0.1703335,0.390848 0.7462784,0.309187 1.0324438,0.204002 0.6057767,-0.222665 z m 2.03600575,-0.03692 c -0.003278,-0.481393 -0.0531336,-0.519366 -0.26053255,-0.198437 -0.33150174,0.512963 -0.33150174,0.79375 0,0.79375 0.14552083,0 0.26276035,-0.267891 0.26053255,-0.595313 z m -1.31886584,-2.315104 c 0,-0.145521 -0.0525039,-0.264583 -0.11667591,-0.264583 -0.064172,0 -0.1902619,0.119062 -0.2801991,0.264583 -0.089937,0.145521 -0.037433,0.264583 0.116676,0.264583 0.1541092,0 0.28019901,-0.119062 0.28019901,-0.264583 z m 59.80113859,4.35923 c 0.184076,-0.221798 0.38917,-0.348782 0.455766,-0.282186 0.183486,0.183488 -0.189323,0.685456 -0.509085,0.685456 -0.175445,0 -0.155371,-0.151813 0.05332,-0.40327 z"
       style="fill:#000000;stroke-width:0.264583" />
  </g>
</svg>
