<?xml version="1.0" encoding="UTF-8" standalone="no"?>
<svg
   xmlns:dc="http://purl.org/dc/elements/1.1/"
   xmlns:cc="http://creativecommons.org/ns#"
   xmlns:rdf="http://www.w3.org/1999/02/22-rdf-syntax-ns#"
   xmlns:svg="http://www.w3.org/2000/svg"
   xmlns="http://www.w3.org/2000/svg"
   id="svg8"
   version="1.1"
   viewBox="0 0 159.80833 189.21298"
   height="189.21298mm"
   width="159.80833mm">
  <defs
     id="defs2" />
  <metadata
     id="metadata5">
    <rdf:RDF>
      <cc:Work
         rdf:about="">
        <dc:format>image/svg+xml</dc:format>
        <dc:type
           rdf:resource="http://purl.org/dc/dcmitype/StillImage" />
        <dc:title></dc:title>
      </cc:Work>
    </rdf:RDF>
  </metadata>
  <g
     transform="translate(90.707587,-72.450833)"
     id="layer1">
    <path
       id="path117"
       d="m 15.193248,261.34377 c -0.604536,-0.76349 -0.983149,-1.8122 -1.92759,-5.33916 -0.548288,-2.04755 -1.236776,-4.4372 -1.529974,-5.31032 -0.293196,-0.87313 -0.79216,-2.48047 -1.108808,-3.57188 -0.316648,-1.0914 -1.0873741,-3.29406 -1.7127247,-4.89479 -0.6253506,-1.60073 -1.3438822,-3.56526 -1.5967365,-4.36563 -0.7696756,-2.43626 -3.2816666,-8.71945 -4.5132305,-11.28885 -1.5277808,-3.18739 -2.17844677,-4.85207 -2.77501336,-7.09969 -0.2703724,-1.01864 -0.8019388,-2.61277 -1.18125604,-3.54251 -0.3793172,-0.92974 -0.9849061,-2.82674 -1.3457501,-4.21555 -0.360844,-1.38881 -0.9187021,-3.03728 -1.2396866,-3.66326 -1.5858384,-3.09268 -9.0857462,-11.01711 -14.7850742,-15.62195 -1.550493,-1.25274 -1.926373,-1.44732 -2.293165,-1.18708 -1.834878,1.30188 -2.520921,1.49822 -5.019593,1.43656 -1.355323,-0.0335 -2.724541,-0.20457 -3.042708,-0.38027 -0.490712,-0.27099 -0.510455,-0.33376 -0.130127,-0.41375 0.264329,-0.0556 0.388458,-0.25039 0.302424,-0.4746 -0.09899,-0.25796 0.03695,-0.38029 0.422582,-0.38029 0.312684,0 1.460481,-0.52214 2.550659,-1.16031 l 1.982142,-1.1603 -3.482411,-2.32644 c -1.915324,-1.27955 -5.04468,-3.5883 -6.954123,-5.13057 -1.909439,-1.54227 -4.067024,-3.17468 -4.794628,-3.62758 -0.727604,-0.4529 -1.959737,-1.42029 -2.738075,-2.14975 -1.751136,-1.64118 -1.72426,-2.31044 0.103794,-2.58458 1.669587,-0.25037 2.714088,0.0144 4.225123,1.07098 0.725768,0.50749 2.569731,1.53988 4.0977,2.2942 2.745962,1.3556 4.002899,2.14005 5.292536,3.30306 l 0.662327,0.59729 -0.09359,-1.17677 c -0.05965,-0.75004 -0.196209,-1.11336 -0.376562,-1.0019 -0.180653,0.11165 -0.218922,0.008 -0.105836,-0.28671 0.100412,-0.26167 -0.109313,-1.17761 -0.484204,-2.11469 -0.816792,-2.04166 -0.817808,-2.18142 -0.01699,-2.3345 0.852723,-0.16301 1.069015,0.003 1.571117,1.2093 0.232574,0.55854 0.789088,1.47792 1.236697,2.04307 1.100209,1.38913 1.39333,2.48784 0.941863,3.53041 -0.507454,1.17185 -0.497554,2.2853 0.02545,2.86322 0.248701,0.27481 1.350352,0.96712 2.448116,1.53845 1.097764,0.57134 2.574446,1.51709 3.281513,2.10167 0.70707,0.58457 1.329171,1.06286 1.382448,1.06286 0.109934,0 0.07137,-0.25056 -0.712629,-4.63021 -0.312597,-1.74625 -0.677865,-3.31323 -0.811705,-3.48217 -0.294581,-0.37185 0.174681,-0.73467 0.605679,-0.46829 0.161793,0.1 0.387901,0.0301 0.502465,-0.15524 0.400661,-0.64828 0.976466,-0.0469 1.147114,1.19816 0.09974,0.72767 0.434192,1.55415 0.809332,1.99998 0.793924,0.94353 1.215675,2.83679 1.215675,5.45721 v 2.01006 l 2.182813,2.06994 c 1.200546,1.13847 2.329952,2.07355 2.509787,2.07796 0.179837,0.004 0.6421434,0.48427 1.0273476,1.06635 0.779137,1.17736 1.3000248,1.39078 1.0599631,0.4343 -0.086143,-0.34321 -0.2802281,-1.50407 -0.4313052,-2.57968 -0.1510744,-1.07561 -0.615905,-3.26535 -1.0329571,-4.86608 -0.8519004,-3.26975 -1.1998114,-5.8307 -1.1220554,-8.25931 l 0.05266,-1.64473 -3.164599,-4.70527 c -1.740519,-2.5879 -3.833712,-5.47918 -4.651528,-6.42506 -0.817819,-0.94589 -2.283923,-2.67039 -3.258008,-3.83223 -0.974084,-1.16184 -3.323748,-3.69192 -5.221472,-5.6224 -3.396919,-3.45554 -3.468695,-3.51005 -4.630208,-3.51627 -0.648891,-0.003 -1.656051,-0.12307 -2.238134,-0.26578 -1.618933,-0.39692 -4.686544,-0.78778 -8.280916,-1.05511 -2.494454,-0.18553 -3.605924,-0.3945 -4.7625,-0.89543 -0.829767,-0.35939 -1.776557,-0.72871 -2.103979,-0.82072 -0.327422,-0.092 -0.595313,-0.26974 -0.595313,-0.39494 0,-0.26548 2.457625,-0.082 4.365625,0.32591 0.727604,0.15555 2.156354,0.27661 3.175,0.26901 3.729733,-0.0278 7.500662,-0.20338 7.653556,-0.35632 0.188691,-0.18874 -3.991316,-4.7161 -6.572868,-7.11906 -1.016188,-0.94588 -2.823615,-2.71421 -4.016507,-3.92962 -1.950707,-1.98754 -2.244839,-2.19349 -2.923829,-2.04734 -0.415215,0.0894 -1.647904,-0.007 -2.73931,-0.21364 -1.091406,-0.20688 -3.078588,-0.38348 -4.415959,-0.39246 -1.337371,-0.009 -3.242371,-0.14204 -4.233333,-0.2957 -2.214496,-0.3434 -5.638207,-1.32375 -5.638207,-1.61446 0,-0.38088 1.663459,-0.53484 4.101041,-0.37956 1.309688,0.0834 3.458393,0.18696 4.774901,0.23007 1.316508,0.0431 2.566665,0.18631 2.778125,0.31821 0.541935,0.33805 1.045932,0.38405 1.045932,0.0955 0,-0.1346 0.43126,-0.0645 0.958353,0.1557 1.12967,0.47201 1.24306,0.48702 1.026022,0.13585 -0.08994,-0.14553 0.09155,-0.26459 0.40331,-0.26459 0.311755,0 0.52402,-0.12843 0.471696,-0.2854 -0.136522,-0.40956 -4.632401,-5.40048 -7.886464,-8.75484 l -2.778125,-2.86375 -3.088552,-0.001 c -2.907088,-0.001 -3.134712,-0.04 -3.874151,-0.66216 -0.738132,-0.6211 -1.825252,-1.12334 -6.663338,-3.07843 -2.105066,-0.85066 -2.997729,-1.46146 -2.741585,-1.87591 0.08599,-0.13914 0.559436,-0.17736 1.052094,-0.0849 0.492658,0.0924 0.89575,0.0733 0.89576,-0.0424 1e-5,-0.11573 0.811373,-0.24324 1.80303,-0.28334 1.653647,-0.0669 1.896732,-0.005 2.934318,0.74659 1.391523,1.00801 3.745944,1.58127 4.369385,1.06386 0.230036,-0.19092 0.418248,-0.47125 0.418248,-0.62298 0,-0.15172 -0.68461,-1.01475 -1.521354,-1.91784 -2.87855,-3.10679 -5.226182,-5.70096 -5.566697,-6.15127 -0.297824,-0.39387 -0.373005,-0.40093 -0.591668,-0.0556 -0.208912,0.32992 -0.350555,0.27157 -0.853314,-0.35151 -0.584697,-0.72463 -0.639596,-0.73784 -1.825891,-0.43912 -1.97797,0.49805 -4.935548,0.14993 -7.785353,-0.91638 -1.300784,-0.48672 -1.32796,-0.51788 -0.859895,-0.98594 0.265836,-0.26591 0.798382,-0.48341 1.183433,-0.48341 h 0.700093 l -0.710835,-0.65878 c -0.600618,-0.55664 -0.664999,-0.74443 -0.415219,-1.21115 0.200197,-0.37407 0.438523,-0.49378 0.738346,-0.37087 0.500927,0.20535 6.382692,0.5783 6.545905,0.41507 0.05826,-0.0583 -0.160028,-0.3694 -0.485083,-0.6914 -0.841444,-0.83353 -2.977053,-3.83655 -3.65952,-5.145893 -0.326537,-0.626475 -0.879058,-1.228624 -1.268542,-1.382488 -0.694389,-0.274314 -3.040943,-0.62403 -5.981697,-0.891473 -1.837713,-0.16713 -3.571874,-1.127487 -3.571874,-1.978063 0,-0.429632 0.122207,-0.499781 0.642975,-0.369076 0.548043,0.137549 0.622309,0.08234 0.502996,-0.373908 -0.118097,-0.451606 -0.04283,-0.511433 0.481503,-0.382705 0.341816,0.08392 0.740546,0.242333 0.886067,0.352031 0.249412,0.188013 5.336108,1.31162 5.937858,1.31162 0.584384,0 0.211654,-0.57591 -2.002087,-3.093448 -1.255065,-1.427302 -2.565878,-3.019371 -2.912918,-3.537931 -0.691303,-1.032974 -2.73207,-6.19117 -2.738579,-6.921968 -0.0064,-0.716345 1.193678,-0.134031 2.764196,1.341293 0.733029,0.688598 1.89148,1.463054 2.574336,1.721014 1.00642,0.380192 1.29811,0.640377 1.540166,1.373815 0.164235,0.497638 0.229817,1.016105 0.145737,1.152149 -0.08408,0.136045 0.169368,0.644388 0.563217,1.129652 0.39385,0.485265 0.758307,0.938382 0.809906,1.006928 0.219613,0.291747 0.586423,-0.731305 0.590158,-1.645983 0.0035,-0.860952 0.08544,-0.992188 0.619389,-0.992188 0.338436,0 0.874217,0.275565 1.190625,0.612365 0.50069,0.53296 0.575287,0.91429 0.575287,2.940765 v 2.328399 l 2.711979,3.022807 c 4.689765,5.227276 5.693847,6.391266 5.807606,6.732546 0.17613,0.52839 0.740831,0.005 0.740831,-0.68631 0,-0.34574 -0.107743,-0.91201 -0.239432,-1.25838 -0.131685,-0.34636 -0.323817,-1.305151 -0.426955,-2.130646 -0.158829,-1.271225 -0.119469,-1.527016 0.257215,-1.671564 0.244607,-0.09386 0.560601,-0.0548 0.702206,0.0868 0.261007,0.261006 1.370201,5.49562 1.660771,7.83767 0.143984,1.16054 0.418558,1.57391 2.987667,4.49792 1.556012,1.77095 2.933938,3.26219 3.062063,3.31385 0.128121,0.0517 0.156122,-0.3156 0.06222,-0.81613 -0.120185,-0.64065 0.03138,-1.51213 0.511966,-2.94377 0.375481,-1.11854 0.682694,-2.33878 0.682694,-2.71165 0,-0.39407 0.127648,-0.63539 0.304858,-0.57632 0.409932,0.13665 0.991936,2.42684 1.006382,3.96012 0.0098,1.04199 0.545616,4.99202 0.947888,6.98802 0.201864,1.00163 12.342921,13.9034 12.724518,13.5218 0.07281,-0.0728 0.0177,-0.59088 -0.122459,-1.15127 -0.140163,-0.56039 -0.263644,-1.47124 -0.274405,-2.0241 -0.01077,-0.55287 -0.09224,-1.12281 -0.181073,-1.26654 -0.202972,-0.32841 -0.914651,-4.31335 -1.177245,-6.5918 -0.109016,-0.94588 -0.353502,-2.46629 -0.543303,-3.37868 -0.274497,-1.31951 -0.278006,-1.72547 -0.01717,-1.98437 0.260041,-0.2581 0.294201,-0.23683 0.165003,0.10276 -0.108429,0.28499 0.0073,0.47277 0.346064,0.56135 0.370356,0.0968 0.558541,0.46349 0.690888,1.34604 0.230444,1.53672 0.831403,2.75148 1.459878,2.95095 0.676484,0.21471 1.017056,1.23682 1.228545,3.68708 0.230471,2.67015 0.936535,4.75559 1.647296,4.86548 0.465185,0.0719 0.490066,0.16728 0.226094,0.86662 -0.22574,0.59805 -0.218525,0.89484 0.0302,1.24211 0.598358,0.83541 0.67414,1.18368 0.365202,1.67837 -0.375684,0.60157 -0.404884,2.52224 -0.04176,2.74667 0.145521,0.0899 0.264584,0.37919 0.264584,0.6428 0,0.26361 1.041797,1.48253 2.315104,2.70872 3.097109,2.9825 5.622395,5.69481 5.622395,6.03879 0,0.15411 0.357188,0.35164 0.79375,0.43896 0.436563,0.0873 0.79375,0.32541 0.79375,0.5291 0,0.20369 0.297656,0.48352 0.661459,0.62183 0.363802,0.13832 0.661458,0.41058 0.661458,0.60503 0,0.40083 1.046977,1.61119 1.232887,1.42528 0.06674,-0.0667 -0.05785,-0.75922 -0.276868,-1.53884 -0.219017,-0.77963 -0.477748,-2.13188 -0.574953,-3.00501 -0.0972,-0.87312 -0.600303,-2.71859 -1.117994,-4.10104 -0.733724,-1.95935 -0.983869,-3.0969 -1.134533,-5.15937 -0.109535,-1.49944 -0.430988,-3.33367 -0.741903,-4.23334 -0.301744,-0.87312 -0.551553,-1.7798 -0.55513,-2.01484 -0.01042,-0.68481 1.037519,-1.82161 1.679234,-1.82161 0.500411,0 0.592235,0.14923 0.610499,0.99218 0.03582,1.65341 0.377873,3.53391 1.022673,5.6224 0.336957,1.0914 0.691851,2.52015 0.788646,3.175 0.0968,0.65484 0.40282,1.58438 0.680051,2.06564 0.277233,0.48126 0.504057,1.0807 0.504057,1.33209 0,0.25139 0.250987,1.16732 0.557745,2.0354 0.30676,0.86808 0.614251,2.35223 0.683313,3.29812 0.124904,1.71072 0.880803,3.9095 1.468982,4.27301 0.230333,0.14236 0.233312,0.34527 0.0118,0.80301 -0.529949,1.0951 -0.590991,1.80315 -0.15545,1.80315 0.632449,0 2.406089,1.53689 2.365308,2.04959 -0.02702,0.33974 0.193308,0.48614 0.822995,0.54686 0.866328,0.0835 1.108154,0.39388 0.567348,0.72812 -0.450262,0.27828 0.949942,1.43793 1.736209,1.43793 0.476221,0 0.673005,0.14183 0.673005,0.48506 0,0.26679 0.0893,0.57437 0.198438,0.68351 0.10914,0.10914 0.198437,0.33735 0.198437,0.50712 0,0.16977 0.384376,0.48727 0.85417,0.70556 0.596011,0.27692 0.855901,0.58087 0.859896,1.00568 0.0041,0.43396 0.25269,0.71222 0.865621,0.96886 0.472943,0.19802 0.959115,0.45984 1.080381,0.58181 0.12127,0.12197 0.355579,0.22177 0.52069,0.22177 0.165113,0 0.433027,0.4734 0.595368,1.05201 0.251825,0.89754 0.427884,1.07948 1.199102,1.23916 0.497165,0.10294 0.984255,0.10578 1.082421,0.006 0.09817,-0.0994 0.07358,-0.71661 -0.05462,-1.37145 -0.128209,-0.65484 -0.238292,-1.75044 -0.244629,-2.43467 -0.0063,-0.68422 -0.375687,-2.29156 -0.820777,-3.57187 -0.44509,-1.28031 -1.497745,-4.36244 -2.339237,-6.84919 -0.841491,-2.48674 -1.602858,-4.63926 -1.691928,-4.78338 -0.08907,-0.14412 -0.488468,-1.44326 -0.887552,-2.88698 -0.896568,-3.24341 -0.997503,-7.00352 -0.25513,-9.50412 0.259212,-0.87312 0.600419,-2.09351 0.758232,-2.71198 0.157816,-0.61846 0.356177,-1.12347 0.440801,-1.12224 0.08462,0.001 0.605735,0.86444 1.158026,1.91823 0.745815,1.42305 1.064545,2.42357 1.238861,3.88889 0.161875,1.36074 0.548111,2.65045 1.244793,4.15659 0.555553,1.20103 1.076455,2.18846 1.157557,2.19429 0.0811,0.006 0.522153,-0.79308 0.980112,-1.77534 0.457957,-0.98227 1.3143336,-2.67414 1.9030606,-3.75972 0.5887244,-1.08558 1.0704089,-2.14931 1.0704089,-2.36386 0,-0.21454 0.2342753,-0.87416 0.52061,-1.4658 0.2863347,-0.59165 1.331333,-3.51836 2.322216,-6.50381 l 1.8016087,-5.42808 -0.3168068,-2.24483 c -0.3513852,-2.48988 -0.5381916,-3.18091 -1.5302441,-5.66065 -0.7338006,-1.83423 -0.9136723,-3.86023 -0.3427095,-3.86023 0.5248646,0 1.5140807,0.78161 1.5140807,1.19632 0,0.20491 0.238125,0.5 0.5291667,0.65577 0.3792299,0.20295 0.532458,0.56169 0.5407792,1.26607 0.00638,0.54059 0.1831895,1.45913 0.392893,2.04122 0.2097008,0.58208 0.383069,1.32622 0.3852597,1.65364 0.00953,1.42302 1.2268332,-0.0926 2.03214807,-2.53019 0.36956998,-1.11863 0.82537031,-2.39106 1.01288844,-2.82762 C 1.3554292,106.56797 2.1139525,103.31691 2.000658,102.52762 1.2547447,97.33101 0.53560987,93.891721 -0.50931961,90.523538 -0.93232483,89.160043 -1.278421,87.957771 -1.278421,87.851823 c 0,-0.368506 1.54408181,-0.238768 1.69020323,0.142015 0.0798989,0.208216 0.31789157,0.378574 0.52887295,0.378574 0.55267222,0 1.48509032,1.639269 1.48509032,2.610917 0,0.455766 0.1051771,0.828666 0.2337249,0.828666 0.3299434,0 0.5603637,1.026894 0.2706026,1.205976 -0.3751394,0.23185 -0.2812811,1.076007 0.1603931,1.442565 0.2602494,0.215988 0.3132904,0.43673 0.15172,0.631411 -0.1366308,0.164629 -0.1786943,1.068273 -0.093472,2.008098 l 0.1549453,1.708774 0.5990007,-2.241641 C 4.2321113,95.334275 5.0285151,93.015849 5.6724474,91.41512 6.316377,89.814391 7.0549799,87.863097 7.3137847,87.078911 7.7746385,85.682512 7.7729214,85.62524 7.2305335,84.300786 6.7456079,83.116648 4.8069953,73.741521 4.8069953,72.580558 c 0,-1.051862 4.2455648,4.602698 4.3571237,5.803142 0.094747,1.019538 0.3338539,1.68193 0.931447,2.580378 0.24198,0.363802 0.593193,1.375834 0.780476,2.248959 0.473646,2.20817 0.459698,2.176461 0.698365,1.5875 0.266488,-0.657615 0.637209,-1.036443 1.236234,-1.263272 0.254661,-0.09643 0.46302,-0.339852 0.46302,-0.540935 0,-0.396619 1.534131,-1.675525 1.885554,-1.571864 0.118422,0.03493 0.335496,-0.161051 0.482385,-0.435518 0.257694,-0.481502 2.920526,-2.648368 5.5094,-4.483244 l 1.250786,-0.886499 0.0832,0.682613 c 0.04575,0.375438 -0.09615,1.012488 -0.315357,1.415666 -0.219205,0.403179 -0.775338,1.485796 -1.235853,2.405815 -0.460515,0.92002 -1.008216,1.738349 -1.21711,1.81851 -0.208896,0.08016 -0.361098,0.339449 -0.33823,0.576196 0.02286,0.236746 0.02787,0.562731 0.01111,0.72441 -0.03581,0.34548 -1.960724,1.339158 -3.00703,1.552286 -0.499004,0.101644 -0.727604,0.31288 -0.727604,0.672335 0,0.567727 -0.419973,0.719417 -0.588877,0.212698 -0.16296,-0.488873 -0.748213,0.01614 -1.159524,1.00055 -0.232738,0.557015 -0.61441,0.950074 -1.021855,1.052337 -0.357701,0.08978 -0.722185,0.389519 -0.809966,0.666094 -0.08814,0.277712 -0.401391,0.502863 -0.699624,0.502863 -0.440751,0 -0.510154,0.118988 -0.377558,0.647295 0.113964,0.45407 -0.07493,1.049905 -0.632775,1.996019 -0.4373801,0.741797 -0.795237,1.459399 -0.795237,1.594669 0,0.13527 -0.4187136,1.10631 -0.930476,2.157867 -0.5117623,1.051556 -0.8844861,2.036969 -0.8282754,2.189805 0.056211,0.15284 -0.07252,0.478743 -0.2860675,0.724236 -0.2135478,0.245491 -0.3184313,0.559348 -0.2330714,0.697461 0.2779474,0.44973 1.8995177,-0.321728 3.5048903,-1.66745 0.85312,-0.715134 1.283234,-1.001259 0.955812,-0.635833 -0.768352,0.857536 -0.80473,1.422461 -0.06615,1.027181 0.291041,-0.15576 0.529166,-0.45058 0.529166,-0.655153 0,-0.517107 0.546068,-0.803936 0.787337,-0.413557 0.143015,0.231404 0.451072,0.108653 1.094898,-0.436282 0.492739,-0.417055 1.37214,-0.918233 1.954223,-1.113729 0.582084,-0.195495 1.458249,-0.654704 1.947035,-1.020465 l 0.888701,-0.665019 -0.177639,0.895332 c -0.293793,1.480756 -0.70367,2.324386 -1.206902,2.484105 -0.261948,0.08314 -0.545391,0.331297 -0.629878,0.55146 -0.08448,0.220165 -0.720561,0.650335 -1.413504,0.955934 -0.692941,0.305599 -2.033802,1.056016 -2.979687,1.667592 -3.0149036,1.949324 -4.89553,3.041454 -5.2373532,3.041454 -0.1826683,0 -0.4040584,0.35966 -0.4919768,0.79925 -0.087918,0.43959 -0.2654776,0.86454 -0.3945757,0.94433 -0.1291008,0.0798 -0.161589,0.2634 -0.072199,0.40804 0.08939,0.14463 -0.013361,0.46383 -0.2283619,0.70932 -0.5920607,0.67606 -1.2488888,2.0775 -1.0615082,2.26489 0.09121,0.0912 -0.045339,0.16583 -0.3034427,0.16583 -0.3433842,0 -0.4179861,0.12422 -0.2780771,0.46302 0.7371715,1.78516 0.6358229,3.88692 -0.1193853,2.4758 -0.1641236,-0.30666 -0.4430421,-0.55575 -0.6198234,-0.55352 -0.2442422,0.003 -0.2464012,0.0518 -0.009,0.20274 0.2742935,0.17444 0.2995982,1.03824 0.1082622,3.69582 -0.013097,0.1819 -0.1950059,0.33073 -0.4042437,0.33073 -0.2092377,0 -0.3818598,0.20835 -0.3836034,0.46302 -0.00185,0.25466 -0.085672,1.04198 -0.1865075,1.74961 -0.1802447,1.26492 -0.1726723,1.28342 0.449752,1.09896 1.321382,-0.39161 3.4935846,-1.48027 4.4261191,-2.21827 0.9366566,-0.74127 2.9538366,-1.73765 2.9538366,-1.45905 0,0.0751 -0.282024,0.51546 -0.626718,0.97869 -0.3446964,0.46323 -0.7048181,1.17233 -0.8002771,1.57577 -0.2044118,0.86392 -2.4427364,2.3792 -6.047483,4.09394 -1.6527012,0.78617 -2.31510404,1.23836 -2.31510404,1.58041 0,0.26352 -0.23812498,0.92342 -0.52916663,1.46644 -0.30468357,0.56847 -0.52916664,1.4928 -0.52916664,2.17889 0,0.8828 -0.10284618,1.19158 -0.39687497,1.19158 -0.25166107,0 -0.39687502,0.25332 -0.39687502,0.69232 0,0.56206 -0.099565,0.66628 -0.5291666,0.55394 -0.3925067,-0.10264 -0.5291666,-0.008 -0.5291666,0.36602 0,0.27741 0.1190625,0.50439 0.2645833,0.50439 0.1455208,0 0.2645833,0.17486 0.2645833,0.38857 0,0.21372 -0.1488281,0.33631 -0.3307291,0.27243 -0.6337803,-0.22258 -1.4404366,0.78757 -1.6280632,2.03876 -0.1007613,0.67192 -0.5170514,1.87446 -0.9250891,2.67232 -0.8075374,1.57901 -1.22174,3.35917 -0.781603,3.35917 0.1485001,0 0.2192444,0.14883 0.1572102,0.33073 -0.062034,0.1819 -0.3696124,0.29348 -0.6835061,0.24795 -0.3721629,-0.054 -0.5707194,0.0582 -0.5707194,0.32243 0,0.26923 0.1477407,0.34851 0.4402772,0.23625 0.2960396,-0.1136 0.3776054,-0.0675 0.2489703,0.1406 -0.1052222,0.17025 -0.4079346,0.30954 -0.6727005,0.30954 -0.3955362,0 -0.5311536,0.3421 -0.7604336,1.91823 -0.1534742,1.05503 -0.2135981,2.24565 -0.1336093,2.64583 0.089178,0.44616 0.03116,0.72761 -0.1499923,0.72761 -0.1624859,0 -0.2954284,0.28308 -0.2954284,0.62906 0,0.34598 -0.1840124,0.78178 -0.4089162,0.96843 -0.2249037,0.18665 -0.353269,0.48438 -0.2852578,0.66162 0.068011,0.17723 0.029895,0.42604 -0.084701,0.55292 -0.325493,0.36036 0.3950256,5.14071 0.9941374,6.59567 0.2962116,0.71936 0.9759156,2.7962 1.5104586,4.61522 0.5345429,1.81901 1.0612331,3.48588 1.1704213,3.70416 0.1091909,0.21828 0.4715457,1.34938 0.8052355,2.51354 0.4943369,1.72465 1.5737548,5.05322 2.2645581,6.98319 0.2473272,0.69097 0.4842218,0.0184 0.80760086,-2.29298 0.17767563,-1.26993 0.56776934,-2.99988 0.86687814,-3.84435 0.29910614,-0.84446 1.0830348,-3.54246 1.7420589,-5.99553 0.6590268,-2.45309 1.3664008,-4.79825 1.571945,-5.21149 0.4524825,-0.9097 0.6510629,-1.38853 1.8613569,-4.48831 0.518406,-1.32773 0.9425569,-2.75726 0.9425569,-3.17675 0,-0.41948 0.110453,-1.14782 0.245454,-1.61853 0.1746617,-0.60898 0.144097,-1.06639 -0.1059528,-1.58576 C 6.0761301,143.8665 5.776164,142.46647 5.602817,141.15679 5.4294699,139.8471 5.0472449,137.82304 4.7534304,136.65887 4.459616,135.4947 4.0517872,133.05392 3.8471426,131.23491 c -0.204642,-1.81901 -0.447331,-3.94298 -0.5393107,-4.71992 -0.163076,-1.37752 -0.1514528,-1.41041 0.4675266,-1.32292 0.4539879,0.0642 0.6532668,0.27809 0.6997435,0.75118 0.076909,0.78285 1.1987662,4.45159 2.1045433,6.88234 0.3531209,0.94764 0.6734545,2.34426 0.7118535,3.10361 0.042243,0.83536 0.2446311,1.5738 0.5124476,1.86974 0.2434484,0.269 0.4426321,0.68105 0.4426321,0.91567 0,0.23462 0.1154588,0.49793 0.256577,0.58515 0.2968942,0.18349 0.9187788,-1.1644 1.5846605,-3.43464 0.410605,-1.3999 1.217055,-3.45165 1.819921,-4.63021 0.111657,-0.21828 1.030216,-2.50947 2.041239,-5.09154 1.221237,-3.11893 1.949233,-4.65362 2.168956,-4.57237 0.181901,0.0673 0.330729,-0.0525 0.330729,-0.26627 0,-0.21371 0.119063,-0.38857 0.264584,-0.38857 0.14552,0 0.264583,-0.15584 0.264583,-0.3463 0,-0.19047 0.171894,-0.57742 0.381987,-0.8599 0.338135,-0.45463 0.372128,-0.10352 0.296103,3.05829 -0.05363,2.23027 -0.24679,4.14814 -0.514279,5.10613 -0.235616,0.84385 -0.428394,1.82985 -0.428394,2.19112 0,0.36127 -0.178594,0.72539 -0.396875,0.80915 -0.244875,0.094 -0.396875,0.49612 -0.396875,1.05003 0,0.49375 -0.11651,0.89773 -0.258911,0.89773 -0.161303,0 -0.151225,0.23635 0.02673,0.62693 0.228988,0.50257 0.144959,1.0405 -0.423635,2.71198 -0.390105,1.14678 -0.818994,2.83359 -0.953085,3.74847 -0.134094,0.91489 -0.432522,1.95145 -0.663176,2.30348 -0.230655,0.35202 -0.352419,0.74837 -0.270589,0.88077 0.246573,0.39897 1.403318,0.0352 2.038718,-0.64119 0.665609,-0.70851 1.366051,-0.85602 1.128792,-0.23773 -0.08376,0.21828 -0.03488,0.39688 0.108622,0.39688 0.397957,0 3.103173,-1.21094 5.667472,-2.53693 2.250564,-1.16375 2.30619,-1.17752 2.593004,-0.6416 0.237829,0.44439 0.186674,0.68346 -0.271277,1.26778 -1.015061,1.29517 -2.852497,2.62925 -4.029448,2.92561 -0.634743,0.15983 -1.596485,0.59083 -2.137204,0.95777 -1.854559,1.25854 -2.691061,1.5861 -4.404724,1.72485 l -1.716419,0.13897 -0.172132,0.92605 c -0.283324,1.52421 -1.218369,4.82677 -1.662105,5.87052 -0.232709,0.54737 -0.349615,1.30239 -0.26629,1.71979 0.112131,0.5617 -0.0508,1.01909 -0.664781,1.86625 -0.4473231,0.6172 -0.8133159,1.23796 -0.8133159,1.37946 0,0.1415 -0.6530128,1.61561 -1.4511416,3.2758 -0.7981288,1.66019 -1.6829245,3.95646 -1.9662139,5.10283 -0.2832894,1.14637 -0.6423077,2.50024 -0.7978166,3.0086 -0.1555088,0.50836 -0.2827443,1.37156 -0.2827443,1.91823 0,0.54666 -0.1190625,0.99393 -0.2645833,0.99393 -0.1455209,0 -0.2653692,0.26789 -0.2663269,0.59531 -0.00106,0.32743 -0.2402232,0.9525 -0.5317014,1.38907 -0.6416145,0.96098 -1.1610313,2.64726 -1.1206056,3.63802 0.016325,0.40018 -0.066199,0.7276 -0.1833906,0.7276 -0.1171946,0 -0.2169107,0.26789 -0.2215912,0.59531 -0.00468,0.32743 -0.2489068,1.1311 -0.5427239,1.78594 -0.44426448,0.99016 -0.49353783,1.40626 -0.29265824,2.47136 0.15766524,0.83595 0.14695224,1.4575 -0.0308478,1.78971 -0.1978554,0.3697 -0.18784357,0.48985 0.0365892,0.43906 0.35416594,-0.0801 0.57134914,0.54929 1.02574184,2.97279 0.3078057,1.64167 2.1973989,7.86011 2.6633671,8.76482 0.1219333,0.23675 0.304083,0.89159 0.4047781,1.45521 0.1006951,0.56362 0.4119298,1.27634 0.6916367,1.58384 0.2797069,0.30749 0.4830815,0.66468 0.4519453,0.79375 -0.092771,0.38455 0.3408998,2.21493 0.5563288,2.34807 0.1096142,0.0677 0.6562592,-1.0349 1.2147602,-2.45032 2.0399003,-5.16975 5.538287,-11.39661 8.878276,-15.80266 l 1.403964,-1.85209 0.0487,-5.20806 c 0.02678,-2.86442 0.175601,-5.60286 0.330706,-6.08541 0.155104,-0.48255 0.409511,-2.16125 0.565351,-3.73045 0.155837,-1.5692 0.394607,-3.14574 0.530603,-3.50343 0.226113,-0.59473 0.310129,-0.62355 0.982287,-0.3369 1.259718,0.53721 1.660813,1.02814 1.665115,2.03807 0.0027,0.62908 0.0806,0.8304 0.230095,0.5945 0.179242,-0.28284 0.340021,-0.23435 0.776528,0.23419 0.705321,0.75707 0.959776,1.92049 0.576625,2.63641 -0.394176,0.73653 -0.758417,4.18324 -0.531212,5.02671 0.16477,0.61169 0.274617,0.51217 1.460103,-1.32292 1.164765,-1.80301 1.762085,-2.876 4.124127,-7.40833 0.417115,-0.80037 1.376793,-3.12208 2.132618,-5.15938 l 1.374232,-3.70416 0.05064,-5.15938 c 0.04029,-4.1038 -0.04359,-5.56536 -0.409953,-7.14375 -0.7932,-3.4173 -1.100394,-5.33555 -1.299996,-8.11768 -0.19041,-2.65404 -0.2101,-2.71555 -1.336624,-4.17574 -0.628851,-0.81511 -1.310087,-1.57531 -1.513854,-1.68935 -0.622268,-0.34824 -3.256134,-4.05933 -3.256134,-4.58786 0,-0.70279 0.793067,-0.93551 1.216173,-0.35688 0.214556,0.29342 0.515591,0.40794 0.792771,0.30157 0.61508,-0.23603 1.583643,0.45587 2.087512,1.49122 0.492861,1.01273 1.420585,2.18087 1.594168,2.00729 0.06663,-0.0666 0.183107,-1.80926 0.258842,-3.87252 0.07574,-2.06326 0.261659,-4.55569 0.413162,-5.53874 0.151503,-0.98304 0.346128,-2.2394 0.432496,-2.79191 0.221829,-1.41905 0.930892,-1.22562 1.195808,0.3262 0.109776,0.64304 0.312748,1.23909 0.451054,1.32457 0.138306,0.0855 0.256887,0.80848 0.263509,1.60668 0.0066,0.7982 0.139303,2.10612 0.294844,2.90649 0.155538,0.80036 0.352147,2.43747 0.436909,3.63802 0.08476,1.20054 0.2496,2.18281 0.36631,2.18281 0.287092,0 1.309304,-1.32075 1.307484,-1.68933 -0.0021,-0.43238 4.068291,-8.59664 4.294838,-8.61437 0.105785,-0.008 0.396862,0.29709 0.646837,0.6786 0.481936,0.73553 0.568227,2.2803 0.157517,2.81982 -0.135228,0.17764 -0.584684,1.27549 -0.998789,2.43965 -0.414102,1.16417 -1.08309,2.53339 -1.486635,3.04271 -0.403548,0.50932 -0.998455,1.64042 -1.32202,2.51354 -0.323564,0.87313 -0.995166,2.09696 -1.492448,2.71964 l -0.904147,1.13213 0.183673,2.17516 c 0.101021,1.19634 0.289375,2.30517 0.418566,2.46408 0.129191,0.15891 0.163041,0.36078 0.07522,0.4486 -0.267542,0.26754 0.404706,3.52848 1.271084,6.1658 0.623628,1.89836 0.897065,2.42819 1.146376,2.22128 0.180073,-0.14945 0.967158,-1.66561 1.749081,-3.36924 0.781921,-1.70364 2.336014,-4.95962 3.45354,-7.23551 l 2.031865,-4.13798 -0.34653,-1.29198 c -0.19059,-0.71059 -0.473189,-2.40284 -0.627996,-3.76057 -0.154808,-1.35772 -0.423149,-2.63931 -0.596316,-2.84796 -0.204538,-0.24645 -0.255204,-0.81449 -0.144613,-1.62135 0.146979,-1.07232 0.0039,-2.44808 -0.526709,-5.06419 -0.12124,-0.59777 -0.14882,-0.60505 -0.632774,-0.16708 -0.700339,0.6338 -1.853375,0.33974 -1.841836,-0.46972 0.0046,-0.32465 0.179408,-0.81617 0.3884,-1.09227 0.208992,-0.2761 0.317241,-0.60353 0.240554,-0.72761 -0.07669,-0.12408 0.105719,-0.2256 0.405349,-0.2256 0.307862,0 0.544783,-0.1726 0.544783,-0.39688 0,-0.58986 0.367083,-0.4803 0.664863,0.19844 0.143648,0.32742 0.380241,0.60117 0.525762,0.60832 0.599882,0.0295 1.414933,0.42645 1.538901,0.74951 0.09329,0.2431 -0.0563,0.30939 -0.504724,0.22366 -0.816976,-0.15617 -0.870178,0.63078 -0.108136,1.59956 0.291042,0.37 0.529167,0.74707 0.529167,0.83793 0,0.0909 0.179779,0.59548 0.39951,1.12137 0.374158,0.89548 0.429498,0.92903 0.87199,0.52858 0.446656,-0.40422 0.466749,-0.37379 0.367625,0.55669 -0.09888,0.92821 -0.08196,0.95416 0.297003,0.45553 0.50532,-0.66489 0.713362,-0.46405 0.758328,0.73204 0.0441,1.17298 -0.514932,2.58235 -0.957004,2.41271 -0.181366,-0.0696 -0.472961,0.046 -0.647991,0.25691 -0.248065,0.2989 -0.245723,0.88493 0.01061,2.65787 0.180867,1.25093 0.395875,2.27442 0.477798,2.27442 0.08192,0 0.737304,-1.10109 1.456404,-2.44687 1.747467,-3.27035 3.863335,-6.22452 8.080999,-11.28271 0.801891,-0.9617 2.041504,-2.52245 2.754696,-3.46833 0.713192,-0.94589 1.426316,-1.83886 1.584722,-1.98438 0.158406,-0.14552 0.601033,-0.6813 0.983615,-1.19062 0.382579,-0.50932 1.054809,-1.3346 1.49384,-1.83394 0.790763,-0.8994 0.796967,-0.90126 0.662614,-0.19844 -0.07459,0.3902 -0.217207,0.70946 -0.316923,0.70946 -0.09972,0 -0.193114,0.41672 -0.20755,0.92604 -0.01445,0.50933 0.08103,0.92604 0.212146,0.92604 0.131117,0 0.238395,0.17063 0.238395,0.37918 0,0.24569 -0.266025,0.37162 -0.755621,0.3577 -1.097383,-0.0312 -1.420357,0.23366 -1.035801,0.84944 0.233185,0.37338 0.402669,0.4302 0.656042,0.21992 0.2599,-0.2157 0.34163,-0.15595 0.34163,0.24973 0,0.29329 -0.195636,0.60833 -0.434745,0.70008 -0.239109,0.0918 -0.357912,0.24366 -0.264006,0.33757 0.09391,0.0939 -0.03314,0.39602 -0.282337,0.67138 -0.373502,0.41271 -0.389499,0.53994 -0.09108,0.72438 0.287202,0.17749 0.199191,0.43385 -0.425918,1.24061 -0.433356,0.55929 -1.070145,1.49314 -1.415087,2.07522 -0.344943,0.58209 -0.961686,1.40836 -1.370542,1.83617 -0.408855,0.42781 -0.743373,0.89935 -0.743373,1.04787 0,0.14852 -0.347364,0.98912 -0.771919,1.868 -0.424556,0.87888 -1.040194,2.22298 -1.368081,2.98689 -0.32789,0.76391 -0.813964,1.58604 -1.080164,1.82695 -0.266203,0.2409 -0.484003,0.64211 -0.484003,0.89155 0,0.24945 -0.55106,1.42619 -1.224581,2.61497 -0.673521,1.18879 -1.174001,2.21201 -1.112176,2.27383 0.152929,0.15293 2.617298,-0.51017 3.346616,-0.90049 0.323718,-0.17325 0.705178,-0.24294 0.847694,-0.15486 0.142512,0.0881 0.259114,0.026 0.259114,-0.13788 0,-0.17763 0.213786,-0.23018 0.529167,-0.13008 0.324112,0.10287 0.529166,0.0476 0.529166,-0.14277 0,-0.1709 0.174781,-0.24365 0.388401,-0.16168 0.213622,0.082 0.458774,0.0352 0.544782,-0.10398 0.08601,-0.13916 0.357714,-0.24924 0.603787,-0.24461 0.392814,0.007 0.385194,0.0555 -0.06245,0.39414 -0.828323,0.62666 -0.28697,0.74201 1.220317,0.26002 1.960766,-0.62701 2.861415,-1.02245 2.861415,-1.25633 0,-0.11 0.307578,-0.2 0.683506,-0.2 0.77469,0 0.755137,0.46932 -0.0378,0.90714 -0.28238,0.15592 -0.589405,0.38804 -0.682276,0.51582 -0.09287,0.12779 -0.301228,0.15052 -0.463021,0.0505 -0.16179,-0.1 -0.294164,-0.049 -0.294164,0.11327 0,0.1623 -0.534728,0.53161 -1.188286,0.82071 -0.653558,0.2891 -1.635823,0.93669 -2.182812,1.43907 -0.891799,0.81908 -1.151162,0.91356 -2.51097,0.9147 -1.280586,0.001 -3.726828,0.28423 -5.891889,0.68201 -0.595453,0.1094 -0.797711,0.3979 -3.139811,4.47863 -0.918723,1.60073 -2.058093,3.56526 -2.53193,4.36562 -2.045805,3.4556 -3.119122,5.55565 -2.835335,5.54761 0.167746,-0.005 0.959837,-0.23898 1.760201,-0.52052 0.800365,-0.28155 1.855716,-0.51578 2.345227,-0.52053 0.489508,-0.005 1.322946,-0.23434 1.852083,-0.5102 3.255843,-1.69736 7.238412,-3.47809 8.321632,-3.72085 0.693918,-0.15551 1.703139,-0.57152 2.242717,-0.92448 0.539575,-0.35296 1.338236,-0.72493 1.774798,-0.82661 0.436563,-0.10169 0.912813,-0.2713 1.058334,-0.37692 0.145521,-0.10562 0.466725,-0.18842 0.713787,-0.184 0.483653,0.009 2.885723,-1.12793 3.151997,-1.49141 0.08889,-0.12134 0.233114,-0.0343 0.320498,0.19342 0.140779,0.36686 0.299979,0.35356 1.397185,-0.11676 1.124537,-0.48203 1.994934,-0.50225 1.228442,-0.0285 -0.174083,0.10758 -0.349229,0.48239 -0.389213,0.8329 -0.04742,0.41571 -0.383167,0.7986 -0.965657,1.10125 -0.491128,0.25518 -1.063427,0.70733 -1.271773,1.00479 -0.208349,0.29746 -0.651267,0.54083 -0.984263,0.54083 -0.332997,0 -0.818198,0.23509 -1.078225,0.52241 -0.260027,0.28733 -0.713322,0.59876 -1.007324,0.69207 -0.294002,0.0933 -1.141503,0.53431 -1.883333,0.97999 -0.741834,0.44569 -2.063163,1.18428 -2.936288,1.64132 -2.310974,1.2097 -2.732066,1.48978 -3.752151,2.49565 -0.742196,0.73185 -0.966637,0.83426 -1.159711,0.52917 -0.173199,-0.27369 -0.24053,-0.28504 -0.243462,-0.041 -0.0037,0.30981 -0.888563,0.78255 -1.856134,0.99167 -0.218281,0.0472 -0.456406,0.10862 -0.529166,0.13654 -0.07276,0.0279 -0.251354,0.0736 -0.396875,0.10151 -0.145521,0.0279 -0.443177,0.11643 -0.661459,0.1967 -0.218281,0.0803 -0.873125,0.2917 -1.455208,0.46984 -1.471752,0.45041 -2.860934,1.09868 -3.175,1.48164 -0.14552,0.17745 -1.217083,0.39539 -2.38125,0.48432 -1.770625,0.13526 -2.193774,0.25938 -2.588318,0.75923 -0.259408,0.32864 -0.702733,0.84915 -0.985168,1.15669 -0.282434,0.30754 -1.38911,2.27207 -2.459278,4.36562 -1.07017,2.09356 -2.323486,4.43678 -2.785144,5.20717 -0.461661,0.77039 -0.839383,1.51453 -0.839383,1.65365 0,0.13911 -0.208359,0.46293 -0.46302,0.71958 -0.254662,0.25666 -0.613257,0.76268 -0.79688,1.12448 -0.773817,1.52471 -2.136336,3.92729 -2.962958,5.2247 -0.487746,0.76553 -0.816303,1.46238 -0.730125,1.54855 0.186777,0.18678 3.523702,-0.86739 4.320661,-1.36494 0.307067,-0.1917 1.246537,-0.54863 2.087708,-0.79316 0.841171,-0.24454 2.018686,-0.66681 2.616697,-0.93838 1.450351,-0.65865 1.630765,-0.63525 2.001427,0.25961 0.251061,0.60611 0.245364,0.87952 -0.02742,1.31631 -0.271685,0.43504 -0.275942,0.61967 -0.02019,0.87541 0.178258,0.17826 0.324104,0.55506 0.324104,0.83734 0,0.28227 0.177742,0.64541 0.394984,0.80698 0.330173,0.24555 0.343987,0.4674 0.08419,1.35208 -0.413731,1.40886 -0.680992,1.71979 -1.478251,1.71979 -0.442092,0 -1.001775,-0.35969 -1.646753,-1.05833 -0.537377,-0.58208 -1.175856,-1.05833 -1.418846,-1.05833 -0.244409,0 -0.639099,0.41374 -0.883396,0.92604 -0.36408,0.76348 -0.585222,0.92604 -1.259766,0.92604 -0.44999,0 -1.085869,-0.18751 -1.413063,-0.41668 -0.572236,-0.40081 -0.606168,-0.38435 -0.89081,0.43217 l -0.295912,0.84886 -1.880042,-0.14198 c -1.15683,-0.0874 -2.146012,-0.0246 -2.571451,0.16314 -0.803981,0.35479 -2.083692,1.77799 -2.725552,3.03116 -0.2462,0.48068 -0.917554,1.34389 -1.491898,1.91823 -0.772279,0.77228 -1.044263,1.26052 -1.044263,1.87457 0,0.60371 -0.294719,1.15004 -1.079921,2.00189 -0.684035,0.74209 -1.021839,1.32294 -0.921477,1.58447 0.08714,0.2271 0.03267,0.56445 -0.121055,0.74968 -0.153725,0.18523 -0.510794,1.68486 -0.793485,3.3325 -0.73178,4.26513 -1.727922,7.22145 -3.018369,8.9578 -2.303973,3.1001 -2.91397,4.31989 -2.524366,5.04787 0.203647,0.38052 0.156832,0.72769 -0.18497,1.37174 -0.664094,1.25134 -0.572365,4.88348 0.162827,6.44754 0.298823,0.63572 0.543317,1.37543 0.543317,1.64381 0,0.26837 0.07704,0.56498 0.171188,0.65914 0.363765,0.36376 1.106606,2.96407 0.870712,3.04791 -0.400839,0.14246 -0.284171,0.83784 0.14057,0.83784 0.525455,0 1.979607,2.95883 1.528114,3.10932 -0.41267,0.13756 -0.434022,0.59485 -0.02777,0.59485 0.528188,0 1.004252,0.89419 1.012941,1.90262 0.0046,0.53711 0.123508,1.0477 0.264179,1.13464 0.371536,0.22962 1.596318,2.74742 1.596318,3.28156 0,0.24998 0.126254,0.58077 0.280567,0.73508 0.15431,0.15431 0.327951,0.86209 0.385868,1.57283 0.05792,0.71074 0.281898,1.70963 0.497737,2.21974 0.577572,1.36505 1.746245,5.29987 1.746245,5.87947 0,0.27555 0.223938,1.00049 0.497641,1.61097 0.739069,1.64846 0.877681,2.23697 0.571455,2.42623 -0.301363,0.18625 -0.36967,1.43736 -0.114747,2.10168 0.08833,0.23018 0.385985,0.41851 0.661458,0.41851 0.515784,0 0.609955,0.42281 0.509696,2.28839 -0.02463,0.45824 0.08237,0.91176 0.237776,1.0078 0.412562,0.25498 0.345694,1.20173 -0.08488,1.20173 -0.211576,0 -0.442335,0.39929 -0.544028,0.94136 -0.09713,0.51774 -0.408038,1.13952 -0.690904,1.38172 -0.282868,0.24219 -0.517924,0.62226 -0.522351,0.84458 -0.0067,0.33805 -0.05026,0.33187 -0.265988,-0.0378 -0.234434,-0.40175 -0.331084,-0.40556 -1.060405,-0.0417 -0.441354,0.22017 -0.965316,0.33782 -1.16436,0.26144 -0.199043,-0.0764 -0.569751,0.0908 -0.823796,0.37152 -0.35188,0.38882 -0.546856,0.43987 -0.818607,0.21434 -0.263197,-0.21843 -0.356714,-0.21819 -0.356714,0.001 0,0.39606 -0.400659,0.37744 -0.726247,-0.0337 z m 6.730433,-78.44393 c -0.06708,-0.25743 -0.126381,-0.11087 -0.131773,0.3257 -0.0054,0.43656 0.04949,0.64718 0.12197,0.46805 0.07248,-0.17913 0.07689,-0.53632 0.0098,-0.79375 z m 0.345813,-0.84931 c 0,-0.13694 -0.119062,-0.32256 -0.264583,-0.41249 -0.145521,-0.0899 -0.264583,0.0221 -0.264583,0.24896 0,0.22687 0.119062,0.41249 0.264583,0.41249 0.145521,0 0.264583,-0.11203 0.264583,-0.24896 z m 0.214974,-2.64492 c 0.06615,-0.19843 -0.03307,-0.29765 -0.23151,-0.23151 -0.190998,0.0637 -0.399354,0.27203 -0.463021,0.46303 -0.06615,0.19843 0.03307,0.29765 0.23151,0.23151 0.190995,-0.0637 0.399355,-0.27203 0.463021,-0.46303 z m 10.112499,-2.00091 c 0.359042,-0.48948 0.353428,-0.50193 -0.07487,-0.16604 -0.254662,0.19972 -0.463021,0.48746 -0.463021,0.63941 0,0.15196 0.03369,0.22668 0.07487,0.16604 0.04118,-0.0606 0.249537,-0.34836 0.463021,-0.63941 z m -9.36817,-0.53789 c -0.184314,-0.48032 -0.694719,-0.51278 -0.694719,-0.0442 0,0.48166 0.62747,1.08092 0.749255,0.71557 0.05193,-0.15578 0.02738,-0.4579 -0.05454,-0.67138 z m 12.79903,-46.69023 c 0.156459,-0.29235 0.174434,-0.52917 0.04017,-0.52917 -0.13367,0 -0.305305,0.23813 -0.381416,0.52917 -0.07611,0.29104 -0.09418,0.52916 -0.04017,0.52916 0.05401,0 0.225653,-0.23812 0.381413,-0.52916 z M 6.0460681,103.13947 c -0.08446,-0.21107 -0.1471559,-0.14837 -0.1598506,0.15985 -0.011483,0.27892 0.051046,0.43519 0.1389644,0.34727 0.087918,-0.0879 0.097316,-0.31613 0.020876,-0.50712 z m -2.0328227,0.0496 c 0,-0.14552 -0.1260899,-0.26458 -0.2801991,-0.26458 -0.1541091,0 -0.2066131,0.11906 -0.1166759,0.26458 0.089937,0.14552 0.216027,0.26458 0.280199,0.26458 0.064172,0 0.116676,-0.11906 0.116676,-0.26458 z m 1.0583332,-2.38125 c 0,-0.14552 -0.052504,-0.26458 -0.1166759,-0.26458 -0.064172,0 -0.1902619,0.11906 -0.280199,0.26458 -0.089937,0.14552 -0.037433,0.26458 0.1166759,0.26458 0.1541092,0 0.280199,-0.11906 0.280199,-0.26458 z m 63.4999964,46.81564 c 0,-0.15411 0.119062,-0.20661 0.264583,-0.11667 0.145521,0.0899 0.264584,0.21602 0.264584,0.2802 0,0.0642 -0.119063,0.11667 -0.264584,0.11667 -0.145521,0 -0.264583,-0.12609 -0.264583,-0.2802 z M 55.143972,131.51443 c -0.552265,-0.46072 -0.802085,-1.07327 -0.437719,-1.07327 0.306922,0 1.694489,1.09805 1.694489,1.34093 0,0.39848 -0.615362,0.26742 -1.25677,-0.26766 z m -97.528488,-5.70348 c 0.08376,-0.21828 0.199088,-0.39687 0.25628,-0.39687 0.05719,0 0.103984,0.17859 0.103984,0.39687 0,0.21828 -0.115326,0.39688 -0.256281,0.39688 -0.140951,0 -0.187745,-0.1786 -0.103983,-0.39688 z m 43.7519282,-3.0427 c 0,-0.14553 0.1190625,-0.26459 0.2645833,-0.26459 0.1455208,0 0.2645833,0.11906 0.2645833,0.26459 0,0.14552 -0.1190625,0.26458 -0.2645833,0.26458 -0.1455208,0 -0.2645833,-0.11906 -0.2645833,-0.26458 z m 45.5083308,-0.52917 c 0,-0.14552 0.12609,-0.26458 0.280199,-0.26458 0.154109,0 0.206613,0.11906 0.116676,0.26458 -0.08994,0.14552 -0.216027,0.26458 -0.280199,0.26458 -0.06417,0 -0.116676,-0.11906 -0.116676,-0.26458 z m 14.821973,-7.01785 c 0.184076,-0.2218 0.38917,-0.34879 0.455766,-0.28219 0.183486,0.18349 -0.189323,0.68545 -0.509085,0.68545 -0.175445,0 -0.155371,-0.15181 0.05332,-0.40326 z m -109.270815,-2.61997 c -0.331692,-0.87242 -0.33448,-0.94552 -0.03609,-0.94552 0.269811,0 0.654555,1.31441 0.445839,1.52313 -0.07577,0.0758 -0.26016,-0.18416 -0.409753,-0.57761 z m 111.382174,-5.14762 c 0,-0.14552 0.119063,-0.33817 0.264583,-0.4281 0.145521,-0.0899 0.264584,-0.0445 0.264584,0.10106 0,0.14552 -0.119063,0.33817 -0.264584,0.4281 -0.14552,0.0899 -0.264583,0.0445 -0.264583,-0.10106 z"
       style="fill:#000000;stroke-width:0.264583" />
  </g>
</svg>
